/* XPM */
static char *wall10[] = {
/* columns rows colors chars-per-pixel */
"64 64 150 2 ",
"   c #000000",
".  c #0A0C0B",
"X  c #030514",
"o  c #070C10",
"O  c #090E12",
"+  c #0F161C",
"@  c #131514",
"#  c #161815",
"$  c #10171E",
"%  c #1A1C1B",
"&  c #1E201F",
"*  c #161D26",
"=  c #181E25",
"-  c #1D2124",
";  c #17212A",
":  c #1B242C",
">  c #1E292F",
",  c #1F2932",
"<  c #242625",
"1  c #262827",
"2  c #25262C",
"3  c #262A29",
"4  c #2B2C2C",
"5  c #2E302F",
"6  c #252732",
"7  c #292732",
"8  c #262932",
"9  c #292B35",
"0  c #222E3A",
"q  c #2C2E39",
"w  c #2E3130",
"e  c #25313C",
"r  c #2D323B",
"t  c #343635",
"y  c #363837",
"u  c #31343D",
"i  c #3B3E3E",
"p  c #3B403E",
"a  c #263741",
"s  c #293642",
"d  c #2C3A46",
"f  c #2D3B48",
"g  c #323441",
"h  c #313E47",
"j  c #3B3F40",
"k  c #343D4B",
"l  c #3E4143",
"z  c #33414E",
"x  c #3B4149",
"c  c #344453",
"v  c #394653",
"b  c #374957",
"n  c #384956",
"m  c #37495A",
"M  c #3A4B5A",
"N  c #3E505E",
"B  c #3E4F61",
"V  c #3F5163",
"C  c #414546",
"Z  c #43464A",
"A  c #464A4D",
"S  c #494A4D",
"D  c #474A53",
"F  c #4A4E59",
"G  c #4E5155",
"H  c #42515D",
"J  c #515457",
"K  c #53575A",
"L  c #575C5F",
"P  c #585C5F",
"I  c #425363",
"U  c #495764",
"Y  c #445769",
"T  c #465A6C",
"R  c #495C6D",
"E  c #535561",
"W  c #545B64",
"Q  c #595C61",
"!  c #535E6E",
"~  c #475E70",
"^  c #485D70",
"/  c #565F70",
"(  c #5D6164",
")  c #5B606D",
"_  c #4D6476",
"`  c #4E6478",
"'  c #526374",
"]  c #596070",
"[  c #526679",
"{  c #52697D",
"}  c #5A6A7A",
"|  c #63676A",
" . c #65696C",
".. c #606672",
"X. c #686775",
"o. c #646B73",
"O. c #6A6E71",
"+. c #6C7073",
"@. c #6B737D",
"#. c #72767A",
"$. c #787C7F",
"%. c #546D81",
"&. c #596F84",
"*. c #567186",
"=. c #5B7286",
"-. c #577188",
";. c #5B768C",
":. c #5C788E",
">. c #5C7890",
",. c #6D7480",
"<. c #717785",
"1. c #757A86",
"2. c #7A7D83",
"3. c #647E93",
"4. c #7D8085",
"5. c #7F8887",
"6. c #7F8789",
"7. c #678095",
"8. c #7E8892",
"9. c #818787",
"0. c #818689",
"q. c #858A8E",
"w. c #878F91",
"e. c #8A8F92",
"r. c #8D9396",
"t. c #8F9498",
"y. c #909499",
"u. c #95989D",
"i. c #979CA0",
"p. c #999CA1",
"a. c #9EA1A6",
"s. c #9EA3A8",
"d. c #A1A2A7",
"f. c #A1A5AA",
"g. c #A7ABB1",
"h. c #AAADB3",
"j. c #AFB2B7",
"k. c #B1B4BB",
"l. c #B6B9BE",
"z. c #B8BBC0",
"x. c #C7C8CC",
"c. c #CACBCF",
"v. c #CBCCD0",
"b. c #CFD0D4",
"n. c #D1D1D6",
"m. c #D6D7DB",
"M. c #D7D8DC",
"N. c #DADBDF",
"B. c #DBDFE2",
"V. c #FFFFFF",
/* pixels */
"8 8 9 8 8 8 9 9 9 9 9 u u u u u u u u u u u u u u u u u u u u u u r q q q q q q q q q 9 9 r r r r r r u q q r q u u 8 q u u u r ",
"9 9 8 8 8 8 8 8 8 8 8 9 u u u q 9 q q q q u u u q w u u u u u u g Z 2.1.1.1.<.<.,.@.,.@.<...9 8 7 6 6 2 8 8 9 9 q 9 8 9 q u q u ",
"8 8 9 8 8 9 6 6 8 8 r u u u 6 8 6 9 q r r r u k I M ^ ^ R I I M I x v R g k M ^ ^ U [ ! ! ..9 9 8 8 8 8 8 8 8 7 u q 8 2 8 9 u q ",
"9 9 8 8 8 8 2 9 9 q u u u q 9 u u n _ :.:.;._ [ a 6 ^ ^ ^ ^ ^ ^ ^ Y a M M ^ ^ M $ :.3.:.:.[ s 6 9 9 6 8 8 8 8 9 2 9 8 9 8 8 8 2 ",
"8 8 8 6 8 8 8 9 r q r r u 9 6 N ;.:.:.:.:.d I ;.%.o c ^ ^ ^ ^ T ^ ~ T ~ ^ ^ M $ _ :.:.:.v c *.c r 8 6 8 8 2 9 9 8 9 9 q r q r r ",
"8 8 8 8 8 8 8 8 9 9 8 9 u z M = %.:.:.:.H n { ;.:.%.e Y ~ U I ^ ~ T _ T a T n s %.:._ a a :.:.:.:.:.U E | X.X.Z 8 2 u u u 9 9 9 ",
"9 8 8 8 8 9 2 8 9 2 8 q Y ^ ^ M T :.:.:.:.&.M { :.=.f d M $ 0 b M I [ M T k M >.:.:.:.:.>.:.:.:.:.^ I I / / / Q 9 u u u q 8 2 9 ",
"9 8 8 8 8 6 8 8 8 9 v ~ R ^ ^ ^ 6 Y :.:.:.:.:.:.:.:.;.v   M I M M * M I ~ 6 { >.:.>.:.:.Y :.:.>.Y * V ^ ^ ^ / Q r r r 9 9 r 9 u ",
"9 8 8 8 8 6 9 6 9 M ^ ^ ^ ^ ^ ^ I $ Y 3.M r a a e :.:.;.e ~ ^ ^ ^ I Y ^ a %.:.:.:.:._ a _ :.:.Y + I M M ~ R M D u r u u u u u u ",
"9 8 8 8 9 9 8 9 U ^ ~ T ~ ^ ~ T ^ I : 0 *.:.:.:.:.:.:.:.b 6 ~ R ^ ^ _ { n :.:.:.n a Y :.:.:._ = I ^ ^ ^ T _ M 9 q u u u u u u r ",
"9 6 8 9 r u r T ^ ^ ^ ^ ^ ~ ^ ^ M U Q L L P P P Q L Q P L L P P P P Q P P P P P P Q P P P P A d I ^ I I ~ ~ ~ ^ U z u u u r 9 8 ",
"9 q 9 8 8 q : V ^ ^ ^ ^ ^ ^ [ W Q 2.r.t.r.i.c.t.t.t.t.t.t.t.t.a.l.p.t.r.r.y.y.r.t.k.h.y.r.y.q.#.j M n M ~ ~ ^ ^ ^ I 6 9 9 8 8 8 ",
"9 9 8 8 6 &.%.m , ^ ^ ~ ^ z A 0.r.t.r.t.y.q.l.f.t.t.t.t.y.y.y.e.k.a.t.t.t.t.y.y.0.k.k.p.y.y.y.y.y.q.J M ~ ~ ^ R R r n e 8 6 8 8 ",
"7 9 9 8 %.c *.>.m : Y ^ M   K ( ( | ( ( ( P x ( ( ( ( ( ( P ( J i K | Q | Q ( ( ( i Z | Q Q ( ( ( Q y 6 R ~ T a % b U [ 7 8 2 8 ",
"8 6 6 v ;.&.I %.:.c 0 M o < y j y y Z r.e.2.@ y i y < 2.r.w.( y y y y y O.w.e.C y y i < O.e.r.Q y y l 3 k T d d M T _ :.z 6 8 8 ",
"6 8 6 %.:.:.%.%.:.;.M y A 2 y j i i A r.y.0.@ j i p < 0.y.y.| p j j x y $.t.y.S j i i < +.y.t.Q l p p 3  .s d %.:._ :.:.^ 9 8 8 ",
"9 7 s >.:.:.:.:.:.>.l 4.( < i p i p A t.t.0.@ p p i < 0.y.r.| p i i p y 2.t.t.S p i i < +.t.y.( j p i 3 w.| } :.:.:.:.:.:.e 9 9 ",
"9 9 ' :.:.&.r R =.=.( y.( < p i p i A t.t.0.@ p i i < 0.r.y.| p p p p y 2.t.t.A i i p < +.y.r.( i p i 3 r.0.  :.%.*.*.;.:._ 7 7 ",
"u u :.;.:.:.:.R c I 2.r.( < p p i i A y.t.0.@ i l i < 0.y.y.| p i i p y $.r.t.A l i p < +.r.r.( i p i 4 t.r.K 8.M c c _ :.-.9 2 ",
"u u T T Y T T T U C r.y.( < l i p i A y.t.0.@ p p p < 0.r.y.| i i p l y #.t.t.A i p p < +.y.y.( i i i 4 r.t.O.  V T T Y T Y q 9 ",
"u X               C r.r.( < i i p p A t.t.6.@ i p p < 0.r.y.| p p i p y #.y.t.A i p i < O.y.y.( i p p < r.r.r.            . u g ",
"U %.%.M . . . I { Z ( ( ( ( ( ( ( ( Q ( ( ( ( ( ( ( ( ( ( ( ( ( ( ( ( ( ( ( ( ( ( ( ( ( Q | ( ( ( ( O.( ( ( ( n %.%.%.%.%.%.%.s ",
"U   ; a %.>.:.Y ^ O.t.t.a.x.l.t.y.t.t.t.t.p.n.d.y.r.y.r.y.r.t.y.m.j.t.t.t.t.t.y.t.x.M.u.y.r.r.y.r.r.l.c.y.t.t.c 0 a s a s 0 %.v ",
"c U _ :.:.:.:.:.I O.y.y.4.a.i.t.t.t.t.t.r.w.h.t.t.t.t.r.y.y.t.2.g.a.t.t.t.y.t.t.t.s.g.y.r.y.y.y.y.r.r.u.y.t.y.d I >.>.>.>.b     ",
"U 7.:.:.:.:.>.:.;.Z ( ( ( ( ( ( ( ( ( ( ( ( ( ( ( ( ( ( ( ( ( ( ( ( ( ( ( ( ( ( ( ( ( ( ( ( ( ( ( ( ( ( ( ( ( V :.:.>.:.:.;.R f ",
"U >.>.>.>.:.:.:.;.O.r.r.( < l i i l A t.y.0.@ p p p < 0.r.y.| p i i i y 2.r.t.A i p j < O.y.r.( p i l 3 r.t.t.B :.:.:.:.:.:.:.M ",
"U %.{ %.%.%.%.%.[ O.y.y.( < p i p i A t.r.0.@ i i p < 0.t.y.| i j p i y #.t.t.A j i i < O.y.y.( i i i 4 r.t.t.c %.%.%.%.*.{ { b ",
"'                 +.r.y.( < i p i p A t.y.0.@ i i p 2 0.y.y.| i i i l y $.t.y.A j i p < +.y.r.( i p j 3 r.t.t.                  ",
"! n M M T   0 b n +.t.t.( < p i p i A y.t.0.@ l p i < 0.t.t.| p p p i y #.t.y.A p j i < +.t.t.( p p i 4 r.t.t.0 b M n a M n M 0 ",
"F R ^ { n T T 6 _ +.t.r.( < i j i p A t.t.0.@ i p i < 0.r.t.| i i i i y #.y.y.A i i p < +.t.t.( p i i 4 r.t.t.f _ 6 , * I ~ R d ",
"o.~ Y e : ^ ^ ^ T O.r.t.( < p p p p A t.t.0.@ i i i < 0.y.y.| p p i i y #.t.y.A p p p < +.y.t.( p p p 4 r.r.t.$ , R R c o _ ^ f ",
"I ~ V : z ^ ^ ^ T O.t.t.( < p p i i A y.t.0.@ i p i < q.r.y.| i p i p u $.t.t.A p p p < +.t.r.( i i i 4 r.t.t.f T ~ _ _ 0 M ^ f ",
"I ^ ~ I M ~ ~ ~ U K #.#.S % 5 5 5 5 y #.#.| . t w 4 % O.#.#.G w 5 5 5 3 Q #.#.y 5 5 5 % K #.#.S 5 5 5 - @.#.#.h R _ ^ T V M ^ f ",
"I ^ ^ ^ ^ ~ R R T P 9.0.0.0.5.0.0.0.0.0.0.0.0.0.0.0.6.0.4.0.0.0.0.0.5.0.0.0.0.0.0.0.0.0.0.0.0.0.0.0.0.0.6.0.9.d ~ ^ ^ T ^ R ^ f ",
"H I I I I I I I I O.t.r.u.n.j.y.y.r.y.r.r.u.B.i.y.y.t.t.y.t.y.y.N.k.y.y.t.t.y.y.r.n.N.u.r.y.t.y.y.y.n.c.t.t.t.r I I I I I I I a ",
"c M M M M M M M n O.t.y.w.f.u.r.y.y.y.y.y.r.f.r.y.t.t.t.t.t.t.q.u.u.y.r.y.y.t.y.t.r.s.u.r.y.r.y.t.t.i.i.t.t.t.e M M M M M M M e ",
"*.:.:._ *.:.:.:.;.C P P y @ < < < < 3 P L G . < < < @ J L P l < < < < & A L Q 3 < < < @ C P Q y < < < # P P L M :.:.:.:.:.:.:.M ",
";.3.3.{ ;.3.3.:.;.V.V.V.V.V.V.V.V.V.V.V.V.V.V.V.V.V.V.V.V.V.V.V.V.V.V.V.V.V.V.V.V.V.V.V.V.V.V.V.V.V.V.V.V.V.V.M :.:.` e s M >.M ",
":.:.:.:.:.:.:.:.;.V.V.V.V.V.V.V.V.V.V.V.V.V.V.V.V.V.V.V.V.V.V.V.V.V.V.V.V.V.V.V.V.V.V.V.V.V.V.V.V.V.V.V.V.V.V.M :.:.:.;.;.*.r ; ",
":.:.:.:.:.:.:.:.=.V.V.V.V.V.V.V.V.V.V.V.V.V.V.V.V.V.V.V.V.V.V.V.V.V.V.V.V.V.V.V.V.V.V.V.V.V.V.V.V.V.V.V.V.V.V.M :.:.:.:.:.:.>.M ",
":.:.:.:.:.:.:.:.;.V.V.V.V.V.V.V.V.V.V.V.V.V.V.V.V.V.V.V.V.V.V.V.V.V.V.V.V.V.V.V.V.V.V.V.V.V.V.V.V.V.V.V.V.V.V.M :.:.:.:.:.:.:.M ",
":.:.>.>.:.:.:.:.;.V.V.V.V.V.V.V.V.V.V.V.V.V.V.V.V.V.V.V.V.V.V.V.V.V.V.V.V.V.V.V.V.V.V.V.V.V.V.V.V.V.V.V.V.V.V.M :.:.:.:.:.>.:.M ",
"e r r r e e r r r V.V.V.V.V.V.V.V.V.V.V.V.V.V.V.V.V.V.V.V.V.V.V.V.V.V.V.V.V.V.V.V.V.V.V.V.V.V.V.V.V.V.V.V.V.V.* r e r e r e r ; ",
"T ^ ~ ~ _ _ T _ T V.V.V.V.V.V.V.V.V.V.V.V.V.V.V.V.V.V.V.V.V.V.V.V.V.V.V.V.V.V.V.V.V.V.V.V.V.V.V.V.V.V.V.V.V.V.f _ R _ T _ R ~ z ",
"^ ^ ~ ~ T ~ ~ R Y V.V.V.V.V.V.V.V.V.V.V.V.V.V.V.V.V.V.V.V.V.V.V.V.V.V.V.V.V.V.V.V.V.V.V.V.V.V.V.V.V.V.V.V.V.V.f ^ ^ ~ ^ ~ _ T d ",
"^ ~ ~ ~ T ~ _ ~ T V.V.V.V.V.V.V.V.V.V.V.V.V.V.V.V.V.V.V.V.V.V.V.V.V.V.V.V.V.V.V.V.V.V.V.V.V.V.V.V.V.V.V.V.V.V.s ^ ^ ^ ^ ~ T ~ f ",
"{ I , M _ I , b Y V.V.V.V.V.V.V.V.V.V.V.V.V.V.V.V.V.V.V.V.V.V.V.V.V.V.V.V.V.V.V.V.V.V.V.V.V.V.V.V.V.V.V.V.V.V.f ;.^ ~ ^ ~ { , + ",
"s a ~ ~ c s ~ ~ T V.V.V.V.V.V.V.V.V.V.V.V.V.V.V.V.V.V.V.V.V.V.V.V.V.V.V.V.V.V.V.V.V.V.V.V.V.V.V.V.V.V.V.V.V.V.f ^ %., 0 , ~ ~ f ",
"^ ^ ^ R ^ ^ ^ ^ Y V.V.V.V.V.V.V.V.V.V.V.V.V.V.V.V.V.V.V.V.V.V.V.V.V.V.V.V.V.V.V.V.V.V.V.V.V.V.V.V.V.V.V.V.V.V.d ~ ~ ` _ ^ ^ ^ f ",
"T ^ ^ ^ ^ ^ ^ ^ Y V.V.V.V.V.V.V.V.V.V.V.V.V.V.V.V.V.V.V.V.V.V.V.V.V.V.V.V.V.V.V.V.V.V.V.V.V.V.V.V.V.V.V.V.V.V.f ~ R ~ ~ ^ ^ ^ d ",
", > > > > , , > , V.V.V.V.V.V.V.V.V.V.V.V.V.V.V.V.V.V.V.V.V.V.V.V.V.V.V.V.V.V.V.V.V.V.V.V.V.V.V.V.V.V.V.V.V.V.+ , , , , , , 6 $ ",
">.3.>.>.:.3.:.:.;.V.V.V.V.V.V.V.V.V.V.V.V.V.V.V.V.V.V.V.V.V.V.V.V.V.V.V.V.V.V.V.V.V.V.V.V.V.V.V.V.V.V.V.V.V.V.M >.:.:.:.:.:.:.M ",
">.3.:.:.:.3.:.:.*.V.V.V.V.V.V.V.V.V.V.V.V.V.V.V.V.V.V.V.V.V.V.V.V.V.V.V.V.V.V.V.V.V.V.V.V.V.V.V.V.V.V.V.V.V.V.M :.:.%.%.:.:.:.M ",
"Y >.;.;.Y :.:.>.;.V.V.V.V.V.V.V.V.V.V.V.V.V.V.V.V.V.V.V.V.V.V.V.V.V.V.V.V.V.V.V.V.V.V.V.V.V.V.V.V.V.V.V.V.V.V.M :.:.%.%.:.:.:.M ",
"` :.:.%.' :.>.:.*.V.V.V.V.V.V.V.V.V.V.V.V.V.V.V.V.V.V.V.V.V.V.V.V.V.V.V.V.V.V.V.V.V.V.V.V.V.V.V.V.V.V.V.V.V.V.M :.:.:.Y a M _ ; ",
":.:.>.:.>.>.:.:.-.V.V.V.V.V.V.V.V.V.V.V.V.V.V.V.V.V.V.V.V.V.V.V.V.V.V.V.V.V.V.V.V.V.V.V.V.V.V.V.V.V.V.V.V.V.V.M :.:.:.:.n :.>.M ",
":.:.:.:.:.:.:.:.;.V.V.V.V.V.V.V.V.V.V.V.V.V.V.V.V.V.V.V.V.V.V.V.V.V.V.V.V.V.V.V.V.V.V.V.V.V.V.V.V.V.V.V.V.V.V.B >.:.:.:.:.:.:.M ",
"k M M M M M M M n V.V.V.V.V.V.V.V.V.V.V.V.V.V.V.V.V.V.V.V.V.V.V.V.V.V.V.V.V.V.V.V.V.V.V.V.V.V.V.V.V.V.V.V.V.V.e M M M M M M M 0 ",
"V I I I I I I I M V.V.V.V.V.V.V.V.V.V.V.V.V.V.V.V.V.V.V.V.V.V.V.V.V.V.V.V.V.V.V.V.V.V.V.V.V.V.V.V.V.V.V.V.V.V.r U I I I I I I d ",
"~ T T ^ R T ^ ^ T V.V.V.V.V.V.V.V.V.V.V.V.V.V.V.V.V.V.V.V.V.V.V.V.V.V.V.V.V.V.V.V.V.V.V.V.V.V.V.V.V.V.V.V.V.V.f ~ ^ T T ^ ^ R d ",
"^ , b { I n { T Y V.V.V.V.V.V.V.V.V.V.V.V.V.V.V.V.V.V.V.V.V.V.V.V.V.V.V.V.V.V.V.V.V.V.V.V.V.V.V.V.V.V.V.V.V.V.f ^ _ n M T ^ ^ d ",
"V c _ ^ I ` ~ I _ V.V.V.V.V.V.V.V.V.V.V.V.V.V.V.V.V.V.V.V.V.V.V.V.V.V.V.V.V.V.V.V.V.V.V.V.V.V.V.V.V.V.V.V.V.V.z M [ I c h R ^ f ",
"I T ~ ^ R ^ ^ ^ _ V.V.V.V.V.V.V.V.V.V.V.V.V.V.V.V.V.V.V.V.V.V.V.V.V.V.V.V.V.V.V.V.V.V.V.V.V.V.V.V.V.V.V.V.V.V.c V ^ ^ V ^ ^ R f ",
"I ^ ~ ^ ^ ^ ^ ~ I V.V.V.V.V.V.V.V.V.V.V.V.V.V.V.V.V.V.V.V.V.V.V.V.V.V.V.V.V.V.V.V.V.V.V.V.V.V.V.V.V.V.V.V.V.V.f ^ ^ ^ ^ _ ^ ^ d "
};
