/* XPM */
static char *wall1[] = {
/* columns rows colors chars-per-pixel */
"64 64 158 2 ",
"   c #000000",
".  c #0A0B0B",
"X  c #030514",
"o  c #070C10",
"O  c #090E12",
"+  c #0E151B",
"@  c #131514",
"#  c #161817",
"$  c #10171F",
"%  c #1A1C1B",
"&  c #1E201F",
"*  c #161D26",
"=  c #181E26",
"-  c #1D2123",
";  c #17212A",
":  c #1B242C",
">  c #1F2932",
",  c #242625",
"<  c #262827",
"1  c #24262C",
"2  c #272928",
"3  c #2B2C2B",
"4  c #2E302F",
"5  c #252732",
"6  c #292732",
"7  c #262932",
"8  c #292B35",
"9  c #222E3A",
"0  c #2C2E39",
"q  c #2C3033",
"w  c #24313C",
"e  c #2D323C",
"r  c #343635",
"t  c #363837",
"y  c #31343D",
"u  c #373A39",
"i  c #3B3F3E",
"p  c #3B403E",
"a  c #273641",
"s  c #293642",
"d  c #2C3A46",
"f  c #2D3B48",
"g  c #323441",
"h  c #313E47",
"j  c #3C3F40",
"k  c #343D4B",
"l  c #3E4144",
"z  c #33414E",
"x  c #3B4149",
"c  c #344453",
"v  c #394653",
"b  c #374957",
"n  c #394957",
"m  c #374858",
"M  c #3A4B5A",
"N  c #3E505E",
"B  c #3E4F61",
"V  c #3F5163",
"C  c #414546",
"Z  c #43464A",
"A  c #464A4D",
"S  c #4A4B4D",
"D  c #474A53",
"F  c #4D4E52",
"G  c #4A4E59",
"H  c #4E5154",
"J  c #42515D",
"K  c #505457",
"L  c #53575A",
"P  c #575B5E",
"I  c #585C5F",
"U  c #425363",
"Y  c #495764",
"T  c #445769",
"R  c #465A6C",
"E  c #495C6D",
"W  c #535561",
"Q  c #545B64",
"!  c #595C61",
"~  c #535E6E",
"^  c #475E70",
"/  c #485D70",
"(  c #565F70",
")  c #5D6164",
"_  c #5B606D",
"`  c #4D6476",
"'  c #4E6478",
"]  c #526374",
"[  c #596070",
"{  c #526679",
"}  c #52697D",
"|  c #5A6A7A",
" . c #606467",
".. c #626669",
"X. c #65696C",
"o. c #6A6E6F",
"O. c #606672",
"+. c #686775",
"@. c #646B73",
"#. c #6A6E71",
"$. c #6C7073",
"%. c #6B737D",
"&. c #717576",
"*. c #73767A",
"=. c #74787D",
"-. c #787C7F",
";. c #546D81",
":. c #596F84",
">. c #567186",
",. c #5B7286",
"<. c #577188",
"1. c #5B768C",
"2. c #5C788E",
"3. c #5C7890",
"4. c #6D7480",
"5. c #717785",
"6. c #757A86",
"7. c #7A7D82",
"8. c #647E93",
"9. c #7D8085",
"0. c #7F8789",
"q. c #678095",
"w. c #7E8892",
"e. c #818787",
"r. c #818689",
"t. c #868B8E",
"y. c #878F91",
"u. c #8A8F92",
"i. c #8D9296",
"p. c #8F9498",
"a. c #909497",
"s. c #909599",
"d. c #96999E",
"f. c #979CA0",
"g. c #999CA1",
"h. c #9EA1A6",
"j. c #9DA2A8",
"k. c #A1A2A7",
"l. c #A1A6AA",
"z. c #A5A9AD",
"x. c #A7AAB1",
"c. c #A9ACB3",
"v. c #AFB2B7",
"b. c #AFB2B9",
"n. c #B1B4BB",
"m. c #B5B8BD",
"M. c #BABDC2",
"N. c #C1C4CB",
"B. c #C7C8CC",
"V. c #CACBCF",
"C. c #CECFD3",
"Z. c #CFD1D5",
"A. c #D1D2D7",
"S. c #D6D7DB",
"D. c #D7D8DC",
"F. c #DBDBDF",
"G. c #DDDEE2",
"H. c #FFFFFF",
/* pixels */
"7 7 8 7 7 7 8 8 8 8 8 e y y y y y y y y y y y y y y y y y y y y y y 0 0 0 0 y 0 e 0 0 8 8 y e e y e e y 0 0 e 0 y y 8 0 y y y e ",
"8 8 7 7 7 7 7 7 7 7 8 8 y y y 0 8 8 0 0 8 y y y y 6 y y y y y y y Z 6.7.6.6.5.5.%.%.4.%.5...5 8 6 5 5 5 7 7 8 8 0 8 7 7 0 y 0 y ",
"7 7 8 7 7 8 5 5 7 7 e y y y 5 6 8 8 0 e y e y h U M / E E T B M U k v E g k v / / R { [ ~ O.8 8 7 7 5 7 7 7 6 8 e 8 1 7 7 8 y 0 ",
"8 8 7 7 7 7 1 8 8 0 y y y e 8 e y n ` 2.2.1.` } a 5 / / / / / ^ / T s M M / / M $ 2.2.2.1.} a 5 8 8 7 7 7 5 8 8 8 8 7 8 7 7 7 1 ",
"7 7 7 5 7 7 7 8 e 0 e e r 5 5 M 1.2.2.2.2.d U 1.;.O c ^ ^ ^ / R ^ / T / / / M * ` 2.2.2.M c >.c e 1 7 7 7 7 8 8 8 7 8 e e 0 0 e ",
"7 7 7 7 7 7 7 7 0 8 7 8 e v M = ;.2.2.2.J n } 1.2.;.e R / U U / / / ` R a R M w ;.2.' a a 2.2.2.2.2.Y W ..+.+.l 1 7 y y y 8 8 8 ",
"8 7 7 7 7 8 1 7 1 8 8 8 T / / B R 2.2.2.1.1.M } 2.>.d d M * > M M U { M R k M 1.1.2.2.2.1.2.2.2.2./ U U ( ( ( ! 8 y y y 0 1 1 0 ",
"8 7 7 7 7 5 7 7 7 7 v ^ E / / / 5 R 1.2.1.1.2.2.2.2.1.v   M U b b = M U ^ > } 3.2.3.2.2.T 2.3.1.R * V R / E ( ! e e e 8 8 e 8 y ",
"8 7 7 7 7 7 8 7 8 M / / / / / / U $ T 8.M a a a a 2.1.1.w ^ / ^ / U T / s ;.3.2.2.2.' a { 3.1.T + U M M E ` M D y e y y y y y y ",
"8 7 7 8 0 8 7 7 Y / / R ^ / ^ R / U : 9 ;.1.2.2.2.2.2.2.m 5 / R / / ` } b 1.2.2.b a T 2.1.1.' * U / / ^ R E M 9 0 y y y y y y e ",
"6 8 7 8 e y e R / / / / / ^ / / M Y ! ! I I I I I I ! I P P ! ! P ! ! P ! P ! P I ! ! P P ! A f U / U U ^ ^ ^ ^ E k y y y e 8 7 ",
"8 0 8 7 7 8 : V / / / / / / { Q ! 7.p.p.s.g.V.p.p.p.p.p.p.p.a.h.m.g.p.a.p.a.a.p.s.n.c.p.p.p.y.&.j M M b ^ ^ E E E U 5 8 8 7 8 1 ",
"6 7 7 7 5 <.;.M > / / / / c A r.a.s.p.s.p.t.n.l.p.p.p.p.p.p.i.u.n.h.a.a.a.p.s.p.r.n.n.g.s.s.i.p.s.r.L M ^ E ` ` E 8 b e 7 5 7 7 ",
"8 8 8 5 } c >.2.m : T / M   L ! ) ) ! ) ) ! C ) ) ) ) ) ) ) ) K i L  .! ) ) ) ) ) p Z ) ) ) ) ) ) ! u 7 ^ E T w % b R { 5 7 5 7 ",
"7 7 5 v 3.:.U ;.3.c 9 m O , u u u u Z u.u.7.@ u u u , 7.u.u.) u u u u r #.y.u.Z u u u , #.u.u.I u u j 2 z T s z M R ` 1.z 7 7 7 ",
"5 7 5 ;.3.1.;.;.1.1.M u A , j j i i A p.p.r.@ j j l , e.p.s...p j j j u 7.p.s.A i i l , #.p.s.) j i i 3 X.s d } 2.' 1.1.` 6 7 7 ",
"7 8 s 1.1.8.1.1.1.3.l 7.) , i i p p A p.p.r.@ p i i , r.s.i...p i i i t 7.p.p.S i p i , $.p.s.) j p i 2 u...| 2.2.2.2.2.2.e 7 7 ",
"8 8 ` 1.1.:.e E 1.,.) s.) , p i i i A p.p.r.@ i p i , r.p.p...i j i i t 7.p.p.A i i i , $.p.p.) i i i 2 u.r.  2.>.>.>.1.2.` 6 5 ",
"y y 1.8.3.1.3.E c J 7.p.) < i i i i A s.p.r.@ p j i , r.p.p...i i i i t 7.i.p.A p i i , #.s.i.) p i i 3 p.i.L w.M c c ' 1.:.8 6 ",
"y y R R T R R R Y C i.p.) , l i p i A p.p.r.@ p i i , e.a.p.X.i i p i u *.p.p.A i p i , $.p.p.) i i i 3 p.p.#.  B R R T R T e 7 ",
"y X               C i.p.) , p i i p A p.p.0.@ i i i , e.p.p...p i i p u =.p.p.A i p i , #.s.s.) i p i < i.p.p.            . g g ",
"Y ;.;.b . . . U } Z ) ) ) ) ) ) ) ) ) ) ) ) ) ) ) ) ) ) ) ) ) ) ) ) ) ! ) ) ) ) ) ) ) ) ) ) ) ) ) ) #.) ) ) ) b ;.;.;.:.;.;.;.s ",
"Y   ; a ;.3.1.R / #.p.s.h.B.m.p.p.p.p.p.p.g.A.k.p.p.p.p.p.p.p.s.S.v.p.s.p.p.p.p.p.B.D.g.p.p.p.p.p.p.M.V.p.p.p.c 9 a a a a 9 ;.c ",
"c Y ' 2.2.2.2.1.U #.s.s.7.h.f.i.p.p.p.p.i.t.c.p.p.p.p.p.a.p.p.7.x.h.p.p.p.p.p.p.p.h.x.p.p.a.p.p.i.u.y.g.p.p.p.s J 3.3.3.3.M     ",
"R 8.2.2.2.2.3.2.1.Z ) ) ) ) ) ) ) ) ) ) ) ) ) ) ) ) ) ) ) ) ) ) ) ) ) ) ) ) ) ) ) ) ) ) ) ) ) ) ) ) ) ) ) ) ) U 1.3.3.2.2.1.E d ",
"Y 2.3.2.3.2.2.2.1.o.p.p.) , l i i i A p.p.r.@ p p i , r.p.a...p i p i t 7.p.p.A i i i , #.p.p.) i i i 3 i.p.p.M 2.3.2.3.2.2.2.M ",
"Y ;.} >.;.;.;.;.' o.a.p.) , p i p p A p.p.r.@ i i i , 0.p.s...i l i i t *.p.p.A j i p , #.p.p.) i i p 3 p.p.p.c ;.;.;.;.>.} ;.b ",
"~                 $.p.p.) , i j i p A p.p.r.@ i i l , r.p.p...i i i i t =.p.p.A p i i , $.p.p.) i i p 1 i.p.p.                  ",
"~ n M n R   9 b b $.p.p.) , p i l i A s.p.e.@ l i i , r.p.p...p i p i u =.p.s.A i p i , $.p.p.) l p p 3 p.p.p.9 n M b a M M n w ",
"G / / } n R R 5 ' $.p.p.) , i i i i Z p.p.r.@ i i p , r.p.p...i i i i r =.p.p.A i i i , $.p.p.) i i i 3 p.p.p.f E 9 > * U E E d ",
"@./ R w : / / / R o.p.p.) , j i i i A p.p.r.@ p i i , r.p.s...i i i i u =.s.s.A p p p , $.p.p.) p p i 3 i.p.p.$ > ^ E c O ^ ^ f ",
"U / U : z / / / T o.p.p.) , p p i p A p.p.r.@ p i p , e.p.p...l p i i r =.i.s.A i i p , $.p.p.) p i i 3 i.p.p.f E / ` ' 9 M ^ f ",
"U / ^ U M ^ ^ ^ R L &.&.S % 4 4 4 q u &.&.X.. 4 q q % #.&.*.H q 4 4 q 3 ! &.&.u 8 4 4 % L &.&.F 3 r 3 - &.&.&.f / ` / R V M / f ",
"U ^ / / / ^ E E R ) r.e.r.e.e.0.r.r.r.r.r.r.r.r.r.r.r.r.r.e.e.e.r.e.r.r.r.r.r.r.r.e.e.r.r.r.e.0.e.r.r.r.0.0.r.f / / / R / / / f ",
"J U U U U U U U U #.p.p.g.Z.v.p.a.a.p.p.s.g.G.g.a.p.p.p.p.s.p.s.F.b.a.i.p.p.s.s.p.C.F.d.s.p.p.p.i.p.Z.C.p.p.p.a U U U U U U U a ",
"c M M M M M M M M #.p.p.t.h.d.p.a.s.p.p.s.u.l.p.p.p.p.p.p.p.p.t.s.g.p.p.i.p.p.p.p.i.h.d.a.p.s.p.p.i.g.g.p.p.p.w M M M M M M M 9 ",
">.1.1.` >.2.2.2.1.l P I u @ , , , , 3 I P H . , , , @ K ! P l , , , , & A I ! 3 , , , @ C ! P u , , , # P P ! M 2.2.2.2.3.1.3.M ",
"1.8.8.} 1.8.8.2.1.#.p.p.) , l p i i A p.p.0.@ j p p , r.p.p...p i p p t -.p.p.A i p i , #.a.a.) l i p 3 p.p.p.M 2.2.' e s M 3.M ",
"2.2.2.2.2.2.2.3.1.#.a.s.) , i i i i A p.a.e.@ p i p , r.p.p...i i p i t -.p.p.A i i l , $.s.p.) i i i 3 i.p.p.M 2.2.2.1.1.>.e ; ",
"2.2.2.2.2.1.2.2.1.#.p.p.) , i i i i A p.s.r.@ i i i , r.i.p...p i i i t -.p.s.A i i i , #.a.p.) i i p 2 i.p.p.M 2.2.2.2.2.2.3.M ",
"2.3.3.2.2.2.2.2.1.@.p.p.) < i i p i A p.p.r.@ j i l , r.p.p...p i i i t -.p.a.A p i i , #.s.s.) i i i 3 i.p.p.M 2.2.2.2.2.2.2.M ",
"2.2.2.3.2.2.2.2.1.#.p.p.) , p p i p A s.p.e.@ i i i , r.p.i...p p p i t -.p.p.A i p i , $.p.p.) i i i 3 p.p.p.M 2.2.2.3.2.3.2.M ",
"e a e e e w e e e #.p.p.) < p p i p A p.s.r.@ i i i , r.p.p...p i i p t *.p.p.A p i p , $.a.s.! i i i 1 i.p.p.= e w e w e w e ; ",
"R ^ ^ ^ ` ^ R ` R ) y.t.X.H ! P P P ) t.t.7.H P P ! L 7.t.t.#.! I I P P *.t.t.) P I I K $.t.t.o.I I ! K t.t.y.f ` R ` R ` E ^ z ",
"^ R / / ^ ^ ^ E T #.u.y.i.m.d.u.u.u.i.u.u.s.n.i.u.u.u.u.u.u.u.u.z.i.i.u.u.u.y.i.i.z.g.i.i.y.y.u.u.y.z.z.u.u.u.f / / / / ^ E ` a ",
"/ / / ^ R ^ ^ ^ R #.p.i.t.z.c.p.s.i.i.p.p.r.z.h.p.a.p.s.p.p.p.u.M.h.p.p.p.i.p.p.t.v.M.g.a.i.s.i.i.i.s.x.p.p.p.f / / / / ^ ^ ^ f ",
"} V > M ` U > M R P 7.7.&.&.7.7.7.7.7.7.7.&.&.7.7.7.7.7.7.7.7.-.7.7.7.7.7.7.7.7.7.*.7.7.7.7.7.7.7.7.&.7.7.7.7.d :.^ ^ / ^ } > $ ",
"s s ^ ^ m s ^ ^ T S ....l @ , , , , 0  ...! . , , , @ P  . .C , , , , - H ....8 , , , @ S  ...l , , , # ..) ) d / ;.9 9 > ^ ^ f ",
"/ / ^ E ^ ^ ^ / R #.p.p.) , i p p i S p.p.r.@ i i i , r.p.p...i i p i t *.p.p.A i p p , $.s.p.) i p i 3 i.p.p.f / / ' ' / / / f ",
"R / / ^ E ^ / / T #.p.p.) , p i i i A p.p.r.@ i i i , r.p.p.X.i i i i t =.p.p.A l i i , $.p.p.) i i j 3 p.p.p.f / / / / / / / f ",
"> > > > > > > > > #.i.p.) , i i p i A p.p.r.@ i i i , r.p.a.X.p i p i t =.s.p.A i i p , $.p.p.) i i i 3 u.s.p.* > > > > > > 5 $ ",
"3.8.1.1.2.8.2.2.1.#.p.p.) , i i i p A p.i.r.@ i i i , r.p.i.X.i i i p t -.p.p.A i i p , #.p.s.) i i i 3 i.p.p.M 3.3.1.1.2.2.2.M ",
"3.q.3.2.2.q.2.2.1.#.s.p.) , p i i i A s.i.r.@ i i i , e.i.a...p i i i u -.p.p.A i i p , $.s.s.) i i i 3 i.p.p.M 2.2.;.;.2.2.2.M ",
"T 3.1.1.T 2.2.3.1.#.p.s.) , p i i i A p.s.r.@ i i i , r.i.s...p p i i t -.p.s.A p i p , $.s.p.) i i i 3 i.p.p.M 2.2.;.;.2.2.2.M ",
"' 2.1.;.' 2.2.2.,.A ) ) l @ 2 2 3 < q ! ) P . 3 2 3 @ I ) ) C 2 2 < 3 , F ) ) q , 3 3 @ A ! ) l 2 2 3 % ) ) ) M 2.2.2.T a n ' ; ",
"2.2.3.2.2.2.2.2.1.p r.e.e.d.i.r.r.r.r.r.r.t.g.t.r.r.e.r.r.r.r.t.d.u.r.e.r.r.r.r.r.s.g.r.r.r.e.r.r.0.i.g.r.r.r.M 2.2.2.2.M 2.2.M ",
"1.3.2.1.1.2.3.1.1.l p.p.t.A.M.p.p.p.p.p.p.d.F.z.p.p.p.p.p.s.p.g.A.M.a.s.p.p.p.p.s.N.S.g.p.p.s.p.a.i.M.A.p.a.s.M 3.2.2.2.2.2.2.M ",
"c M M M M M M M n l t.t.0.e.i.t.t.t.t.t.t.e.t.i.t.t.t.t.t.t.t.9.-.i.t.t.t.t.t.t.t.-.r.i.t.t.t.t.t.u.t.s.t.t.y.w M M M M M M M w ",
"U U U U T U U U M Z ) ) j @ , , , , 3 ) ) L . , , , @ P ) ) l 1 , , , - S ) ) 3 , , , @ A ) ) i , , , # ) ) ! s U U U U V U U e ",
"E R R / E R / / R #.p.p.) , p i i i A p.a.r.@ p i p , e.p.i...i i i i r =.p.p.A p i p , #.p.p.) i i p 3 i.i.p.f / / E R / E ` f ",
"/ > c } T c ;.T R #.p.p.) , i p i i A p.p.r.@ j i i , r.p.p...i i p i t =.p.s.A i i p , $.p.p.) i i i 3 i.p.p.f / ` M M T E E d ",
"U c ' / U ` / U ' H.H.H.H.H.H.H.H.H.H.H.H.H.H.H.H.H.H.H.H.H.H.H.H.H.H.H.H.H.H.H.H.H.H.H.H.H.H.H.H.H.H.H.H.H.H.c M ` U c z E ` f ",
"U R E / E / / E ` H.H.H.H.H.H.H.H.H.H.H.H.H.H.H.H.H.H.H.H.H.H.H.H.H.H.H.H.H.H.H.H.H.H.H.H.H.H.H.H.H.H.H.H.H.H.c V / / U R ^ R d ",
"U ^ ^ / / / / / T H.H.H.H.H.H.H.H.H.H.H.H.H.H.H.H.H.H.H.H.H.H.H.H.H.H.H.H.H.H.H.H.H.H.H.H.H.H.H.H.H.H.H.H.H.H.f / / ^ ^ ` ^ ^ d "
};
