/* XPM */
static char *wall6[] = {
/* columns rows colors chars-per-pixel */
"64 64 155 2 ",
"   c #000000",
".  c #0A0B0C",
"X  c #030514",
"o  c #070C10",
"O  c #090E12",
"+  c #0E151B",
"@  c #131514",
"#  c #161816",
"$  c #10171F",
"%  c #1A1C1B",
"&  c #1E201F",
"*  c #161D26",
"=  c #181E26",
"-  c #1D2123",
";  c #17212A",
":  c #1B242C",
">  c #1F2A2E",
",  c #1F2932",
"<  c #242625",
"1  c #262827",
"2  c #23262F",
"3  c #272A29",
"4  c #2B2C2B",
"5  c #2E302F",
"6  c #252732",
"7  c #292732",
"8  c #262932",
"9  c #292B35",
"0  c #222E3A",
"q  c #2C2E39",
"w  c #2C3032",
"e  c #25313C",
"r  c #2D323B",
"t  c #343635",
"y  c #363837",
"u  c #31343D",
"i  c #363A39",
"p  c #3B3F3E",
"a  c #3B403E",
"s  c #273641",
"d  c #293642",
"f  c #2C3A46",
"g  c #2D3B48",
"h  c #323441",
"j  c #313E47",
"k  c #3B3F40",
"l  c #343D4B",
"z  c #3D4143",
"x  c #33414E",
"c  c #3B4149",
"v  c #344453",
"b  c #394653",
"n  c #374957",
"m  c #384956",
"M  c #37495A",
"N  c #3A4B5A",
"B  c #3E505E",
"V  c #3E4F61",
"C  c #3F5163",
"Z  c #414546",
"A  c #43464A",
"S  c #464A4D",
"D  c #4A4B4D",
"F  c #474A53",
"G  c #4A4E59",
"H  c #4E5154",
"J  c #42515D",
"K  c #505457",
"L  c #53575A",
"P  c #575B5E",
"I  c #585C5F",
"U  c #425363",
"Y  c #495764",
"T  c #445769",
"R  c #465A6C",
"E  c #495C6D",
"W  c #535561",
"Q  c #545B64",
"!  c #595C61",
"~  c #535E6E",
"^  c #475E70",
"/  c #485D70",
"(  c #565F70",
")  c #5D6164",
"_  c #5B606D",
"`  c #4D6476",
"'  c #4E6478",
"]  c #526374",
"[  c #596070",
"{  c #526679",
"}  c #52697D",
"|  c #5A6A7A",
" . c #606467",
".. c #626669",
"X. c #65696C",
"o. c #606672",
"O. c #686775",
"+. c #646B73",
"@. c #6A6E71",
"#. c #6C7073",
"$. c #6B737D",
"%. c #717576",
"&. c #72767A",
"*. c #74787B",
"=. c #787C7F",
"-. c #546D81",
";. c #596F84",
":. c #567186",
">. c #5B7286",
",. c #577489",
"<. c #5B768C",
"1. c #5C788E",
"2. c #5C7890",
"3. c #6D7480",
"4. c #717785",
"5. c #757A86",
"6. c #7A7D82",
"7. c #647E93",
"8. c #7D8085",
"9. c #7F8789",
"0. c #678095",
"q. c #7E8892",
"w. c #818689",
"e. c #868B8E",
"r. c #878F91",
"t. c #8A8F92",
"y. c #8D9296",
"u. c #8F9498",
"i. c #909497",
"p. c #909599",
"a. c #95989D",
"s. c #979CA0",
"d. c #999CA1",
"f. c #9EA1A6",
"g. c #9DA2A8",
"h. c #A1A2A7",
"j. c #A1A6AA",
"k. c #A5A9AD",
"l. c #A7AAB1",
"z. c #A9ACB3",
"x. c #AFB2B7",
"c. c #AFB2B9",
"v. c #B1B4BB",
"b. c #B5B8BD",
"n. c #B9BCC1",
"m. c #C7C8CC",
"M. c #CACBCF",
"N. c #CECFD3",
"B. c #CFD1D5",
"V. c #D2D1D7",
"C. c #D6D7DB",
"Z. c #D7D8DC",
"A. c #DBDCDF",
"S. c #DDDEE2",
"D. c #FFFFFF",
/* pixels */
"8 8 9 8 8 9 9 9 9 9 9 u u u u u u u u u u u u u u u u u u u u u u r q q q q q q r q q 9 q u r r r u q r q r q q u u 9 w u u u u ",
"9 9 8 8 8 8 2 8 8 9 8 9 u u u q 9 q q q 9 u u u q w u u u u u u u A 5.5.5.5.5.5.$.$.3.$.4. .9 8 7 6 6 6 8 8 9 9 9 q 2 9 r u 9 u ",
"8 8 9 8 8 8 8 2 2 2 u u u u 6 8 6 9 q r u r u l T m / / E T N N U c b / d l N / / T { ] ~ o.9 6 8 8 9 8 8 6 8 9 u q 2 2 8 9 u q ",
"9 9 8 8 8 9 2 8 9 r u u u w 9 u u N ` 1.1.<.` { e 6 / / ` / / / E T d m N / E N $ 1.1.1.1.{ d 9 9 9 6 8 8 6 9 9 2 9 9 9 8 8 8 8 ",
"8 8 8 6 8 8 8 9 u q r r u 8 6 N <.2.1.1.1.f U ,.-.O v / / / / / / / T / / / N $ ` 1.1.1.m v :.v r 3 9 2 9 3 9 8 8 9 9 r r q q u ",
"8 8 8 8 8 8 9 2 9 8 9 9 r b N = -.1.1.1.J m -.<.1.-.r R R T U / / / ` E d T N d -.1.` d d 1.1.1.2.1.T W _ O.O.Z 6 8 u u r 9 2 9 ",
"9 8 8 8 8 9 2 9 8 8 8 9 T / / N R <.1.1.1.;.m } 1.:.g f M * , m M C { N E l N 1.<.1.1.1.<.2.1.1.1./ C U ( ( ( ! 9 u u r 9 9 9 9 ",
"9 8 8 8 8 6 9 2 8 8 b / E / / ` 6 T 1.1.1.1.1.1.1.1.<.b   N U M m ; m C / 6 } 1.1.2.1.1.T 1.1.1.T * C / / ~ ( ! r r u 9 9 w 9 u ",
"9 8 8 8 8 6 9 6 9 N / / / / E / U $ T 7.m d d s d 1.1.,.e R / / / T T E d -.1.1.1.1.` s ' 1.1.T + T N m ` E N F u u u u u u u u ",
"9 8 8 8 w 9 6 9 Y / / E / / / E / U : 0 -.1.1.1.1.1.1.1.M , / E / / ` } m 1.1.1.n d T 1.<.1.` = U / / E R / N 0 q u u u u u u r ",
"9 7 8 9 d u r R / / / / / / / / N Y ! ! I I I I I I P I P ! ! ! I I L I ! I I I I ! ! P I ! S g U / U U / / ` R R l u u u r 9 8 ",
"9 q 9 6 9 9 : C / / / / / / ' Q ! 6.u.u.u.d.M.u.u.p.u.u.u.u.i.f.b.d.p.p.y.y.p.u.u.v.z.u.u.u.e.&.z m n M ` R R / E U 2 9 9 8 9 2 ",
"7 9 9 6 6 ;.-.N , / / / / v S 9.i.i.u.i.i.e.v.j.i.u.u.u.u.u.i.t.v.f.i.i.i.y.i.i.w.v.b.d.p.i.p.p.p.w.L m ` R / / / w n r 2 2 6 8 ",
"9 9 8 6 -.v -.2.n : T / M   L ! ) ! ) ) ! I Z  .) ) ) ) ) ) ) K a L  .)  .! ) ) ) a A ! ) ! ! ) ) ! i 0 R / R s % v R { 9 9 2 8 ",
"8 6 6 b 1.;.U -.2.l 0 n o < p p p i A t.y.6.@ i u p < 6.t.t.! p p i i t @.t.t.A i p i < @.t.y.! i i p 3 l R f f N R ` 1.x 8 9 8 ",
"6 8 8 -.1.2.-.-.2.2.N i A < p p p p S i.i.w.@ p p a < w.p.p...a p p k u =.p.p.S a a p < @.p.i.) k p p 4 X.d f -.1.` 1.1./ 7 8 8 ",
"8 9 d 1.1.1.1.1.1.2.Z 8.) < a p p a S p.u.w.@ p p p < w.p.y...a a p a y 6.u.p.S p a p < #.u.u.) p p p 3 t...| 1.1.1.1.1.1.r 9 6 ",
"9 9 ] 1.1.;.r E ,.>.! p.) < a p a p S p.u.w.@ p a p < w.p.i...a p p p y 6.u.u.S p p p < #.u.p.) p p p 3 y.w.  1.:.:.:.<.1.` 6 7 ",
"u u 1.1.2.<.1.E v J 6.u.) < z p p p S p.u.w.@ a p p < w.u.u...a p p p y 6.y.u.S a a p < @.p.u.) p p p 4 y.y.L q.m v v ` 1.:.9 7 ",
"u u R R R R R R Y Z y.u.) < k p p a S p.u.w.@ a a p < w.u.u...p p a a u *.u.u.S p p a < #.u.p.) p p p 4 y.u.@.  C R R T R T q 9 ",
"u X               Z y.u.) < p p p p S u.u.9.@ p p a < w.u.u...a a a a y *.u.u.S p a p < @.p.p.) p a p 1 y.u.u.            . u h ",
"Y -.-.M . . . U } A ) )  .) ) ) ) ) ) ) ) ) ) ) ) ) ) ) ) ) ) )  .! )  .) ) ) ) ) ) ) ) !  .) ) !  .@.) ) ) ) M -.-.-.-.-.-.-.d ",
"Y   ; s -.1.1.T / @.u.p.d.M.b.u.u.u.u.u.u.d.V.h.u.u.u.u.u.u.u.p.C.v.i.i.u.u.u.u.u.m.Z.d.y.i.u.u.i.i.n.M.u.u.u.v 0 d d d d 0 -.b ",
"v Y ` 1.1.1.1.1.U @.p.p.6.h.s.u.u.u.u.u.u.e.z.u.u.u.u.u.i.i.u.6.l.d.i.i.u.i.u.u.u.g.l.p.u.i.u.u.i.t.t.d.u.u.u.d C <.2.2.2.M     ",
"Y 0.1.1.1.1.2.1.<.A ) ) ) ) ) ) ) ) ) ) ) ) ) ) ) ) ) ) ) ) ) )  .!  .) ) ! )  .) ) ) ) ) ) ) ) ) ) ) ) ) ) ) C 1.1.2.1.1.<.R g ",
"Y 2.2.2.2.1.1.1.<.@.u.u.) < p a a p S u.p.w.@ p p a < w.u.p...p a p p t 6.i.i.S p p p < @.p.u.) a k k 4 y.u.u.V <.1.1.1.1.1.1.N ",
"Y -.-.-.-.-.-.-.{ @.i.u.) < z p p a S u.p.w.@ a p k < w.u.p...a k a k i *.u.i.S z p a < @.u.u.) p p p 3 u.u.u.v ;.-.-.-.:.} -.n ",
"~                 @.u.u.) < p p a a S u.p.w.@ p p z < w.p.p...p p p k y *.u.i.S p p p < #.p.u.) p a p 3 y.u.u.                  ",
"~ n n m T   0 M n #.u.u.) < p a a p S p.u.w.@ a a p < w.p.u...a p a p y *.u.p.F p p a < #.u.u.) z a p 4 y.u.u.0 N M M d N N m e ",
"G / ` } m R R 6 ` #.u.u.) < p a p p S u.u.w.@ p p p < w.u.u...p a p p y *.u.i.A a p p < #.u.u.) p p p 4 y.u.u.g ` 8 , * U E R f ",
"+./ T e : / / / R @.u.u.) < a a a a S u.u.w.@ p a a < w.u.p...k p p p y *.u.p.S a p a < #.u.u.) a a p 4 y.u.u.$ > R R v O / ` f ",
"T R C : x / / / T @.u.u.) < a a p p S u.u.w.@ p p p < w.u.u...a p a a u *.u.p.S a p a < #.u.u.) p a p 4 y.u.u.f / / ` ' 0 M / f ",
"U / R T m R ^ ^ R L %.&.D % 5 5 5 5 i %.%.X.. 5 w 5 % X.&.&.H w 5 5 5 4 ! &.&.i 9 5 5 % L %.%.D 5 5 5 - &.#.&.g / ` R E C m / g ",
"U / / R / ` R ^ R ) w.w.w.w.w.9.w.w.w.w.w.w.w.w.w.w.w.w.w.w.w.w.w.w.w.w.w.w.w.w.w.w.w.w.w.e.w.9.w.w.w.w.w.9.w.g / / E R / / ^ f ",
"J U T U U U U U C @.p.y.a.V.c.u.i.i.u.u.p.d.S.d.i.i.u.u.u.p.u.p.A.v.i.y.u.u.u.i.y.N.A.a.u.u.u.u.u.u.V.M.u.u.u.s U U U T C U U d ",
"v N N N N N N N m @.p.p.e.f.a.u.u.i.u.u.u.y.j.u.u.p.u.u.u.u.u.e.p.a.p.p.y.u.u.u.u.y.h.a.i.u.u.u.p.i.a.d.u.u.u.e N N N N N N N e ",
":.1.1.` :.1.1.1.<.Z P I i @ < < < < 4 I L H . < < 1 @ K ! P z < < < < & S I I 4 1 < < @ Z I I i < < < # P P ! N 1.1.1.1.2.1.1.N ",
"<.7.7.} ,.0.0.<.<.@.u.u.) < k a p p S u.u.9.@ z a a < w.u.u...a p a a y =.i.u.S p a p < #.u.i.) a a p 4 y.u.u.N 1.1.` s f m 2.N ",
"1.1.1.1.1.1.1.1.,.@.i.u.) < p p p p S p.i.w.@ a p a < w.u.u...a p a p y =.u.u.S k p p < #.u.u.) a p p 4 y.u.u.N 1.1.1.<.<.:.r ; ",
"1.1.1.1.1.1.1.1.<.@.p.u.) < a a p p S u.i.w.@ a p a < w.u.u...a p p p y =.u.p.S p a p < @.i.u.) a a a 4 y.u.u.N 1.1.1.1.1.1.2.N ",
"<.1.1.1.1.1.1.1.,.@.u.u.) < a a a p S u.u.w.@ a p a < w.p.u...a a p a y =.y.p.A k p a < @.p.p.) a p a 4 y.u.u.N 1.1.1.1.1.1.1.M ",
"1.1.1.1.1.1.1.1.<.@.u.u.) < a a p a S p.u.w.@ p p a < w.u.u...a p a p y 6.u.u.S p p p < #.u.u.) p p p 4 y.p.u.N 1.1.1.1.1.1.1.N ",
"r e r d e e r r r @.u.u.) < z a p a S u.u.w.@ p p p < w.u.u...a p p p y *.u.y.S p p a < #.p.p.! p a a 3 y.u.i.= r r r s r s r ; ",
"R ^ ` R ^ ` R ` T ..e.e.@.H I P P P ) e.e.6.H ! I I K 6.e.e.@.! I I I I *.e.e.) I I I K @.e.e.@.I ! ! H e.e.e.g / / ` R ` R ` g ",
"/ R / / / R / ^ T +.t.r.y.b.a.t.t.t.t.y.t.p.v.y.r.t.t.y.t.t.t.e.k.y.t.t.y.t.y.r.y.k.d.y.t.t.t.t.t.t.k.k.t.t.t.g / / / ^ R ^ / f ",
"/ / / R R ` ` / E #.u.u.e.k.z.u.u.u.u.i.i.w.k.f.u.u.u.p.u.u.u.y.n.f.u.p.u.y.u.u.e.x.n.d.u.u.i.i.y.y.p.l.i.i.i.g / / / ^ ^ / / f ",
"} C , M ` C > M E L 6.6.&.%.6.6.6.6.6.6.6.&.%.6.6.6.6.6.6.6.6.6.6.6.6.6.6.6.6.6.6.*.6.6.6.6.6.6.6.6.&.6.5.6.5.g >./ ^ ^ / -., $ ",
"d f ` / v s / / Y S .. .z @ < < < < 9 .. .! . < < < @ P ....z < < < < - H  ...w < < < @ S ....z < < < @  . . .g / -.0 , , ^ / f ",
"/ R / R ^ ^ ^ ^ T @.u.u.) < p a p p S u.u.w.@ p p p < w.u.u...p k a a y *.u.u.A p a a - #.u.u.! a z p 4 y.u.u.g / / ' ' E / / g ",
"R / R ` R ` ^ ^ T D.D.D.D.D.D.D.D.D.D.D.D.D.D.D.D.D.D.D.D.D.D.D.D.D.D.D.D.D.D.D.D.D.D.D.D.D.D.D.D.D.D.D.D.D.D.f / / / / / / ` g ",
", , , , , , , , > D.D.D.D.D.D.D.D.D.D.D.D.D.D.D.D.D.D.D.D.D.D.D.D.D.D.D.D.D.D.D.D.D.D.D.D.D.D.D.D.D.D.D.D.D.D.$ , , , , , , > + ",
"2.7.1.1.<.0.<.<.,.D.D.D.D.D.D.D.D.D.D.D.D.D.D.D.D.D.D.D.D.D.D.D.D.D.D.D.D.D.D.D.D.D.D.D.D.D.D.D.D.D.D.D.D.D.D.N 2.<.<.2.<.1.2.N ",
"<.0.1.1.1.0.1.1.,.D.D.D.D.D.D.D.D.D.D.D.D.D.D.D.D.D.D.D.D.D.D.D.D.D.D.D.D.D.D.D.D.D.D.D.D.D.D.D.D.D.D.D.D.D.D.N 2.1.-.-.1.1.1.N ",
"T 2.1.,.T 1.1.2.<.D.D.D.D.D.D.D.D.D.D.D.D.D.D.D.D.D.D.D.D.D.D.D.D.D.D.D.D.D.D.D.D.D.D.D.D.D.D.D.D.D.D.D.D.D.D.N 1.1.-.-.1.1.1.N ",
"' 1.1.-.` 1.2.1.<.D.D.D.D.D.D.D.D.D.D.D.D.D.D.D.D.D.D.D.D.D.D.D.D.D.D.D.D.D.D.D.D.D.D.D.D.D.D.D.D.D.D.D.D.D.D.N 1.1.1.T d m ' ; ",
"1.1.2.1.2.1.1.1.<.D.D.D.D.D.D.D.D.D.D.D.D.D.D.D.D.D.D.D.D.D.D.D.D.D.D.D.D.D.D.D.D.D.D.D.D.D.D.D.D.D.D.D.D.D.D.n 1.1.1.1.m 1.2.N ",
"<.1.1.1.1.2.1.2.<.D.D.D.D.D.D.D.D.D.D.D.D.D.D.D.D.D.D.D.D.D.D.D.D.D.D.D.D.D.D.D.D.D.D.D.D.D.D.D.D.D.D.D.D.D.D.V 2.1.2.1.1.1.1.N ",
"v N N N N N N m n D.D.D.D.D.D.D.D.D.D.D.D.D.D.D.D.D.D.D.D.D.D.D.D.D.D.D.D.D.D.D.D.D.D.D.D.D.D.D.D.D.D.D.D.D.D.e N N N m N N N e ",
"C U U U T U U U m D.D.D.D.D.D.D.D.D.D.D.D.D.D.D.D.D.D.D.D.D.D.D.D.D.D.D.D.D.D.D.D.D.D.D.D.D.D.D.D.D.D.D.D.D.D.r T U U U U T T r ",
"E R R R E R / E R D.D.D.D.D.D.D.D.D.D.D.D.D.D.D.D.D.D.D.D.D.D.D.D.D.D.D.D.D.D.D.D.D.D.D.D.D.D.D.D.D.D.D.D.D.D.g E / R R E / E g ",
"/ , n } T v } R T D.D.D.D.D.D.D.D.D.D.D.D.D.D.D.D.D.D.D.D.D.D.D.D.D.D.D.D.D.D.D.D.D.D.D.D.D.D.D.D.D.D.D.D.D.D.g / ` m M T R ` f ",
"U v ` R U ' / U ` D.D.D.D.D.D.D.D.D.D.D.D.D.D.D.D.D.D.D.D.D.D.D.D.D.D.D.D.D.D.D.D.D.D.D.D.D.D.D.D.D.D.D.D.D.D.x N { U v x R R f ",
"C R / / E / / E ` D.D.D.D.D.D.D.D.D.D.D.D.D.D.D.D.D.D.D.D.D.D.D.D.D.D.D.D.D.D.D.D.D.D.D.D.D.D.D.D.D.D.D.D.D.D.v C / / V E / ` f ",
"T / / / / / / R R D.D.D.D.D.D.D.D.D.D.D.D.D.D.D.D.D.D.D.D.D.D.D.D.D.D.D.D.D.D.D.D.D.D.D.D.D.D.D.D.D.D.D.D.D.D.g ^ / / / ` / / f "
};
