/* XPM */
static char *wall11[] = {
/* columns rows colors chars-per-pixel */
"64 64 143 2 ",
"   c #000000",
".  c #090B0C",
"X  c #030514",
"o  c #070C10",
"O  c #090E12",
"+  c #0F161C",
"@  c #131514",
"#  c #10171E",
"$  c #171B1C",
"%  c #1A1C1B",
"&  c #161D26",
"*  c #181E25",
"=  c #1D2124",
"-  c #17212A",
";  c #1B242C",
":  c #1E292F",
">  c #1F2932",
",  c #242625",
"<  c #262827",
"1  c #23262F",
"2  c #262A29",
"3  c #2B2D2C",
"4  c #2D302E",
"5  c #252732",
"6  c #292732",
"7  c #262932",
"8  c #292C34",
"9  c #222E3A",
"0  c #2C2E39",
"q  c #2C3031",
"w  c #25313C",
"e  c #2D323B",
"r  c #343635",
"t  c #363837",
"y  c #31343D",
"u  c #3B3E3E",
"i  c #3B403E",
"p  c #263741",
"a  c #293642",
"s  c #2C3A46",
"d  c #2D3B48",
"f  c #323441",
"g  c #313E47",
"h  c #3B3F40",
"j  c #343D4B",
"k  c #3F4144",
"l  c #33414E",
"z  c #3B4149",
"x  c #344453",
"c  c #394653",
"v  c #374957",
"b  c #384957",
"n  c #37495A",
"m  c #3A4B5B",
"M  c #3E505E",
"N  c #3E4F61",
"B  c #3F5163",
"V  c #414546",
"C  c #43464A",
"Z  c #464A4D",
"A  c #494A4D",
"S  c #474A53",
"D  c #4A4E59",
"F  c #4D5055",
"G  c #42515D",
"H  c #515457",
"J  c #53575A",
"K  c #575B5E",
"L  c #585C5F",
"P  c #425363",
"I  c #495764",
"U  c #445769",
"Y  c #465A6C",
"T  c #495C6D",
"R  c #535561",
"E  c #545B64",
"W  c #595C61",
"Q  c #535E6E",
"!  c #475E70",
"~  c #485D70",
"^  c #565F70",
"/  c #5D6164",
"(  c #5B606D",
")  c #4D6476",
"_  c #4E6478",
"`  c #526374",
"'  c #596070",
"]  c #526679",
"[  c #52697D",
"{  c #5A6A7A",
"}  c #63676A",
"|  c #65696C",
" . c #68696D",
".. c #606672",
"X. c #686775",
"o. c #646B73",
"O. c #6A6E71",
"+. c #6C7073",
"@. c #6B737D",
"#. c #727377",
"$. c #73767A",
"%. c #787C7F",
"&. c #546D81",
"*. c #596F84",
"=. c #567186",
"-. c #5B7286",
";. c #577188",
":. c #5B768C",
">. c #5C788E",
",. c #5C7890",
"<. c #6D7480",
"1. c #717785",
"2. c #757A86",
"3. c #7A7D83",
"4. c #647E93",
"5. c #7D8085",
"6. c #678095",
"7. c #7E8892",
"8. c #818787",
"9. c #818689",
"0. c #858A8D",
"q. c #878F91",
"w. c #8A8F92",
"e. c #8D9296",
"r. c #8F9498",
"t. c #909599",
"y. c #999CA1",
"u. c #9EA1A6",
"i. c #9DA2A8",
"p. c #A1A2A7",
"a. c #A1A6AA",
"s. c #A7ABB1",
"d. c #AAADB3",
"f. c #AFB2B7",
"g. c #B2B5BC",
"h. c #B6B9BE",
"j. c #B8BBC0",
"k. c #C7C8CC",
"l. c #CACBCF",
"z. c #D2D1D7",
"x. c #D6D7DB",
"c. c #D7D8DC",
"v. c #FFFFFF",
/* pixels */
"7 8 8 7 6 7 7 8 8 0 8 y y y y y y y y y y y y y y y y y y y y y y e 0 8 0 0 0 f 0 0 0 8 8 e e e e e e 0 0 e 0 y y y 8 q y y y y ",
"7 8 7 7 7 7 7 7 5 3 7 8 y y e e 7 0 e 0 0 y y y 0 q y y y y y y y C 3.3.2.2.1.1.<.@.<.@.2.} 8 5 6 5 5 7 6 7 7 8 8 8 7 7 0 y 0 y ",
"7 7 8 7 7 7 7 7 6 5 0 y y y 6 7 7 7 e e y e y j P m ~ ~ T U m m P j c T f j b ~ ~ Y ] ^ ^ ..8 8 7 7 7 7 7 7 8 7 e 0 7 7 7 8 y 0 ",
"8 7 8 7 7 7 7 7 8 e y y y e 8 e y c ) >.>.:.) ] p 5 ~ ~ ) ~ ~ ~ ~ U a m m ~ ~ n # >.>.>.>._ p 7 0 8 7 7 7 7 7 8 7 7 7 7 5 7 7 7 ",
"7 7 7 7 7 7 7 7 e e e e y 7 6 M :.>.>.>.>.a P :.&.O x ~ ~ ~ ~ Y ~ ~ Y ~ ~ ~ m & ) >.>.>.n x =.x e 2 6 7 7 3 8 8 8 7 7 0 y y 0 e ",
"7 7 7 7 7 7 7 5 8 8 7 8 y l m & &.>.>.>.G v [ :.>.&.w Y ~ I P ~ ~ Y ) Y a Y b w [ >.) a p >.>.>.>.>.Y R ^ X.X.k 5 3 y y 0 7 7 7 ",
"8 7 7 7 5 7 7 7 7 7 8 8 U ~ ~ m Y >.>.>.>.-.m [ >.*.d a n # 9 m m P _ m Y j m ,.>.>.>.>.>.>.>.>.,.~ N N ^ ^ ^ W 8 y y y 0 7 7 0 ",
"8 5 7 7 7 7 7 7 7 7 c ~ T ~ ~ ~ 5 U >.>.>.>.>.>.>.>.:.c   m P m m & m P ~ > [ ,.>.,.>.>.U >.>.,.U & P ~ ~ Q ^ L e e y 8 8 0 8 y ",
"8 7 7 7 7 7 8 7 7 G ~ ~ ~ ~ ~ ~ P # U 4.m p p a w >.>.:.w ~ ~ ~ ~ P U ~ a [ >.>.>.>._ p ) >.>.I + P m m ! T m S y e y y y y y y ",
"8 7 7 7 8 8 7 7 U T ~ Y ~ ~ ~ Y ~ P ; 7 &.,.>.>.,.>.>.>.n 5 ~ Y ~ ~ ) [ b >.>.>.b p Y >.>.>.) & B ~ ~ T T ! m 9 0 y y y y y y e ",
"8 8 7 8 e y e Y T ~ ~ ~ ~ ~ ~ ~ m I W W L L W K L K W K K K L L L W L L L K L L L L L L W W Z d P T P P ) T ~ ~ Y j y y y 0 7 3 ",
"7 0 7 7 7 0 ; B ~ ~ ~ ~ ~ ~ _ E / %.e.e.r.y.l.r.r.t.r.r.r.r.t.u.h.y.e.e.e.r.t.r.r.g.d.r.r.t.0.#.k m n n ~ T ~ ~ ~ P 1 0 8 5 8 5 ",
"8 8 8 5 5 =.&.m > ~ ~ ~ ~ x Z 9.e.t.e.t.r.0.h.a.r.r.r.t.r.r.e.w.g.p.t.t.e.t.t.r.8.g.h.y.t.e.r.r.r.9.H v ~ ~ ~ ~ ~ q x 0 7 5 7 7 ",
"6 8 7 5 [ x =.>.n ; U ~ m   J W / / / / / W V / / / / / / / / H u J / W / / / / / u C / / W / / / / t 9 T T Y p % n Y ) 8 5 5 7 ",
"7 5 6 c >.=.P &.>.x 8 n o , u u u t C w.w.3.@ t t t , 5.w.w./ t u t u y +.0.e.C t u t , O.w.e.W u t i 2 j Y s d m Y ) >.l 7 7 7 ",
"5 7 7 &.>.>.&.&.>.:.m y C , u u u i Z r.r.9.@ i i i , 7.r.r.| i u u u t %.r.t.Z i u u , O.t.e./ u i u 3  .a s &.>.) >.>.) 6 7 7 ",
"7 7 a ,.>.>.>.>.>.,.V 5./ , u i u i Z r.r.9.@ i i u , 9.t.e.} i u i i t 3.r.r.A u i u , +.r.t./ u u u 2 w.} { >.>.>.>.>.>.w 7 7 ",
"8 0 ` >.>.*.e T =.:.W t./ , i u u i Z r.r.9.@ u u u , 8.e.t.} u k i i r 3.r.r.Z u u i , +.r.r./ u u i , e.9.  >.&.=.=.:.>.) 6 6 ",
"y y >.:.>.,.>.T x G 3.r./ , i i u u A t.r.5.@ i k u , 9.t.t.} u u u k r 3.e.r.Z i i u , +.r.r./ u u i 3 e.e.J 7.m x x ) >.*.7 7 ",
"y y Y Y Y Y U Y I V e.r./ , h u i u A r.r.9.@ k u u , 8.t.e.| u u i i t $.r.r.Z u u i , +.r.t./ u u u 3 e.r.O.  B Y Y Y U U y 8 ",
"y X               V e.t./ , i u i i Z t.t.7.@ i u u , 8.r.e.| i u u i t $.t.r.Z i u i ,  .t.t./ u i i , e.r.e.            . y f ",
"I &.&.n . . . P [ C / / / / / / / / / / / / / / / / / / / / / / / / / / / / / / / / / / / / / / / / O.} / / / v &.&.&.&.&.&.&.f ",
"I   - p &.,.>.I ~ O.t.t.u.k.h.r.r.r.t.t.t.t.z.p.r.e.r.r.r.r.r.t.x.f.r.r.t.r.r.r.r.k.c.y.r.r.r.r.t.r.h.l.t.r.r.x 9 a a p a 9 &.b ",
"x I ) >.,.>.>.>.P O.t.t.3.u.y.r.r.r.t.t.t.0.d.r.r.r.r.t.r.r.r.3.s.u.r.r.e.t.r.r.r.u.s.t.r.r.r.r.t.w.e.t.r.r.r.s m >.,.,.,.n     ",
"Y 4.>.>.>.>.,.>.:.C / / / / / / / / / / / / } W / / / / / / / / / / / / / / / / / / / / / / / / / / W / / / / B ,.,.,.>.>.:.T s ",
"I >.,.>.,.>.>.>.:. .r.t./ , h h i i Z r.t.9.@ u u u , 9.e.t.} i u u u t 3.r.r.Z u u u , O.t.r./ u i k 3 e.r.r.N >.>.>.>.>.>.>.m ",
"I &.[ &.&.&.&.&.] O.t.r./ , i i i i Z r.t.9.@ i u i , 9.r.t.| u u u i t $.r.r.Z k u i , O.r.r./ u i i 3 e.r.r.x *.&.&.&.=.[ &.v ",
"'                 +.r.r./ , u u u i Z r.t.9.@ u i k , 9.r.r.} u i u h t $.r.r.Z u i u , +.t.r./ i u u 2 e.r.r.                  ",
"Q v m m Y   9 b v +.r.r./ , u i i i Z t.r.8.@ i u u , 9.t.r.} u u i i t $.r.t.Z u i u , +.r.r./ k i u 2 e.r.t.9 b m n p m m b w ",
"D ~ ~ [ b Y Y > ) +.r.r./ , u i u u Z r.e.9.@ u u i , 9.r.r.} i u i u t 2.t.r.Z i u u , +.r.r./ u u i 3 e.r.r.d T 9 > & P T T s ",
"o.T Y w ; ~ ~ ~ Y O.r.r./ , i i i u Z r.t.9.@ u u i , 9.r.t.} u i u i t $.t.t.Z i u i , +.t.r./ i i i 3 e.e.r.# > ~ Y x o ) ~ d ",
"P ~ B ; l ~ ~ ~ U O.r.r./ , i i u i Z t.t.9.@ u i u , 9.r.r.} i u i i t $.r.r.Z i u i , +.r.r./ u u u 3 e.r.r.d T ~ ) [ > v ~ d ",
"U T ~ B x ) ~ ~ Y J #.#.A % 4 4 4 8 u #.#. .. 3 4 4 $  .#.#.F 3 q 4 3 3 W $.$.u 8 4 4 % J #.#.A 3 4 4 , #.#.@.d T ) T Y B m ~ d ",
"B ~ ~ T ~ ~ T T Y / 9.8.8.5.8.5.9.9.9.9.9.9.9.9.5.9.9.8.7.9.9.9.9.8.9.9.9.9.9.9.9.9.8.9.9.9.9.9.9.9.9.9.9.9.8.d ~ T T Y ~ ~ ~ s ",
"G P U P P P P P B v.v.v.v.v.v.v.v.v.v.v.v.v.v.v.v.v.v.v.v.v.v.v.v.v.v.v.v.v.v.v.v.v.v.v.v.v.v.v.v.v.v.v.v.v.v.p P P P U U P B p ",
"x m m m m m m m v v.v.v.v.v.v.v.v.v.v.v.v.v.v.v.v.v.v.v.v.v.v.v.v.v.v.v.v.v.v.v.v.v.v.v.v.v.v.v.v.v.v.v.v.v.v.9 m m m m m m m w ",
"=.:.>.) =.:.>.>.:.v.v.v.v.v.v.v.v.v.v.v.v.v.v.v.v.v.v.v.v.v.v.v.v.v.v.v.v.v.v.v.v.v.v.v.v.v.v.v.v.v.v.v.v.v.v.n >.>.>.>.>.>.>.m ",
":.4.4.[ :.4.4.>.:.v.v.v.v.v.v.v.v.v.v.v.v.v.v.v.v.v.v.v.v.v.v.v.v.v.v.v.v.v.v.v.v.v.v.v.v.v.v.v.v.v.v.v.v.v.v.m >.>.) p a b >.m ",
">.>.>.>.>.>.>.>.=.v.v.v.v.v.v.v.v.v.v.v.v.v.v.v.v.v.v.v.v.v.v.v.v.v.v.v.v.v.v.v.v.v.v.v.v.v.v.v.v.v.v.v.v.v.v.m >.>.>.:.:.=.e - ",
">.>.>.>.>.>.>.>.:.v.v.v.v.v.v.v.v.v.v.v.v.v.v.v.v.v.v.v.v.v.v.v.v.v.v.v.v.v.v.v.v.v.v.v.v.v.v.v.v.v.v.v.v.v.v.m >.>.>.>.>.>.,.m ",
":.>.,.>.>.>.>.>.:.v.v.v.v.v.v.v.v.v.v.v.v.v.v.v.v.v.v.v.v.v.v.v.v.v.v.v.v.v.v.v.v.v.v.v.v.v.v.v.v.v.v.v.v.v.v.m >.>.>.>.>.>.>.m ",
">.>.>.,.>.>.>.>.:.v.v.v.v.v.v.v.v.v.v.v.v.v.v.v.v.v.v.v.v.v.v.v.v.v.v.v.v.v.v.v.v.v.v.v.v.v.v.v.v.v.v.v.v.v.v.m >.>.>.>.>.,.>.m ",
"e w e w e w e e e v.v.v.v.v.v.v.v.v.v.v.v.v.v.v.v.v.v.v.v.v.v.v.v.v.v.v.v.v.v.v.v.v.v.v.v.v.v.v.v.v.v.v.v.v.v.& e e p e p w e - ",
"Y ~ ) Y ) ! ! ) Y v.v.v.v.v.v.v.v.v.v.v.v.v.v.v.v.v.v.v.v.v.v.v.v.v.v.v.v.v.v.v.v.v.v.v.v.v.v.v.v.v.v.v.v.v.v.d T ~ ~ ~ ) Y ) d ",
") Y ~ ! Y Y Y ! U v.v.v.v.v.v.v.v.v.v.v.v.v.v.v.v.v.v.v.v.v.v.v.v.v.v.v.v.v.v.v.v.v.v.v.v.v.v.v.v.v.v.v.v.v.v.d ~ ~ ~ ~ T ~ ~ s ",
"Y ~ ~ ~ ! ) Y ) Y v.v.v.v.v.v.v.v.v.v.v.v.v.v.v.v.v.v.v.v.v.v.v.v.v.v.v.v.v.v.v.v.v.v.v.v.v.v.v.v.v.v.v.v.v.v.p ~ ~ ~ ~ T ~ ~ d ",
"[ B ; v ) U > n U v.v.v.v.v.v.v.v.v.v.v.v.v.v.v.v.v.v.v.v.v.v.v.v.v.v.v.v.v.v.v.v.v.v.v.v.v.v.v.v.v.v.v.v.v.v.s *.~ ~ ~ ~ [ > # ",
"s p ) ~ x p ~ ~ Y v.v.v.v.v.v.v.v.v.v.v.v.v.v.v.v.v.v.v.v.v.v.v.v.v.v.v.v.v.v.v.v.v.v.v.v.v.v.v.v.v.v.v.v.v.v.d ! &.p > > ~ ~ d ",
"~ Y ~ ~ Y ~ ~ ~ Y v.v.v.v.v.v.v.v.v.v.v.v.v.v.v.v.v.v.v.v.v.v.v.v.v.v.v.v.v.v.v.v.v.v.v.v.v.v.v.v.v.v.v.v.v.v.s ~ ~ ) _ ~ ~ ~ d ",
"Y ~ ~ ~ T ) ~ ~ Y v.v.v.v.v.v.v.v.v.v.v.v.v.v.v.v.v.v.v.v.v.v.v.v.v.v.v.v.v.v.v.v.v.v.v.v.v.v.v.v.v.v.v.v.v.v.d ! T ~ ~ ~ ~ T d ",
"> > > > > > > > ; v.v.v.v.v.v.v.v.v.v.v.v.v.v.v.v.v.v.v.v.v.v.v.v.v.v.v.v.v.v.v.v.v.v.v.v.v.v.v.v.v.v.v.v.v.v.+ > > > > > > > # ",
",.,.>.>.>.,.>.>.:.v.v.v.v.v.v.v.v.v.v.v.v.v.v.v.v.v.v.v.v.v.v.v.v.v.v.v.v.v.v.v.v.v.v.v.v.v.v.v.v.v.v.v.v.v.v.m ,.>.>.>.>.>.>.m ",
">.6.>.>.>.6.>.>.=.v.v.v.v.v.v.v.v.v.v.v.v.v.v.v.v.v.v.v.v.v.v.v.v.v.v.v.v.v.v.v.v.v.v.v.v.v.v.v.v.v.v.v.v.v.v.m >.>.&.&.>.>.>.m ",
"Y ,.,.-.U >.>.,.:.v.v.v.v.v.v.v.v.v.v.v.v.v.v.v.v.v.v.v.v.v.v.v.v.v.v.v.v.v.v.v.v.v.v.v.v.v.v.v.v.v.v.v.v.v.v.m >.>.&.&.>.>.>.m ",
") >.>.&.) >.,.>.=.v.v.v.v.v.v.v.v.v.v.v.v.v.v.v.v.v.v.v.v.v.v.v.v.v.v.v.v.v.v.v.v.v.v.v.v.v.v.v.v.v.v.v.v.v.v.m >.>.>.U a m ) - ",
">.>.>.>.,.>.>.>.:.v.v.v.v.v.v.v.v.v.v.v.v.v.v.v.v.v.v.v.v.v.v.v.v.v.v.v.v.v.v.v.v.v.v.v.v.v.v.v.v.v.v.v.v.v.v.m >.>.>.>.b >.,.m ",
">.,.>.,.>.,.>.>.:.v.v.v.v.v.v.v.v.v.v.v.v.v.v.v.v.v.v.v.v.v.v.v.v.v.v.v.v.v.v.v.v.v.v.v.v.v.v.v.v.v.v.v.v.v.v.m ,.>.>.:.>.>.>.v ",
"x m m v m m m m v v.v.v.v.v.v.v.v.v.v.v.v.v.v.v.v.v.v.v.v.v.v.v.v.v.v.v.v.v.v.v.v.v.v.v.v.v.v.v.v.v.v.v.v.v.v.w m m m m m m m w ",
"B P P P P P P B n v.v.v.v.v.v.v.v.v.v.v.v.v.v.v.v.v.v.v.v.v.v.v.v.v.v.v.v.v.v.v.v.v.v.v.v.v.v.v.v.v.v.v.v.v.v.e U U P P B U U e ",
"T Y Y ~ T Y ~ T Y v.v.v.v.v.v.v.v.v.v.v.v.v.v.v.v.v.v.v.v.v.v.v.v.v.v.v.v.v.v.v.v.v.v.v.v.v.v.v.v.v.v.v.v.v.v.d T T Y Y T ~ T d ",
"~ > v [ U v [ Y P v.v.v.v.v.v.v.v.v.v.v.v.v.v.v.v.v.v.v.v.v.v.v.v.v.v.v.v.v.v.v.v.v.v.v.v.v.v.v.v.v.v.v.v.v.v.d ~ ) n m Y T ! s ",
"B x ) T B _ T P ) v.v.v.v.v.v.v.v.v.v.v.v.v.v.v.v.v.v.v.v.v.v.v.v.v.v.v.v.v.v.v.v.v.v.v.v.v.v.v.v.v.v.v.v.v.v.l m ] P x l Y ) s ",
"B Y T ~ Y ~ ~ T ) v.v.v.v.v.v.v.v.v.v.v.v.v.v.v.v.v.v.v.v.v.v.v.v.v.v.v.v.v.v.v.v.v.v.v.v.v.v.v.v.v.v.v.v.v.v.x B ~ ~ B Y ~ Y s ",
"B ~ ~ ~ ~ ~ ~ T Y v.v.v.v.v.v.v.v.v.v.v.v.v.v.v.v.v.v.v.v.v.v.v.v.v.v.v.v.v.v.v.v.v.v.v.v.v.v.v.v.v.v.v.v.v.v.d ~ ~ ~ ~ ) ~ ~ s "
};
