/* XPM */
static char *wall5[] = {
/* columns rows colors chars-per-pixel */
"64 64 153 2 ",
"   c #000000",
".  c #0A0B0C",
"X  c #030514",
"o  c #070C10",
"O  c #090E12",
"+  c #0E151B",
"@  c #131514",
"#  c #161816",
"$  c #10171F",
"%  c #1A1C1B",
"&  c #1E201F",
"*  c #161D26",
"=  c #181E26",
"-  c #1D2123",
";  c #17212A",
":  c #1B242C",
">  c #1F2932",
",  c #242625",
"<  c #262827",
"1  c #23262F",
"2  c #272929",
"3  c #2B2C2B",
"4  c #2E302F",
"5  c #252732",
"6  c #292732",
"7  c #262932",
"8  c #292B35",
"9  c #222E3A",
"0  c #2C2E39",
"q  c #2C3032",
"w  c #25313C",
"e  c #2D323B",
"r  c #343635",
"t  c #363837",
"y  c #31343D",
"u  c #363A39",
"i  c #3B3F3E",
"p  c #3B403E",
"a  c #273641",
"s  c #293642",
"d  c #2C3A46",
"f  c #2D3B48",
"g  c #323441",
"h  c #313E47",
"j  c #3B3F40",
"k  c #343D4B",
"l  c #3D4143",
"z  c #33414E",
"x  c #3B4149",
"c  c #344453",
"v  c #394653",
"b  c #374957",
"n  c #384956",
"m  c #37495A",
"M  c #3A4B5A",
"N  c #3E505E",
"B  c #3E4F61",
"V  c #3F5163",
"C  c #414546",
"Z  c #43464A",
"A  c #464A4D",
"S  c #4A4B4D",
"D  c #474A53",
"F  c #4A4E59",
"G  c #4E5154",
"H  c #42515D",
"J  c #505457",
"K  c #53575A",
"L  c #575B5E",
"P  c #585C5F",
"I  c #425363",
"U  c #495764",
"Y  c #445769",
"T  c #465A6C",
"R  c #495C6D",
"E  c #535561",
"W  c #545B64",
"Q  c #595C61",
"!  c #535E6E",
"~  c #475E70",
"^  c #485D70",
"/  c #565F70",
"(  c #5D6164",
")  c #5B606D",
"_  c #4D6476",
"`  c #4E6478",
"'  c #526374",
"]  c #596070",
"[  c #526679",
"{  c #52697D",
"}  c #5A6A7A",
"|  c #606467",
" . c #626669",
".. c #65696C",
"X. c #606672",
"o. c #686775",
"O. c #646B73",
"+. c #6A6E71",
"@. c #6C7073",
"#. c #6B737D",
"$. c #717576",
"%. c #72767A",
"&. c #787C7F",
"*. c #546D81",
"=. c #596F84",
"-. c #567186",
";. c #5B7286",
":. c #577188",
">. c #5B768C",
",. c #5C788E",
"<. c #5C7890",
"1. c #6D7480",
"2. c #717785",
"3. c #757A86",
"4. c #7A7D82",
"5. c #647E93",
"6. c #7D8085",
"7. c #7F8789",
"8. c #678095",
"9. c #7E8892",
"0. c #818689",
"q. c #868B8E",
"w. c #878F91",
"e. c #8A8F92",
"r. c #8D9296",
"t. c #8F9498",
"y. c #909497",
"u. c #909599",
"i. c #95989D",
"p. c #979CA0",
"a. c #999CA1",
"s. c #9EA1A6",
"d. c #9DA2A8",
"f. c #A1A2A7",
"g. c #A1A6AA",
"h. c #A5A9AD",
"j. c #A7AAB1",
"k. c #A9ACB3",
"l. c #AFB2B7",
"z. c #AFB2B9",
"x. c #B1B4BB",
"c. c #B5B8BD",
"v. c #B9BCC1",
"b. c #C7C8CC",
"n. c #CACBCF",
"m. c #CECFD3",
"M. c #CFD1D5",
"N. c #D2D1D7",
"B. c #D6D7DB",
"V. c #D7D8DC",
"C. c #DBDCDF",
"Z. c #DDDEE2",
"A. c #FFFFFF",
/* pixels */
"7 7 8 7 7 8 8 8 8 8 0 e y y y y y e y y y y y y y y y y y y y y y e 0 0 0 0 0 0 e 0 0 8 8 y e e e e e 0 8 y 8 r e y 8 0 y y y e ",
"8 8 7 7 7 1 1 7 7 8 7 0 y y e 0 8 0 q 0 0 y y y 0 8 y y y y y y y Z 3.3.3.3.3.3.1.#.1.#.2. .8 7 6 5 8 5 8 1 8 0 8 8 7 8 0 y 0 y ",
"7 7 8 7 7 8 1 7 7 8 q y y y 6 7 7 8 8 e y e y k I M ^ ^ R Y I M I x v ^ s k M ^ ^ T ' ' ! X.8 8 7 7 5 7 7 7 8 8 e 8 5 5 7 8 y 0 ",
"8 7 8 7 7 8 1 7 8 8 y y y e 8 e y M ` ,.,.;.` { a 5 ^ R ^ ^ ^ ^ T T s n M ^ R M $ ,.,.,.,.[ s 5 0 8 7 7 7 5 7 8 8 8 8 7 7 7 7 1 ",
"7 7 7 5 7 7 7 8 e e 0 e y 5 5 H >.,.,.,.,.s I >.*.O c T _ ^ ^ T ^ ^ T ^ R ^ M * _ ,.,.,.v c -.c e 1 7 7 7 1 8 8 8 7 8 e e 0 y 0 ",
"7 7 7 7 7 7 7 8 8 7 7 8 r c M * *.,.,.,.H b *.>.,.*.e T ^ V I ^ ^ ^ _ Y s U m a *.,.` a s ,.,.,.,.>.U E  .o.o.x 1 7 y y q 8 8 8 ",
"8 7 7 7 7 7 7 1 8 5 8 0 Y ^ ^ M T ,.,.,.,.;.n { ,.-.f d m * > n n V [ M T k M >.>.,.,.,.<.,.,.,.,.R V I / / ) Q 0 y y y 8 8 7 0 ",
"8 7 7 7 7 6 7 7 1 8 v ^ ^ ^ ^ ^ 5 Y ,.,.,.,.,.,.,.,.>.v   M I m n ; M I ^ > { <.,.<.,.,.Y ,.,.,.T * V R ^ ^ / Q q e y 8 8 8 8 e ",
"8 7 7 7 5 5 8 5 8 M ^ ^ ^ ^ ^ ^ I $ Y 5.n s s a s ,.,.;.9 ^ ^ ^ ^ I Y ^ s *.,.,.,.,.` a ` ,.,.Y + I M n T _ M D y e e y y y y y ",
"8 7 8 7 q 8 7 8 U ^ ^ T ^ ^ ^ T ^ I : 9 { <.,.,.,.,.,.,.m > ^ R ^ ^ ` { b ,.>.,.n a T ,.,.>._ * I ^ ^ ^ T R M w 0 y y y y y y e ",
"6 7 7 8 s y e T ^ ^ ^ ^ ^ ^ ^ ^ M U Q Q Q P P P Q L P P P P P Q P P Q P P P P P P Q P P Q Q A f I ^ I I ^ ^ T ^ R k y y y q 8 1 ",
"8 0 8 7 5 0 : V ^ ^ ^ ^ ^ ^ [ W Q &.r.t.u.a.n.u.t.t.t.u.t.t.r.s.c.a.u.r.r.u.y.t.t.x.k.t.t.t.q.$.C M b b _ ^ ^ ^ ^ I 5 0 8 8 8 1 ",
"8 8 7 7 5 =.*.M > ^ ^ ^ ^ c A 0.u.u.t.u.t.q.c.g.t.t.t.t.t.t.t.e.x.s.u.u.u.y.t.t.0.x.c.a.u.t.u.t.t.0.K b ^ ^ ^ ^ ^ q m e 7 5 7 7 ",
"6 8 8 5 *.c *.<.m : Y R m   K ( Q | ( ( Q Q C ( ( ( ( ( ( ( ( J i K | Q ( Q ( ( ( i Z | Q Q ( ( Q ( u 7 T R T s % c T [ 6 8 5 7 ",
"7 5 5 v ,.=.I *.>.c 9 M o , u u u u Z e.e.4.@ u u u , 4.e.e.( u u u u r +.e.e.Z u u u , +.e.r.Q u u j 2 h T d d M T _ ,.z 7 7 7 ",
"5 7 5 *.<.>.*.*.<.>.M u A , i j i i A t.u.0.@ j j p , 0.u.u. .p j j j t 4.u.u.A i i i , @.u.t.Q j i i 3 ..d d *.,.` ,.,.^ 5 7 7 ",
"7 8 s ,.,.,.,.,.,.<.l 4.( < i i i p A u.t.0.@ i i i , 0.y.r. .p i p j t 4.t.t.S i i i , @.t.u.( j i i 2 e. .} ,.,.,.>.,.,.e 7 5 ",
"0 8 ` ,.,.=.e R ;.;.( u.( , p i p i A t.t.0.@ p p i , 0.y.u. .i i i i t 4.t.t.A i p i , @.t.t.( i i i 2 r.0.  ,.-.-.-.>.,._ 7 6 ",
"y y >.,.<.>.,.R c I 4.t.( , p l i p A u.t.0.@ i i i , 0.t.t. .i i i i t &.t.t.A p p i , +.u.r.( i i i 3 r.r.K 9.n c c ` <.;.8 6 ",
"y y T U Y T T T U C r.u.( , j i i i A t.t.0.@ p p i , 0.t.t...i i l i t %.t.t.A i i i , @.t.t.( i i i 3 r.t.+.  V T T T T Y 0 5 ",
"y X               C r.r.( , p i i p A t.t.7.@ p i p , 0.t.t. .p i i p t %.u.t.A p i i , +.u.u.( i p p < r.t.t.            . y g ",
"U *.*.n . . . I { Z ( ( | ( ( ( ( ( ( ( ( ( ( ( ( ( ( ( ( ( ( ( ( ( ( ( ( ( ( ( ( ( ( ( ( ( ( ( ( ( +.( ( ( ( b *.*.*.*.*.*.*.s ",
"U   ; a *.<.,.Y ^ +.u.u.a.n.c.t.t.t.t.t.t.a.N.f.t.t.t.t.t.t.t.u.B.l.t.t.t.t.t.t.t.b.V.a.t.t.t.t.t.t.c.n.u.t.t.c 9 s s s s 9 *.v ",
"c U _ ,.,.,.,.,.I +.u.u.4.s.p.t.t.t.t.t.r.q.k.t.t.t.t.t.y.t.t.4.h.s.t.t.t.u.t.t.t.d.j.u.t.y.t.t.y.e.r.i.t.t.t.d V >.<.<.<.m     ",
"T 5.,.,.,.,.<.,.>.Z ( ( ( ( ( ( ( ( ( ( ( ( ( ( ( ( ( ( ( ( ( ( ( ( ( ( ( ( ( ( ( ( ( ( ( ( ( ( ( ( ( ( ( ( Q Y ,.,.<.,.,.>.T f ",
"U ,.<.<.,.,.,.,.>.+.t.t.( , j i i p A t.t.0.@ i p i , 0.t.u. .i i p j t 4.t.t.A i i i , +.t.t.( i i i 3 t.t.t.M ,.,.,.,.,.,.,.M ",
"U =.{ *.*.*.*.*.[ +.t.t.( , p p i p A t.u.0.@ i i p , 0.t.u. .i j p i t %.t.t.A l i p , +.t.t.( i i i 3 r.t.t.c *.*.*.*.-.{ *.b ",
"!                 +.t.t.( , i i i p A t.u.0.@ p i l , 0.t.t. .i i i j t &.t.t.A i i i , @.u.t.( i i i 2 r.t.t.                  ",
"! n n n T   w m b @.t.t.( , p i l i A t.t.0.@ p i i , 0.t.t. .i i i i t %.t.u.A i p i , @.t.t.( l p p 3 t.t.t.9 n n n a M M n w ",
"F ^ ^ { n T T 5 ` @.t.t.( , i i i i A t.t.0.@ i i p , 0.t.t...i i i i t %.u.t.A i p i , @.t.t.( i i i 3 t.t.t.f _ 9 > * I R T d ",
"O.^ T w : ^ ^ ^ Y +.t.t.( , p p p i A t.t.0.@ i j i , 0.t.u. .p i i i u %.t.u.A p i p , @.t.t.( p p i 3 r.t.t.$ > T T c O ^ _ d ",
"I ^ V : z ^ ^ ^ T +.t.t.( , p p i i A t.t.0.@ p i p , 0.t.t. .p p i j u %.t.t.A i p p , @.t.t.( i i i 3 r.t.t.f ^ ^ _ ` 9 m ^ d ",
"I ^ ^ I n ^ _ ^ T K $.$.S % 4 4 4 q t $.$.... 4 4 q % ..$.$.J q 4 4 4 3 Q $.$.u 8 4 4 % K $.%.S 4 4 4 - $.$.$.f ^ _ ^ T V M ^ f ",
"I ^ ^ ^ ^ ^ T ^ T ( 0.0.0.0.7.7.0.0.0.0.0.0.0.0.0.0.0.0.0.0.0.0.0.0.0.0.0.0.0.0.0.0.0.0.0.0.0.7.0.0.0.0.0.0.0.f ^ ^ ^ T ^ ^ ^ f ",
"I I I I V I I I I +.t.t.i.M.l.t.y.y.t.t.t.a.Z.a.u.y.t.t.u.u.t.u.V.x.y.t.t.u.t.t.t.M.C.i.y.t.t.t.t.t.M.n.t.t.t.a I I I I I I I a ",
"c M M M M n M n n +.t.t.q.g.i.t.t.u.t.t.t.r.g.t.t.u.t.t.t.t.t.q.i.i.t.t.t.t.t.t.t.r.f.i.y.u.t.y.t.t.a.a.t.t.t.w M M M M M M M 9 ",
"-.,.,._ -.,.,.,.>.C P P t @ , , , , 3 P P G . , , , @ J P P l , , , , & A P Q 3 , , , @ C P P t , , , # P P W M ,.,.,.,.<.,.,.n ",
">.5.5.{ >.5.5.,.>.+.t.t.( , l p p i A t.t.0.@ i p p < 0.t.t. .p i i p t &.t.t.A i i i , @.t.t.( p p i 3 r.t.t.M ,.,.` a d n <.M ",
",.,.,.,.,.,.,.,.>.+.t.t.( , i i i i A t.r.0.@ p i i , 0.t.t.| i p i i t &.t.t.A p i p , @.u.t.( p p i 3 r.r.t.M ,.,.,.>.>.*.e : ",
">.,.,.,.,.>.,.,.>.+.t.t.( , i i i i A t.y.0.@ p i p , 0.t.y. .i p i i t &.t.t.A i i i , +.u.u.( p i p 3 r.t.t.M ,.,.,.,.,.<.<.M ",
",.,.<.,.,.,.,.,.:.+.t.t.( , p i p i A t.t.0.@ i i p , 0.u.t...p i i p t 4.t.t.A i i i , +.t.t.( p i i 3 r.t.t.M ,.,.,.,.,.,.,.M ",
",.,.,.<.,.,.,.,.>.+.t.t.( , i i i p A t.t.0.@ p p i , 0.t.t. .p i p i t 4.t.t.A i i i , @.t.t.( i i i 3 r.t.t.M ,.,.,.,.,.,.,.M ",
"e w e w w w y e e +.t.t.( , l i i p A t.t.0.@ i i i , 0.t.t. .p i i i t %.t.t.A p p p , @.t.t.( i i i 2 r.t.t.* e e e w a w e ; ",
"T ^ _ T ~ _ T _ T ( w.q.+.J P L P P ( q.q.4.G P P P J 4.q.q.+.W P P P L $.q.q.( P P Q G @.q.q...P P W J q.q.w.f ^ ^ _ ~ _ T _ f ",
"_ T ^ ~ _ _ T T Y +.e.w.r.c.i.r.e.e.e.r.e.u.x.r.e.e.e.r.e.e.e.e.h.r.e.e.e.e.r.w.r.h.a.t.e.e.r.e.r.e.j.h.w.r.e.d ^ ^ ^ ^ T ^ ^ d ",
"T ^ ^ ^ T T ~ _ T +.t.t.q.h.j.t.t.y.r.y.t.0.h.a.t.u.t.t.u.t.t.e.v.s.t.t.t.t.t.t.q.l.v.a.t.t.t.t.r.w.i.j.t.t.t.d ^ ^ ^ ^ ^ ^ ^ f ",
"{ V : m _ I > m Y L 4.4.$.$.4.4.4.4.6.4.4.$.%.4.4.4.4.4.4.4.4.&.4.4.4.4.4.6.4.4.4.%.4.4.4.4.4.4.4.4.$.&.4.4.4.d ;.^ ^ ^ ^ { > $ ",
"d a _ ^ b s ^ T T S  . .l @ , , , , 8  . .Q . , , , @ P | | C , , < , - G (  .q , , , @ S  .( l , , , @ ..( ( d ^ { 9 9 > ^ ^ f ",
"^ T ^ T V _ ~ ~ T +.t.t.( , p i p i A t.t.0.@ p i p , 0.t.t. .l p i j t %.t.t.A i i i , @.t.t.( i p i 3 t.t.t.f ^ ^ ` ` R ^ ^ f ",
"T ^ ^ ^ _ T ~ ~ T +.t.t.( , i p i i A u.t.0.@ i i i , 0.r.t. .i i p i t %.t.t.A p i p , @.t.t.( i i i 3 e.t.t.s ^ ^ ^ ^ ^ ^ _ d ",
"> > > > > > > > > +.t.t.( , l p i p A t.u.0.@ i p i , 0.t.t. .i i p i t &.t.t.A i i i , @.t.t.( i p i 2 r.t.r.* > 5 > > > > > + ",
"<.8.,.,.,.8.,.,.:.@.t.t.Q , i i i i A t.t.0.@ i i i , 0.t.t...i i p i r 4.t.t.Z i l p , @.t.r.( i p i 3 r.t.t.M <.<.>.<.,.,.<.n ",
",.8.<.,.,.8.,.,.>.A.A.A.A.A.A.A.A.A.A.A.A.A.A.A.A.A.A.A.A.A.A.A.A.A.A.A.A.A.A.A.A.A.A.A.A.A.A.A.A.A.A.A.A.A.A.M <.,.*.*.,.,.,.M ",
"V ,.,.:.Y ,.,.<.>.A.A.A.A.A.A.A.A.A.A.A.A.A.A.A.A.A.A.A.A.A.A.A.A.A.A.A.A.A.A.A.A.A.A.A.A.A.A.A.A.A.A.A.A.A.A.M ,.>.*.*.,.,.,.M ",
"` ,.,.*._ ,.<.,.-.A.A.A.A.A.A.A.A.A.A.A.A.A.A.A.A.A.A.A.A.A.A.A.A.A.A.A.A.A.A.A.A.A.A.A.A.A.A.A.A.A.A.A.A.A.A.n ,.,.,.T s n ` ; ",
"<.<.<.,.,.,.,.,.>.A.A.A.A.A.A.A.A.A.A.A.A.A.A.A.A.A.A.A.A.A.A.A.A.A.A.A.A.A.A.A.A.A.A.A.A.A.A.A.A.A.A.A.A.A.A.n ,.,.,.,.n ,.,.M ",
">.,.,.,.,.,.<.<.>.A.A.A.A.A.A.A.A.A.A.A.A.A.A.A.A.A.A.A.A.A.A.A.A.A.A.A.A.A.A.A.A.A.A.A.A.A.A.A.A.A.A.A.A.A.A.B <.,.<.,.,.,.,.M ",
"c M M M M M M n b A.A.A.A.A.A.A.A.A.A.A.A.A.A.A.A.A.A.A.A.A.A.A.A.A.A.A.A.A.A.A.A.A.A.A.A.A.A.A.A.A.A.A.A.A.A.w M M M n M M M w ",
"V I I I Y I I I n A.A.A.A.A.A.A.A.A.A.A.A.A.A.A.A.A.A.A.A.A.A.A.A.A.A.A.A.A.A.A.A.A.A.A.A.A.A.A.A.A.A.A.A.A.A.e I I I I I I I e ",
"T T T R R T ^ R T A.A.A.A.A.A.A.A.A.A.A.A.A.A.A.A.A.A.A.A.A.A.A.A.A.A.A.A.A.A.A.A.A.A.A.A.A.A.A.A.A.A.A.A.A.A.f ^ ^ R T _ T _ f ",
"^ > m { Y c { T Y A.A.A.A.A.A.A.A.A.A.A.A.A.A.A.A.A.A.A.A.A.A.A.A.A.A.A.A.A.A.A.A.A.A.A.A.A.A.A.A.A.A.A.A.A.A.f ^ _ M n T ^ ^ d ",
"I c _ R I ` ^ I _ A.A.A.A.A.A.A.A.A.A.A.A.A.A.A.A.A.A.A.A.A.A.A.A.A.A.A.A.A.A.A.A.A.A.A.A.A.A.A.A.A.A.A.A.A.A.z M [ I c d T _ f ",
"V T T ^ ^ ^ ^ T _ A.A.A.A.A.A.A.A.A.A.A.A.A.A.A.A.A.A.A.A.A.A.A.A.A.A.A.A.A.A.A.A.A.A.A.A.A.A.A.A.A.A.A.A.A.A.c V ^ ^ V T ^ T d ",
"I T _ ^ ^ ^ ^ R Y A.A.A.A.A.A.A.A.A.A.A.A.A.A.A.A.A.A.A.A.A.A.A.A.A.A.A.A.A.A.A.A.A.A.A.A.A.A.A.A.A.A.A.A.A.A.f ^ ^ ^ ^ _ ^ ^ d "
};
