/* XPM */
static char *wall2[] = {
/* columns rows colors chars-per-pixel */
"64 64 158 2 ",
"   c #000000",
".  c #0A0B0C",
"X  c #030514",
"o  c #070C10",
"O  c #090E12",
"+  c #0E151B",
"@  c #131514",
"#  c #161816",
"$  c #10171F",
"%  c #1A1C1B",
"&  c #1E201F",
"*  c #161D26",
"=  c #181E26",
"-  c #1D2123",
";  c #17212A",
":  c #1B242C",
">  c #1F2932",
",  c #242625",
"<  c #262827",
"1  c #23262F",
"2  c #272928",
"3  c #2B2C2B",
"4  c #2E302F",
"5  c #252732",
"6  c #292732",
"7  c #262932",
"8  c #292B35",
"9  c #222E3A",
"0  c #2C2E39",
"q  c #2C3033",
"w  c #25313C",
"e  c #2D323B",
"r  c #343635",
"t  c #363837",
"y  c #31343D",
"u  c #373A39",
"i  c #3B3F3E",
"p  c #3B403E",
"a  c #273641",
"s  c #293642",
"d  c #2C3A46",
"f  c #2D3B48",
"g  c #323441",
"h  c #313E47",
"j  c #3C3F40",
"k  c #343D4B",
"l  c #3E4143",
"z  c #33414E",
"x  c #3B4149",
"c  c #344453",
"v  c #394653",
"b  c #374957",
"n  c #394957",
"m  c #374858",
"M  c #3A4B5A",
"N  c #3E505E",
"B  c #3E4F61",
"V  c #3F5163",
"C  c #414546",
"Z  c #43464A",
"A  c #464A4D",
"S  c #4A4B4D",
"D  c #474A53",
"F  c #4D4E52",
"G  c #4A4E59",
"H  c #4E5154",
"J  c #42515D",
"K  c #505457",
"L  c #53575A",
"P  c #575B5E",
"I  c #585C5F",
"U  c #425363",
"Y  c #495764",
"T  c #445769",
"R  c #465A6C",
"E  c #495C6D",
"W  c #535561",
"Q  c #545B64",
"!  c #595C61",
"~  c #535E6E",
"^  c #475E70",
"/  c #485D70",
"(  c #565F70",
")  c #5D6164",
"_  c #5B606D",
"`  c #4D6476",
"'  c #4E6479",
"]  c #526374",
"[  c #596070",
"{  c #526679",
"}  c #52697D",
"|  c #5A6A7A",
" . c #606467",
".. c #626669",
"X. c #65696C",
"o. c #6A6E6F",
"O. c #606672",
"+. c #686775",
"@. c #646B73",
"#. c #6A6E71",
"$. c #6C7073",
"%. c #6B737D",
"&. c #717576",
"*. c #72767A",
"=. c #74787D",
"-. c #787C7F",
";. c #546D81",
":. c #596F84",
">. c #567186",
",. c #5B7286",
"<. c #577188",
"1. c #5B768C",
"2. c #5C788E",
"3. c #5C7890",
"4. c #6D7480",
"5. c #717785",
"6. c #757A86",
"7. c #7A7D82",
"8. c #647E93",
"9. c #7D8085",
"0. c #7F8789",
"q. c #678095",
"w. c #7E8892",
"e. c #818787",
"r. c #818689",
"t. c #868B8E",
"y. c #878F91",
"u. c #8A8F92",
"i. c #8D9296",
"p. c #8F9498",
"a. c #909497",
"s. c #909599",
"d. c #95989D",
"f. c #979CA1",
"g. c #999CA1",
"h. c #9EA1A6",
"j. c #9DA2A8",
"k. c #A1A2A7",
"l. c #A1A6AA",
"z. c #A5A8AD",
"x. c #A7AAB1",
"c. c #A9ACB3",
"v. c #AFB2B7",
"b. c #AFB2B9",
"n. c #B1B4BB",
"m. c #B5B8BD",
"M. c #BABDC2",
"N. c #C1C4CB",
"B. c #C7C8CC",
"V. c #CACBCF",
"C. c #CECFD3",
"Z. c #CFD1D5",
"A. c #D1D2D7",
"S. c #D5D6DA",
"D. c #D7D8DC",
"F. c #DBDCDF",
"G. c #DCDDE2",
"H. c #FFFFFF",
/* pixels */
"7 7 8 7 7 8 8 8 8 8 8 y y y y y y y y y y y y y y y y y y y y y y y 8 0 0 0 0 0 0 0 0 8 8 y s y 0 y 0 0 e 0 e 0 y y 8 0 y y y e ",
"8 8 7 7 7 7 1 7 7 8 7 8 y y y 0 8 8 e 0 8 y y y 0 q y y y y y y y Z 6.6.6.6.5.5.5.%.4.%.5...7 8 6 5 7 6 7 7 7 8 8 8 7 7 q y 0 y ",
"7 7 8 7 7 7 7 1 1 1 y y y y 5 7 6 8 0 e y e y k U n / E E T B M J z v ( g k M / / T { ~ ~ O.8 7 7 7 7 7 7 7 5 8 y 8 7 7 7 8 y 8 ",
"8 8 7 7 7 8 1 7 8 e y y y q 8 y y n ` 2.2.1.` } a 5 / / / / / / / T s n M / / n $ 2.2.2.2.{ a 7 8 8 7 7 5 5 8 0 7 8 7 8 7 7 7 7 ",
"7 7 7 5 7 7 7 8 y 0 e e y 7 5 M 1.2.2.2.2.d U <.;.O c / / / / / ^ ^ R ^ / ^ M * ` 2.2.2.m c :.c e 1 5 7 7 1 8 8 7 7 8 0 y 0 0 e ",
"7 7 7 7 7 7 8 1 8 7 8 8 e v M = ;.2.2.2.J n ;.2.3.;.a R / U U / / E ` R s E m w ;.2.` a a 2.3.2.2.2.Y W ..+.+.j 5 8 y y e 8 8 8 ",
"8 7 7 7 7 8 1 8 7 7 7 8 T / / M R 2.2.2.2.:.n } 2.>.f s n * 9 n n U { M R c n 3.2.2.2.2.2.2.2.2.2./ B U ( ( ( ! 8 y y e 8 8 7 8 ",
"8 7 7 7 7 5 8 1 1 8 v ^ E / / ` 5 T 2.2.2.2.2.2.2.2.1.v   M U v n ; n U E > } 3.2.3.2.2.T 2.2.2.R = U ^ / ~ ( ! e y e 8 0 q 8 y ",
"8 7 8 5 7 5 8 5 8 M / / / / E / U $ T 8.n a a a a 2.2.<.9 E / / / U T / a ;.2.2.2.3.` a ` 2.2.T + U M M / / M D e y y y y y y y ",
"8 7 7 7 q 8 5 7 Y / / E ^ / ^ E / U : 9 ;.3.2.2.3.2.2.2.m > / E / / ' } b 2.2.2.n a R 2.2.2.` * U / / ^ E / M 8 0 y y y y y y e ",
"7 8 7 8 e y e E / / / / / ^ / / M Y ! ! I I I I I I P I ! ! I ! I I ! P I I I I ! ! I I I ! A f U / T U ^ ^ ^ / R k y y y e 8 7 ",
"8 0 8 5 8 0 : V / / / / / ^ ' Q ! -.i.p.s.g.V.s.p.s.p.p.p.p.p.h.m.g.s.i.i.a.s.p.s.n.c.i.p.p.y.&.j M n n ^ / / ^ E U 1 8 8 7 8 1 ",
"7 7 8 5 5 >.;.M 5 / / / ^ c A r.s.s.p.p.p.t.n.l.p.p.p.p.p.p.p.u.n.h.s.s.p.p.a.p.r.n.n.g.s.s.s.a.s.t.K m ^ ^ ^ E / q m e 7 7 7 7 ",
"6 0 8 5 } c >.2.m : T / M   L ! ) ) ) ) ) ! C ) ) ) ) ) ) ) ) K i L  .! ) ! ) ) ) i Z  .) ! ! ) ) ! u 7 E ^ R a % c R ] 8 1 1 7 ",
"7 5 5 v 2.:.V ;.3.c 9 m o , u j u u Z u.u.7.@ u u u , 7.u.u.) u u u u r $.y.u.Z u u u , #.u.i.I u u j 2 k E d d M E ` 2.z 1 8 1 ",
"7 7 5 ;.2.2.;.;.3.1.M u A < u i i i A p.p.r.@ j j p < r.s.p...p j j j t 7.s.s.A i i j , #.s.p.) j i j 3 X.a d ;.2.` 2.1.` 8 5 8 ",
"7 5 s 2.2.2.2.2.2.3.C 7.) , i p i p A s.p.r.@ p p i , r.s.i...i i i i t 7.p.p.S i i i , $.p.p.) j p i 2 u...| 2.2.2.2.2.2.w 8 5 ",
"8 8 ` 1.2.:.e R <.,.) s.) , p i i i A p.p.r.@ i i i , r.p.a...i i p i t 7.p.p.A i p i , $.s.p.) i i i 2 i.r.  2.;.>.>.1.2.` 6 6 ",
"y y 2.8.2.3.2.E c J 7.p.) , l i p i A s.p.r.@ p p i , r.p.p...i p i i t 7.i.p.A p p i , #.s.i.) i p i 3 p.i.L w.M c c ` 2.,.8 6 ",
"y y R R R T E T Y C i.p.) , i i i i A p.p.r.@ p i p , r.p.s.X.i i l j r =.p.p.A i i i , $.p.s.) i i i 3 i.p.#.  V R R R R T 0 7 ",
"y X               C i.p.) , i i i p A p.p.0.@ i i i , r.p.p...p i i i t =.p.p.A p i i , #.s.s.) i p p < i.p.i.            . e g ",
"R ;.;.n . . . U } Z ) )  .) ) ) ) ) ) ) ) ) ) ) ) ) ) ) ) ) ) ) ) ) ) ) ) ) ) ) ) ) ) ) ) ) ) ) ) ) #.) ) ) ) b ;.;.;.;.;.;.;.s ",
"Y   ; a ;.2.2.T / #.s.s.g.V.m.p.p.p.p.p.p.g.A.k.a.p.p.p.p.p.p.s.S.v.i.p.p.p.p.p.p.B.D.g.p.p.p.p.p.i.m.V.p.p.p.c 9 a a a a 9 ;.m ",
"c Y ` 2.2.2.2.2.U #.s.s.7.h.f.p.p.p.p.p.i.t.c.p.p.p.p.i.a.p.p.7.x.h.p.p.p.p.p.p.p.h.x.p.s.i.p.p.i.i.i.d.p.p.p.d J 3.2.3.8.n     ",
"Y 8.2.2.2.2.3.2.1.Z ) ) ) ) ) ) ) ) ) ) ) ) ) ) ) ) ) ) ) ) ) ) ) ) ) ) ) ) ) ) ) ) ) ) ) ) ) ) ) ) ) ) ! ) ) V 3.3.2.2.2.1.E f ",
"Y 2.3.3.3.2.2.2.1.o.p.p.) , p p i i A p.p.r.@ p j p , r.p.p...i i p i t 7.p.p.A i i i , #.p.p.) i i i 3 p.p.p.B 2.2.2.3.2.2.2.M ",
"Y ;.;.;.;.;.;.;.{ #.s.p.) < p i p i A p.p.r.@ i i l , 0.p.s...i l i i t =.p.p.A i i l , #.p.p.) j i p 3 p.p.p.c ;.;.;.;.;.} ;.b ",
"~                 o.p.p.) - p i i l A p.s.r.@ p i j , r.p.p.X.i i i i t =.p.p.A i i i , $.p.p.) p i i 2 i.p.p.                  ",
"~ n n n E   9 m b $.p.p.) , i i p i A p.p.r.@ p i i , r.p.p...p i p i t &.p.s.A i i p , $.p.p.) l p i 2 i.p.p.w m N n s M b n 9 ",
"G / ^ } n R R 5 ` $.p.i.) , i i p i A p.p.r.@ i i i , r.p.p...p p i i t =.s.p.A i p i , $.p.p.) i i p 2 i.p.p.f ` > 5 = U ` E d ",
"@.E R w : / / / R o.p.p.) , j i i p A p.p.r.@ i i i , r.p.p...p i i i t =.p.s.A p i p , $.s.p.) p p p 3 i.p.i.$ > E / c O ^ ^ f ",
"T E V : z ^ / / R o.p.p.) , l i i i A p.p.r.@ i i p , r.p.p...p i p p y =.p.p.A i i p , $.p.p.) p p p 3 i.p.p.f ^ R ^ ' 9 M / f ",
"U / / U n ^ ^ E E L &.&.S % 4 4 3 r u &.*.X.. 4 4 4 % @.&.*.H q 4 4 q 3 ! &.*.u 3 q 4 % L *.&.S r 3 q , &.&.&.f ^ ` / T V M / f ",
"U ^ / ^ / ^ ^ E R ) r.r.r.r.e.0.r.r.r.r.r.r.r.r.r.r.e.r.r.r.r.r.e.e.r.r.r.r.r.r.r.e.r.r.r.r.r.0.0.e.r.0.r.0.r.f / / / E ^ / ^ f ",
"J U T U U U T V V #.p.p.g.Z.v.p.i.s.p.p.a.g.G.g.s.p.p.p.p.s.p.s.F.n.a.i.p.p.a.s.p.Z.F.d.p.p.p.a.p.p.C.V.p.p.p.a U U U U U U U a ",
"c M M M M n M m n #.p.p.t.h.d.p.p.s.p.a.i.i.l.p.p.p.p.p.p.p.p.t.s.d.p.s.i.p.a.p.p.i.k.d.a.s.p.p.s.u.g.g.p.p.p.w M M M M M M M 9 ",
">.2.2.` :.2.2.2.1.C P I u @ , , , , 3 I P H . , < , @ K ) P l , , , , & A I I 3 , , , @ C I I u , , , # P ! ! M 2.2.2.2.3.2.2.M ",
"1.8.8.} 1.8.8.2.1.o.p.p.) , l p i i A p.p.0.@ i p p , r.p.p.) l i p p t -.p.s.A i i i , $.s.i.) l i p 2 i.p.p.M 2.2.{ a d m 3.M ",
"2.2.2.2.2.2.2.2.1.#.s.p.) , i i i i A p.i.r.@ p i p , r.p.i...p i p i t -.p.p.A j p i , $.p.s.) i i i 3 i.p.p.M 2.2.2.1.2.;.e ; ",
"2.2.2.2.2.2.2.2.1.#.p.p.) , i i i i A p.s.e.@ i p p , r.i.p...p i i i t -.p.p.A i i i , #.s.p.) i i p 3 i.p.p.M 2.2.2.2.2.2.3.M ",
"2.2.3.2.2.2.2.2.1.@.a.p.) , p i p i A p.p.r.@ p i p , r.s.p...p i i i t -.p.s.A p i p , #.s.p.) i i i 3 i.p.i.M 2.2.2.2.2.2.2.n ",
"2.2.2.3.2.2.2.2.1.#.p.p.) , i i i p A s.p.r.@ p p i , r.p.p...p p p i t -.p.p.A i i i , $.p.p.) i i i 3 i.p.s.M 2.2.2.3.2.3.3.M ",
"e a e e e w e e e @.p.p.) , p p i p A p.s.r.@ i i i , r.p.p...i i i p t *.a.p.A i p p , $.p.a.) i i i 2 i.p.s.= e e a e s w e ; ",
"T ^ ^ ^ ` ^ R ` E ) y.t.o.H I I P P ) t.t.7.H P I I K 7.t.t.#.! I I I P *.t.t.) P P I K $.t.t.X.I I P L t.t.t.f ^ E / ^ ^ E ` f ",
"/ / ^ ^ ^ ^ ^ ^ R #.u.y.u.m.g.u.u.u.i.u.u.s.n.i.u.u.u.i.u.u.u.u.z.i.i.u.u.u.i.y.i.z.g.i.i.u.u.u.i.u.z.z.u.u.u.f / / ^ / E E ^ d ",
"/ / ^ / R ^ ^ ^ T o.i.p.t.z.x.p.a.a.a.s.s.r.z.g.p.p.p.p.p.p.s.u.M.h.p.p.p.i.p.p.t.v.M.g.p.i.p.p.i.u.s.x.s.s.a.d / / / / ` E ^ f ",
"} U > M ` U > M R P 7.7.=.*.7.7.7.7.7.7.7.*.&.7.7.7.7.7.7.7.7.-.7.7.7.7.7.7.7.7.7.*.7.7.7.7.7.7.7.7.&.7.7.7.6.f <./ ^ / / } > $ ",
"d a ^ ^ c s / / R S .. .j @ , , , , q  . .! O , , , @ I .. .C , , , , - H ....8 , , , @ S  ...l , , , #  . . .f / ;.> 9 > ^ ^ f ",
"/ / / E / / / / T #.p.p.) , p p p i A p.p.r.@ i i i , r.a.p...i i p i t *.p.p.A p i l , $.s.p.) p i i 3 p.p.p.f / / ' ` / / / f ",
"T / / / ^ E / / E #.p.p.) , i p i i S p.i.r.@ i i i , r.p.p...p i i i t -.p.p.A p i i , $.p.p.) j i j 3 i.p.p.f ^ / / / / / / d ",
"> > > > > > > > > @.s.p.) , i i p i A p.p.r.@ i i i , r.p.p...p i p i t =.i.p.A i i i , $.p.p.) i p i 2 i.p.p.* > > > > > > 5 $ ",
"2.8.2.2.2.8.2.2.>.#.p.p.) , i p i i A s.p.r.@ i i i , r.p.s...i i i i t 7.p.p.A p i i , $.p.s.) i i i 3 i.p.p.M 3.2.2.2.2.2.2.M ",
"2.8.3.2.2.8.2.2.1.#.s.s.) , i i i i A s.s.r.@ u i i , e.a.p...l i i i t -.p.p.A i i l , $.s.p.) i p i 3 i.p.p.M 3.2.;.;.2.2.2.n ",
"T 3.2.<.T 2.2.3.1.#.p.s.) , p p i i A i.p.r.@ i i i , r.i.a...p p i p t -.p.p.A p i i , #.p.p.) i j i 3 i.p.s.M 2.2.} ;.2.2.3.M ",
"` 2.2.;.{ 2.3.2.<.A ) ) p @ < < 2 3 8 ) ) P . 3 3 < @ I ) ) C 2 < < 2 , F ) ) q < 2 < # A ) ) j 2 2 2 % ) ) ) M 2.2.2.R a n ' ; ",
"2.2.3.2.2.2.2.2.<.p r.e.r.g.i.r.e.r.r.r.r.t.g.t.r.r.e.r.r.r.r.t.d.i.r.r.r.r.r.r.r.s.g.r.r.r.r.r.r.0.s.g.r.r.r.n 2.2.2.3.n 2.3.M ",
"2.3.2.3.2.2.2.3.1.C i.i.t.A.M.s.p.i.p.p.i.g.G.z.s.i.p.p.p.p.p.f.A.M.p.p.p.i.a.p.i.N.S.f.p.p.p.p.p.i.M.A.p.p.p.M 3.2.2.2.2.2.2.M ",
"c M M n M M M M n l t.t.r.r.i.t.t.t.y.t.t.r.t.i.t.t.t.t.t.t.t.9.-.i.t.t.t.t.t.t.t.7.e.i.t.t.t.t.t.t.t.s.t.t.y.w M M M M M M M w ",
"U U U U U U U U n H.H.H.H.H.H.H.H.H.H.H.H.H.H.H.H.H.H.H.H.H.H.H.H.H.H.H.H.H.H.H.H.H.H.H.H.H.H.H.H.H.H.H.H.H.H.e T U U U U U U e ",
"/ T R / / T / / E H.H.H.H.H.H.H.H.H.H.H.H.H.H.H.H.H.H.H.H.H.H.H.H.H.H.H.H.H.H.H.H.H.H.H.H.H.H.H.H.H.H.H.H.H.H.f E / R R ^ E ` f ",
"/ > c } T m } T R H.H.H.H.H.H.H.H.H.H.H.H.H.H.H.H.H.H.H.H.H.H.H.H.H.H.H.H.H.H.H.H.H.H.H.H.H.H.H.H.H.H.H.H.H.H.d / ` M n R ` E d ",
"U c ` / J ' / U ' H.H.H.H.H.H.H.H.H.H.H.H.H.H.H.H.H.H.H.H.H.H.H.H.H.H.H.H.H.H.H.H.H.H.H.H.H.H.H.H.H.H.H.H.H.H.c M { U c d E ^ d ",
"U R / / E / / / ` H.H.H.H.H.H.H.H.H.H.H.H.H.H.H.H.H.H.H.H.H.H.H.H.H.H.H.H.H.H.H.H.H.H.H.H.H.H.H.H.H.H.H.H.H.H.c V ^ ^ B E ^ E f ",
"U / E / / / / / T H.H.H.H.H.H.H.H.H.H.H.H.H.H.H.H.H.H.H.H.H.H.H.H.H.H.H.H.H.H.H.H.H.H.H.H.H.H.H.H.H.H.H.H.H.H.f / / / / ` ^ ^ f "
};
