/* XPM */
static char *wall8[] = {
/* columns rows colors chars-per-pixel */
"64 64 151 2 ",
"   c #000000",
".  c #0A0C0B",
"X  c #030514",
"o  c #070C10",
"O  c #090E12",
"+  c #0F161C",
"@  c #131514",
"#  c #161815",
"$  c #10171E",
"%  c #1A1C1B",
"&  c #1E201F",
"*  c #161D26",
"=  c #181E25",
"-  c #1D2124",
";  c #17212A",
":  c #1B242C",
">  c #1E292F",
",  c #1F2932",
"<  c #242625",
"1  c #252827",
"2  c #23262F",
"3  c #262A29",
"4  c #2B2C2B",
"5  c #2E302F",
"6  c #252732",
"7  c #292732",
"8  c #262932",
"9  c #292B35",
"0  c #222E3A",
"q  c #2C2E39",
"w  c #2C3031",
"e  c #25313C",
"r  c #2D323B",
"t  c #353736",
"y  c #363837",
"u  c #31343D",
"i  c #363A39",
"p  c #3B3F3E",
"a  c #3B403E",
"s  c #273641",
"d  c #293642",
"f  c #2C3A46",
"g  c #2D3B48",
"h  c #323441",
"j  c #313E47",
"k  c #3C3F40",
"l  c #343D4B",
"z  c #3D4142",
"x  c #33414E",
"c  c #3B4149",
"v  c #344453",
"b  c #394653",
"n  c #374957",
"m  c #384956",
"M  c #37495A",
"N  c #3A4B5A",
"B  c #3E505E",
"V  c #3E4F61",
"C  c #3F5163",
"Z  c #414546",
"A  c #43464A",
"S  c #464A4D",
"D  c #4A4B4E",
"F  c #474A53",
"G  c #4A4E59",
"H  c #4D5155",
"J  c #42515D",
"K  c #515457",
"L  c #53575A",
"P  c #575B5E",
"I  c #585C5F",
"U  c #425363",
"Y  c #495764",
"T  c #445769",
"R  c #465A6C",
"E  c #495C6D",
"W  c #535561",
"Q  c #545B64",
"!  c #595C61",
"~  c #535E6E",
"^  c #475E70",
"/  c #485D70",
"(  c #565F70",
")  c #5D6164",
"_  c #5B606D",
"`  c #4D6476",
"'  c #4E6478",
"]  c #526374",
"[  c #596070",
"{  c #526679",
"}  c #52697D",
"|  c #5A6A7A",
" . c #63676A",
".. c #65696C",
"X. c #606672",
"o. c #686775",
"O. c #646B73",
"+. c #6A6E71",
"@. c #6C7073",
"#. c #6B737D",
"$. c #717576",
"%. c #72767A",
"&. c #74787B",
"*. c #787C7F",
"=. c #546D81",
"-. c #596F84",
";. c #567186",
":. c #5B7286",
">. c #577188",
",. c #5B768C",
"<. c #5C788E",
"1. c #5C7890",
"2. c #6D7480",
"3. c #717785",
"4. c #757A86",
"5. c #7A7C82",
"6. c #647E93",
"7. c #7D8085",
"8. c #7F8789",
"9. c #678095",
"0. c #7E8892",
"q. c #818689",
"w. c #868B8E",
"e. c #878F91",
"r. c #8A8F92",
"t. c #8D9396",
"y. c #8F9498",
"u. c #909599",
"i. c #95989D",
"p. c #979CA0",
"a. c #999CA1",
"s. c #9EA1A6",
"d. c #9DA2A8",
"f. c #A1A2A7",
"g. c #A1A6AA",
"h. c #A7ABB1",
"j. c #AAADB3",
"k. c #AFB2B7",
"l. c #B1B4BB",
"z. c #B6B9BE",
"x. c #B8BBC0",
"c. c #C7C8CC",
"v. c #CACBCF",
"b. c #CECFD3",
"n. c #CFD1D5",
"m. c #D2D1D7",
"M. c #D6D7DB",
"N. c #D7D8DC",
"B. c #DBDCDF",
"V. c #DDDEE2",
"C. c #FFFFFF",
/* pixels */
"8 8 9 8 8 9 9 9 9 9 9 u u u u u u u u u u u u u u u u u u u u u u u q 9 q q u q q r q 9 9 u r r r u q r r q u u u u 9 r u u u u ",
"9 9 8 8 8 8 2 8 8 9 8 9 u u u q 9 9 r q 9 u u u q w u u u u u u u A 4.4.4.4.3.3.#.#.2.#.3. .6 6 9 6 6 6 2 9 2 9 9 9 2 9 q u 9 u ",
"8 8 9 8 8 8 8 2 2 2 u u u r 6 8 8 9 q r u r u l U N / / / R N N U l c E h l N / / R { ~ ( X.6 9 8 8 9 2 9 2 9 9 u q 2 2 9 9 u q ",
"9 9 8 8 8 9 2 8 9 r u u u r 9 u u m ` <.,.<.` } d 6 / / / / / / E R f N N / E N $ <.<.<.,.} d 9 9 9 6 9 6 8 6 9 2 9 9 9 2 9 2 2 ",
"8 8 8 6 8 8 8 9 u q r r u 8 6 B ,.<.<.<.<.d U ,.=.o v ^ / / ^ / / / R / / / N * ` <.<.<.N v >.v r 3 8 8 8 2 9 9 8 8 9 q u r 9 u ",
"8 8 8 8 8 8 9 2 9 8 9 9 u c N * =.<.<.<.J n =.>.,.=.r R / U U ^ / R ` R d R M e =.<.` d s <.<.<.1.,.Y W  .o.o.c 8 8 u u r 9 9 2 ",
"9 8 8 8 8 9 2 9 2 9 8 q T / / N R <.<.<.<.>.N } <.>.g d N * , N N U ' N R l N <.<.<.<.<.,.<.<.<.1./ C U ( ( ( ! 9 u t r r 2 9 9 ",
"9 8 8 8 8 6 9 2 8 8 m ^ E / / / 2 U 6.<.<.<.<.<.<.<.,.b   N U n m ; N U / , } <.<.1.<.,.R <.,.,.R * C E / / _ ! u r u 9 9 r 9 u ",
"9 8 9 8 8 8 9 8 9 N / / / / / / U $ R 6.N d s d d <.<.;.e E / E / U R E f } <.<.<.<.` d ' <.<.R + U N N ` E N F r u u u u u u u ",
"9 8 8 8 q 9 8 8 Y E ^ R ^ / / R / U : 6 =.<.<.<.<.<.<.<.n 6 / E / / / } m ,.<.<.m d T <.<.,.` = U ^ ^ ^ R E N e q u u u u u u r ",
"7 8 8 9 r u r R / / / / / ^ / / N Y ! I P P P P I I I I Q P I I I I ! ! I I I I I ! P I I ! D g U / U U ^ ^ R ^ R l u u u r 9 8 ",
"9 q 9 8 8 9 : U / / / / / ^ { Q ) *.t.t.y.a.b.t.u.u.y.y.y.y.t.s.z.a.y.u.t.y.t.y.y.l.j.y.y.t.w.$.k N N n E ^ E ` E U 2 9 9 8 9 2 ",
"9 8 9 8 6 >.=.N , / / / / v S q.t.u.t.u.u.w.l.g.y.y.y.y.t.t.t.r.l.s.t.u.t.u.y.y.q.l.l.a.i.u.t.y.u.q.L N ^ ^ E E E 9 m e 2 2 8 8 ",
"7 9 9 6 } v >.,.M : T E N   L ! !  .) ) ! ! Z ) ) ) ) )  .I  .K p L  .! ) ! ) ) ) a A ! ) ! ) ) ) ! i 6 E E R d % m R { 9 9 2 8 ",
"8 6 2 m 1.>.U =.,.v 0 N o 1 i i i i A r.t.5.@ i i i 1 5.r.r. .y i i i y @.t.e.A i i i 1 +.r.t.I i i z 3 x T f g N E ` <.x 8 8 8 ",
"6 7 6 =.,.,.=.=.1.,.N y S 1 k k p p D u.t.q.@ k p a < q.t.t. .a k k k y 5.y.y.S a z p 1 +.u.t.) k a p 3  .f g } <.` ,.,.` 7 8 8 ",
"8 9 d ,.1.<.,.1.<.1.Z 5. .1 p p p a S y.y.q.@ p p p < q.y.t. .a p p p y *.y.u.D p p p < $.y.y.I p a p 3 e. .| <.<.<.<.<.<.e 9 9 ",
"9 9 { <.<.-.r E ;.,.! u.! < a a p a S y.y.q.@ a a p < q.y.y. .p a a p y *.y.y.S p p p < +.y.y. .p p p 3 t.q.  <.=.>.>.,.<.` 7 7 ",
"u u <.<.<.<.<.E v J 5.y.) < p p p p D u.y.q.@ p a p < q.y.y. .p p p p y 5.y.y.S p p p < +.y.t.I a p p 4 t.t.L 0.N v v ` <.;.2 2 ",
"u u R Y R R R R Y Z t.y.) 1 p p a p S u.y.q.@ a p p < q.y.y...p p a p y &.y.y.S p p p < $.y.t. .p p p 4 t.u.+.  C R R T R Y q q ",
"u X               Z t.y.! 1 p p p a S y.y.8.@ p a p < q.y.y. .a p a k y &.u.t.S p p a < +.y.i.I p a p < t.y.y.            . u h ",
"Y =.=.n . . . U } A ) )  .) ) ) ) ) ) ) ) ) ) ) ) )  .I ) ) ) ) ) ) ) ) ) )  .!  .I ) ) I  .!  .I  .+. .) ) ) m =.=.=.=.=.=.=.d ",
"Y   ; s =.1.,.R E +.y.u.a.v.z.y.y.y.y.y.y.a.m.f.y.y.y.y.y.y.y.u.M.k.y.y.y.y.y.u.y.c.N.i.y.y.y.y.y.y.z.v.y.y.y.v 0 d d d d 0 =.b ",
"v Y ` <.<.<.<.,.U +.u.u.5.f.p.y.y.y.y.y.t.w.j.y.y.y.y.y.t.y.y.5.h.s.y.y.y.t.y.y.y.s.j.y.y.t.y.y.t.r.t.i.y.y.y.d N 1.1.1.1.n     ",
"R 6.<.<.<.<.1.<.,.A ) ) ) ) ) ) ) ) ) ) ) ) ) ) ) ) ) ) ) ) ) ) ) ) ) ) ) ) ) )  .! ) !  .! I ) ) ) ) ) ) ) ! T 1.1.1.<.<.,.E f ",
"Y <.1.1.1.<.<.<.,.+.y.y.) 1 p p p a S y.y.q.@ p a k < q.y.y. .a p p p y 5.t.u.S p p p 1 +.y.t. .a p p 3 y.y.y.N <.<.<.<.<.<.<.N ",
"Y =.} ;.=.=.=.=.{ +.y.y.) < a k a p S y.u.q.@ p p a < q.y.u. .p k p p y &.y.y.S p p p < @.y.y.) p p a 4 t.y.y.v -.=.=.=.;.} =.n ",
"~                 +.y.y.) < p a p a S y.u.q.@ a p z < q.y.u. .p p p z y &.y.y.S p p p < @.y.y.) k a p 3 t.y.y.                  ",
"~ m N m R   0 n n @.y.y.) < p p z p S y.y.q.@ a p a < q.t.y. .p p a p y &.y.u.S p p a 1 @.y.y.) z a p 4 t.y.y.0 m N m f N m m e ",
"G / / } m R R 6 ` @.y.y.) < a p p p S y.y.q.@ p p p < q.t.y. .a a p p y &.u.y.S a p p 1 @.y.y.) p p p 4 y.y.y.g E 0 , * U ^ E g ",
"O./ R e : / / / R +.y.y.) < a a a a S y.y.q.@ p k p 1 q.u.u. .p p p p y &.y.u.S a p a < @.y.y.) a a p 4 t.y.y.$ , ^ E v o ^ ^ g ",
"U / C : x / / / T +.y.y.) < a a p p S y.y.q.@ p a p 1 q.y.y. .p a p p u &.y.y.S a p a < @.y.y.) p a p 4 t.y.y.g E / ^ ' e N ^ g ",
"U / ^ U n R ^ ^ R L $.%.D # 5 5 4 t i $.$.... 5 t 4 % +.%.$.H 5 5 5 5 4 I $.&.i 9 5 5 % L $.$.D 5 5 5 < &.@.&.g E ` ^ R C N / g ",
"U / / ^ ^ ` E ^ R ) q.q.q.q.q.q.q.q.q.q.q.q.q.q.7.q.q.q.q.q.q.q.q.q.q.q.q.q.q.q.q.q.q.q.q.q.q.q.q.q.q.q.q.q.q.g ^ E ^ R / / / g ",
"J U U U U U U U U +.y.y.a.n.k.y.t.t.y.y.u.a.V.a.y.y.t.u.u.u.t.i.B.l.y.y.y.y.t.y.t.b.B.i.u.y.y.y.y.y.n.v.y.y.y.s U U U U U U U s ",
"v N N N N N N N m +.y.y.w.f.i.y.u.u.y.t.t.t.g.y.y.y.y.y.y.t.t.e.u.i.u.y.t.y.y.y.t.t.f.i.y.y.y.y.y.t.a.a.y.y.y.e N N N N N N N 0 ",
">.<.<.` ;.<.<.<.,.Z P P i # < < < 1 4 I P H . < < 1 @ K Q I a 1 < < < & S I I 4 < < < # Z I I i < < < # Q I ! N <.<.<.<.1.,.<.N ",
",.6.6.} >.9.9.,.,.+.y.y.) < p p p p D t.t.q.@ p a p 1 q.y.y. .a a p a y *.y.t.D p p p < @.u.t.) a a p 4 t.y.y.n <.<.` d f m 1.N ",
"<.<.<.<.<.<.<.<.,.+.u.y.) 1 p a p p S t.t.q.# p p p 1 q.y.y. .z p p p y *.u.u.S z p p < @.y.y.) a p p 4 t.y.y.N <.<.<.,.,.;.r ; ",
"<.<.<.<.<.<.<.,.,.+.y.y.) < p p p p S y.t.q.@ p p p < q.t.y. .p p a p y *.t.u.S p p p < @.t.y.) p a a 4 t.y.y.N <.<.<.<.<.<.1.N ",
",.<.1.<.<.<.<.<.,...u.y.) < a p p p S y.y.q.@ a p p < q.y.y. .a p p p y *.y.y.S p p p 1 @.u.u.) a p p 4 y.u.u.N <.<.<.<.<.<.<.N ",
"<.<.<.1.<.<.<.<.,.+.y.y.) < p p a p S y.u.q.@ a p a < 8.y.y. .p a p a y *.y.y.S p p p 1 +.u.y.) a p p 3 r.u.y.N <.<.<.<.<.1.<.N ",
"r d r r e e r r r +.t.t.) < p p p p S y.y.q.@ a p p < q.y.y. .p p p p y &.u.y.S p p p < @.t.u.! z p p 1 y.y.u.* r r d r r e r ; ",
"T ^ ^ ^ ^ ` R ` R C.C.C.C.C.C.C.C.C.C.C.C.C.C.C.C.C.C.C.C.C.C.C.C.C.C.C.C.C.C.C.C.C.C.C.C.C.C.C.C.C.C.C.C.C.C.g E ^ ^ ^ ` R ` g ",
"/ ^ ^ ^ ^ R R ` R C.C.C.C.C.C.C.C.C.C.C.C.C.C.C.C.C.C.C.C.C.C.C.C.C.C.C.C.C.C.C.C.C.C.C.C.C.C.C.C.C.C.C.C.C.C.g / / / ^ ` ` R f ",
"R ^ / / E ` ^ ^ R C.C.C.C.C.C.C.C.C.C.C.C.C.C.C.C.C.C.C.C.C.C.C.C.C.C.C.C.C.C.C.C.C.C.C.C.C.C.C.C.C.C.C.C.C.C.d ^ / / ^ R R ^ g ",
"} U , N ` C , n R C.C.C.C.C.C.C.C.C.C.C.C.C.C.C.C.C.C.C.C.C.C.C.C.C.C.C.C.C.C.C.C.C.C.C.C.C.C.C.C.C.C.C.C.C.C.g ,./ ^ ^ ^ =., + ",
"g d ^ ^ v d ^ ^ T C.C.C.C.C.C.C.C.C.C.C.C.C.C.C.C.C.C.C.C.C.C.C.C.C.C.C.C.C.C.C.C.C.C.C.C.C.C.C.C.C.C.C.C.C.C.g / =., , , ^ ^ g ",
"E ^ / / / ^ / R R C.C.C.C.C.C.C.C.C.C.C.C.C.C.C.C.C.C.C.C.C.C.C.C.C.C.C.C.C.C.C.C.C.C.C.C.C.C.C.C.C.C.C.C.C.C.f ^ ^ ' ` / / / g ",
"T ^ / / ^ ^ / / R C.C.C.C.C.C.C.C.C.C.C.C.C.C.C.C.C.C.C.C.C.C.C.C.C.C.C.C.C.C.C.C.C.C.C.C.C.C.C.C.C.C.C.C.C.C.g ^ E / ^ / / E g ",
", , , , , , , , > C.C.C.C.C.C.C.C.C.C.C.C.C.C.C.C.C.C.C.C.C.C.C.C.C.C.C.C.C.C.C.C.C.C.C.C.C.C.C.C.C.C.C.C.C.C.+ , , , , , , 6 $ ",
"<.6.<.<.<.6.<.<.,.C.C.C.C.C.C.C.C.C.C.C.C.C.C.C.C.C.C.C.C.C.C.C.C.C.C.C.C.C.C.C.C.C.C.C.C.C.C.C.C.C.C.C.C.C.C.N 1.<.<.<.<.<.<.N ",
"<.6.1.<.<.9.<.<.>.C.C.C.C.C.C.C.C.C.C.C.C.C.C.C.C.C.C.C.C.C.C.C.C.C.C.C.C.C.C.C.C.C.C.C.C.C.C.C.C.C.C.C.C.C.C.N <.<.=.=.<.<.<.N ",
"R 1.,.>.R <.<.1.;.C.C.C.C.C.C.C.C.C.C.C.C.C.C.C.C.C.C.C.C.C.C.C.C.C.C.C.C.C.C.C.C.C.C.C.C.C.C.C.C.C.C.C.C.C.C.N <.<.;.=.<.<.<.N ",
"` <.<.=.` 1.1.<.>.C.C.C.C.C.C.C.C.C.C.C.C.C.C.C.C.C.C.C.C.C.C.C.C.C.C.C.C.C.C.C.C.C.C.C.C.C.C.C.C.C.C.C.C.C.C.N <.<.<.U d n ' ; ",
"<.<.<.<.,.,.<.<.,.C.C.C.C.C.C.C.C.C.C.C.C.C.C.C.C.C.C.C.C.C.C.C.C.C.C.C.C.C.C.C.C.C.C.C.C.C.C.C.C.C.C.C.C.C.C.N <.<.<.<.N <.<.N ",
"<.1.<.<.<.1.<.,.,.C.C.C.C.C.C.C.C.C.C.C.C.C.C.C.C.C.C.C.C.C.C.C.C.C.C.C.C.C.C.C.C.C.C.C.C.C.C.C.C.C.C.C.C.C.C.V 1.<.<.<.<.<.<.N ",
"l N N N N N N N n C.C.C.C.C.C.C.C.C.C.C.C.C.C.C.C.C.C.C.C.C.C.C.C.C.C.C.C.C.C.C.C.C.C.C.C.C.C.C.C.C.C.C.C.C.C.e N N N N N N N e ",
"C U U U Y U U U N C.C.C.C.C.C.C.C.C.C.C.C.C.C.C.C.C.C.C.C.C.C.C.C.C.C.C.C.C.C.C.C.C.C.C.C.C.C.C.C.C.C.C.C.C.C.r U U U U C C U r ",
"^ R R ^ R R / E R C.C.C.C.C.C.C.C.C.C.C.C.C.C.C.C.C.C.C.C.C.C.C.C.C.C.C.C.C.C.C.C.C.C.C.C.C.C.C.C.C.C.C.C.C.C.g / / E R / E ` g ",
"^ , n } R v } R U C.C.C.C.C.C.C.C.C.C.C.C.C.C.C.C.C.C.C.C.C.C.C.C.C.C.C.C.C.C.C.C.C.C.C.C.C.C.C.C.C.C.C.C.C.C.g R ` N N T E ` d ",
"U v ` ^ V ' / U ` C.C.C.C.C.C.C.C.C.C.C.C.C.C.C.C.C.C.C.C.C.C.C.C.C.C.C.C.C.C.C.C.C.C.C.C.C.C.C.C.C.C.C.C.C.C.x N { U v x E ^ f ",
"U R / R E ^ / E ` C.C.C.C.C.C.C.C.C.C.C.C.C.C.C.C.C.C.C.C.C.C.C.C.C.C.C.C.C.C.C.C.C.C.C.C.C.C.C.C.C.C.C.C.C.C.v C / / C / ^ E g ",
"U / ^ / ^ / / E R C.C.C.C.C.C.C.C.C.C.C.C.C.C.C.C.C.C.C.C.C.C.C.C.C.C.C.C.C.C.C.C.C.C.C.C.C.C.C.C.C.C.C.C.C.C.g / / ^ ^ ` ^ ^ f "
};
