/* XPM */
static char *wall9[] = {
/* columns rows colors chars-per-pixel */
"64 64 150 2 ",
"   c #000000",
".  c #0A0C0B",
"X  c #030514",
"o  c #070C10",
"O  c #090E12",
"+  c #0F161C",
"@  c #131514",
"#  c #161815",
"$  c #10171E",
"%  c #1A1C1B",
"&  c #1E201F",
"*  c #161D26",
"=  c #181E25",
"-  c #1D2124",
";  c #17212A",
":  c #1B242C",
">  c #1E292F",
",  c #1F2932",
"<  c #242625",
"1  c #262827",
"2  c #23262F",
"3  c #262A29",
"4  c #2B2C2C",
"5  c #2E302F",
"6  c #252732",
"7  c #292732",
"8  c #262932",
"9  c #292B35",
"0  c #222E3A",
"q  c #2C2E39",
"w  c #2C3031",
"e  c #25313C",
"r  c #2D323B",
"t  c #343635",
"y  c #363837",
"u  c #31343D",
"i  c #363A39",
"p  c #3B3E3E",
"a  c #3B403E",
"s  c #273641",
"d  c #293642",
"f  c #2C3A46",
"g  c #2D3B48",
"h  c #323441",
"j  c #313E47",
"k  c #3C3F40",
"l  c #343D4B",
"z  c #3F4144",
"x  c #33414E",
"c  c #3B4149",
"v  c #344453",
"b  c #394653",
"n  c #374957",
"m  c #384956",
"M  c #37495A",
"N  c #3A4B5A",
"B  c #3E505E",
"V  c #3E4F61",
"C  c #3F5163",
"Z  c #414546",
"A  c #43464A",
"S  c #464A4D",
"D  c #4A4B4E",
"F  c #474A53",
"G  c #4A4E59",
"H  c #4D5155",
"J  c #42515D",
"K  c #515457",
"L  c #53575A",
"P  c #575B5E",
"I  c #585C5F",
"U  c #425363",
"Y  c #495764",
"T  c #445769",
"R  c #465A6C",
"E  c #495C6D",
"W  c #535561",
"Q  c #545B64",
"!  c #595C61",
"~  c #535E6E",
"^  c #475E70",
"/  c #485D70",
"(  c #565F70",
")  c #5D6164",
"_  c #5B606D",
"`  c #4D6476",
"'  c #4E6478",
"]  c #526374",
"[  c #596070",
"{  c #526679",
"}  c #52697D",
"|  c #5A6A7A",
" . c #63676A",
".. c #65696C",
"X. c #606672",
"o. c #686775",
"O. c #646B73",
"+. c #6A6E71",
"@. c #6C7073",
"#. c #6B737D",
"$. c #717576",
"%. c #72767A",
"&. c #787C7F",
"*. c #546D81",
"=. c #596F84",
"-. c #567186",
";. c #5B7286",
":. c #577188",
">. c #5B768C",
",. c #5C788E",
"<. c #5C7890",
"1. c #6D7480",
"2. c #717785",
"3. c #757A86",
"4. c #7A7D83",
"5. c #647E93",
"6. c #7D8085",
"7. c #7F8789",
"8. c #678095",
"9. c #7E8892",
"0. c #818689",
"q. c #868B8E",
"w. c #878F91",
"e. c #8A8F92",
"r. c #8D9396",
"t. c #8F9498",
"y. c #909599",
"u. c #95989D",
"i. c #979CA0",
"p. c #999CA1",
"a. c #9EA1A6",
"s. c #9DA2A8",
"d. c #A1A2A7",
"f. c #A1A6AA",
"g. c #A7ABB1",
"h. c #AAADB3",
"j. c #AFB2B7",
"k. c #B1B4BB",
"l. c #B6B9BE",
"z. c #B8BBC0",
"x. c #C7C8CC",
"c. c #CACBCF",
"v. c #CECFD3",
"b. c #CFD1D5",
"n. c #D2D1D7",
"m. c #D6D7DB",
"M. c #D7D8DC",
"N. c #DBDCDF",
"B. c #DDDEE2",
"V. c #FFFFFF",
/* pixels */
"8 8 9 8 8 9 9 9 9 9 9 u u u u u u u u u u u u u u t u u h u u u u r q q q q q q r q q 9 9 u r r r r q r r r 9 u u u 9 9 u u u r ",
"9 9 8 8 8 8 2 8 8 9 8 9 u u u q 9 q q q 9 u u u q q u u i u u u h A 3.4.3.3.2.2.1.#.1.#.2. .6 9 7 9 6 6 8 8 8 9 9 9 8 9 r u 9 u ",
"8 8 9 8 8 8 8 2 2 2 u u u r 6 8 6 9 r r u r u j U N / / E T N N U l b E h l N / / T { ( ( X.9 9 8 8 9 6 8 8 6 9 r 9 8 8 8 9 u q ",
"9 9 8 8 8 9 2 8 9 r u u u r 9 u u m ` ,.,.>.` } s 6 / / / / / / E T d N N / / N $ ,.,.,.,.{ s 6 9 9 8 8 6 6 9 q 9 9 8 8 8 8 8 8 ",
"8 8 8 6 8 8 8 9 u q r r u 8 6 B >.,.>.,.,.d U >.*.O v E / / E / / ^ R E / / N * ` ,.,.,.M v -.v r 2 9 2 4 8 9 9 9 8 9 q r q q r ",
"8 8 8 8 8 8 9 2 9 8 9 9 u c N * -.>.,.,.J M *.;.,.*.d E / U U / / E ` R d T N e } ,.` d d ,.,.,.,.,.T W _ o.o.k 2 8 u u u 9 9 4 ",
"9 8 8 8 8 9 2 9 2 9 8 q T / / N R >.,.,.,.;.N } ,.*.g d M * 0 N N C { N R x N >.,.,.,.,.,.,.,.,.,.E C U ( ( ( ! 9 u u u q 9 8 9 ",
"9 8 8 8 8 6 9 2 2 8 m ^ E / / / 6 T ,.,.,.,.,.,.,.,.>.m   N U v N * N U / , } <.,.,.,.,.T ,.,.,.R * C E / ~ _ ! r u r 9 9 q 9 r ",
"9 8 9 8 8 6 9 8 9 J / / / / R ^ T @ R 5.N d d s d ,.,.;.e ^ / / / U T / d *.>.>.,.,.' s ` ,.,.T + U N N ^ E J F r u u u u u u u ",
"9 8 8 8 q 9 8 8 T E / E / / / / E U : 0 } ,.,.,.<.,.,.,.n 6 / E E / ` } m ,.,.,.N s T ,.,.,.` = C / ^ E E E N 0 q u u u u u u r ",
"7 8 8 9 r u r R E / / / / ^ / / N Y I P I I I I I I I I I I I ! I ! ! L I P I I I ! I I I ! S g U / U U ^ ^ ^ / R l u u i r 9 8 ",
"9 q 9 8 8 9 : U / / / / ^ ^ ' Q ! &.t.r.t.p.c.t.t.t.t.t.t.t.r.d.l.p.y.y.t.y.r.t.t.j.j.t.y.r.q.%.k N N N ^ ^ / / E U 2 9 9 2 9 8 ",
"7 9 8 8 6 :.*.N 0 / / / / x S 0.r.r.r.t.t.q.l.f.t.t.t.t.y.t.t.e.k.s.t.t.t.t.t.t.0.k.k.u.y.y.r.r.y.0.K N / / / E / w v r 6 6 8 8 ",
"9 9 9 6 *.v -.,.M = T E N   L ! I  . .) ! ! Z ! ) ) ) ) ) I ! K a L  .! ) ! ) ) ) a Z  .) ) ) ) ) ) u 0 / ^ R s % n R { 7 6 6 8 ",
"6 6 6 m ,.*.U *.<.l 0 M o < p p p u A e.r.4.@ i p i < 4.e.e. .i p i i t +.e.e.A i p u < +.e.e.I i y p 1 l T f f N E ` ,.v 8 8 8 ",
"8 9 6 } <.<.*.*.<.>.M i S < p p p p S t.t.0.@ k p a < 0.t.t. .a p p k y 4.y.r.D p a a < +.y.y.) p a p 4 ..d f *.,.` ,.,./ 6 8 8 ",
"9 2 d <.,.,.,.,.,.<.Z 4.) < a p p a S t.t.0.@ a p p < 0.r.r. .a a p p y 4.t.t.D a p p < @.y.r.) a a a 1 e. .| <.>.<.>.,.,.r 8 8 ",
"9 q { ,.,.=.r R :.;.) y.) < a p p a S t.t.0.@ a a p < 0.y.r. .a p p a y &.t.t.S p p a < @.y.r.) a a a 1 e.7.  >.-.-.-.>.,.' 7 9 ",
"u u ,.,.<.<.,.E v J 4.t.) < a p p p S y.t.0.@ p a p < 0.r.y. .a p p p y 4.r.y.S a p p < @.r.t.) a p a 4 t.r.L w.N v v ` ,.:.9 2 ",
"i u T T T T R R Y Z r.t.) < z p a p S t.t.0.@ a p a < 0.y.r...a p z p i %.t.r.S p a a < @.y.y.) p a a 4 r.t.o.  C R R T E T q 9 ",
"u X               Z r.t.) < p p p p S t.t.7.@ a a p < 0.t.t. .a p a p y %.t.t.S p a p < +.y.y.) p p p 1 e.y.y.            . u h ",
"Y *.*.M . . . U } A ) ) ) ) ) ) ) ) ) ) ) ) ) ) )  .) ) ) ) ) ) ) ) ) )  .! ) ) ) ) ) ) !  .) ) ) ) .. .) ) ! m *.*.*.*.*.*.*.d ",
"Y   * d *.<.5.U / +.y.y.a.x.l.t.t.t.t.t.t.p.n.d.y.r.r.r.t.t.t.y.m.j.t.t.t.t.t.t.r.c.M.p.r.y.t.t.t.t.l.c.y.t.t.v 0 d d d d 0 *.b ",
"v Y ` ,.,.,.,.,.U +.y.y.4.a.i.t.t.t.t.t.r.q.h.t.y.r.y.r.r.t.t.4.g.a.t.t.t.y.t.y.r.s.g.y.y.r.r.t.y.e.e.p.y.y.t.d C >.,.<.<.M     ",
"E 5.,.,.,.,.<.,.>.A ) ) ) ) ) ) ) ) ) ) ) ) ) ) ) ) ) ) ) ) ) ) ) ) ) ) ) ) ) )  .! ) ) ) ) ) ) ) ) ) ) ) ) ! T >.<.,.,.>.>.E g ",
"Y ,.<.>.,.,.,.,.>.+.t.t.) < z p a p S t.t.0.@ p z p < 0.t.t. .p p p p y 4.t.t.S a p p < +.y.r.) p p z 3 t.t.t.N ,.,.,.<.<.,.>.N ",
"Y *.*.*.*.*.*.*.{ +.t.t.) < a p p p S t.y.0.@ a p z < 7.t.y. .p p a p y %.t.t.S k p a < +.r.y.) p a a 4 r.t.t.v *.*.*.*.-.} -.n ",
"~                 +.t.t.) < p a a z S t.y.0.@ p p p < 7.y.y. .p p p k y &.y.t.S a p p < @.y.y.) p p p 3 r.t.t.                  ",
"~ m N m R   0 M n @.t.t.) < p p a p S t.t.0.@ a p p < 0.t.t. .a p a a y %.t.y.S p p a < @.y.r.) a a p 3 r.t.t.e m N n d N m m e ",
"G ^ / } m R R 6 ` @.t.t.) < a p a p S t.t.0.@ p p p < 0.r.y. .p p p p u %.y.t.S a p p < @.r.r.) a p z 3 r.t.t.g E 0 > ; U ^ / f ",
"O./ R e : / / / R +.t.t.) < a a p p S t.t.0.@ a a a < 0.t.y. .a a p p i %.t.y.S a p p < @.y.r. .a a a 4 r.t.t.$ 6 ^ E v O / / g ",
"U / C : x / / / T +.t.t.) < a a p a S t.t.0.@ p p p < 0.t.t. .a a p p t &.t.t.S a p p < $.r.r.) p a a 4 r.t.t.g E ^ ^ ' e N / f ",
"C E ^ C M R ^ E T K %.%.D % 5 5 5 5 y %.%.... 5 5 5 % +.%.%.H w 5 5 5 4 ! %.%.i 4 5 5 % L %.%.S 5 5 5 < %.%.%.f E ` ^ R C N / g ",
"U ` E ^ E ` R ` R ) 0.0.0.0.0.0.0.0.0.0.0.0.0.0.0.0.0.0.0.0.0.0.0.0.0.0.0.0.0.0.0.0.0.0.0.0.0.7.0.0.0.7.0.0.7.f ^ / ^ E E ^ / g ",
"J U C U C C C U J @.t.t.a.b.j.r.t.t.t.t.r.p.B.p.t.t.t.t.t.r.t.y.N.k.r.r.y.y.r.r.r.n.N.u.t.t.t.t.r.t.b.c.t.t.t.d U U U U U U U s ",
"v N B N N N N N m +.t.t.q.a.y.t.t.t.t.t.t.r.f.t.t.t.t.t.t.y.t.q.y.u.y.r.r.y.r.y.t.r.d.y.y.t.t.t.y.t.u.p.t.t.t.e N N N N N N N 0 ",
"-.>.>.` -.>.,.,.>.Z I I y # < < < < 4 I I H . < < < @ K ! I z < < < 1 & D I I 5 < < < # Z P P i < < 1 # I I L N ,.,.,.,.<.,.,.N ",
">.5.8.} >.8.8.>.>.+.t.t.) < p a p p D r.r.7.@ p a a < 0.t.t. .a a a a y &.r.t.S p p p < @.t.y.) a a a 4 t.t.t.N ,.,.' s d N <.N ",
",.,.,.,.,.,.,.,.:.+.t.t.) < a a a p S r.t.0.# a a p < 0.t.t. .k p a a y &.r.r.S z p p < @.y.t.) a p p 3 r.t.t.N ,.,.,.>.>.*.r : ",
",.,.,.,.>.,.,.,.>.@.t.t.) < p i p p S t.r.0.@ p p a < 0.r.t. .p p p a y &.y.r.S p p p < +.t.t.) p a z 3 r.t.t.N ,.,.,.,.,.>.<.N ",
",.>.<.,.,.,.,.,.>.V.V.V.V.V.V.V.V.V.V.V.V.V.V.V.V.V.V.V.V.V.V.V.V.V.V.V.V.V.V.V.V.V.V.V.V.V.V.V.V.V.V.V.V.V.V.N ,.>.<.>.<.,.,.N ",
"<.>.,.,.,.,.,.,.>.V.V.V.V.V.V.V.V.V.V.V.V.V.V.V.V.V.V.V.V.V.V.V.V.V.V.V.V.V.V.V.V.V.V.V.V.V.V.V.V.V.V.V.V.V.V.N ,.,.<.>.,.<.,.N ",
"r s r e e e r r r V.V.V.V.V.V.V.V.V.V.V.V.V.V.V.V.V.V.V.V.V.V.V.V.V.V.V.V.V.V.V.V.V.V.V.V.V.V.V.V.V.V.V.V.V.V.* r r s r r e r ; ",
"C ` ` ^ ^ ` R ` R V.V.V.V.V.V.V.V.V.V.V.V.V.V.V.V.V.V.V.V.V.V.V.V.V.V.V.V.V.V.V.V.V.V.V.V.V.V.V.V.V.V.V.V.V.V.g ` E ^ ^ ` E ^ x ",
"^ ^ ^ ^ ` ^ E ^ T V.V.V.V.V.V.V.V.V.V.V.V.V.V.V.V.V.V.V.V.V.V.V.V.V.V.V.V.V.V.V.V.V.V.V.V.V.V.V.V.V.V.V.V.V.V.g / / / ^ ^ ` R f ",
"E ^ ^ ^ R E R ` R V.V.V.V.V.V.V.V.V.V.V.V.V.V.V.V.V.V.V.V.V.V.V.V.V.V.V.V.V.V.V.V.V.V.V.V.V.V.V.V.V.V.V.V.V.V.d / / / / ^ E ^ g ",
"} C , M ` U , M T V.V.V.V.V.V.V.V.V.V.V.V.V.V.V.V.V.V.V.V.V.V.V.V.V.V.V.V.V.V.V.V.V.V.V.V.V.V.V.V.V.V.V.V.V.V.g *./ / / ^ } , + ",
"d d E ^ n d ^ ^ R V.V.V.V.V.V.V.V.V.V.V.V.V.V.V.V.V.V.V.V.V.V.V.V.V.V.V.V.V.V.V.V.V.V.V.V.V.V.V.V.V.V.V.V.V.V.g / *.s , , ^ ^ g ",
"/ / / E ^ ^ ^ ^ T V.V.V.V.V.V.V.V.V.V.V.V.V.V.V.V.V.V.V.V.V.V.V.V.V.V.V.V.V.V.V.V.V.V.V.V.V.V.V.V.V.V.V.V.V.V.f ^ ^ ' ' ` ^ ^ g ",
"E ^ E ^ R ` ^ ^ R V.V.V.V.V.V.V.V.V.V.V.V.V.V.V.V.V.V.V.V.V.V.V.V.V.V.V.V.V.V.V.V.V.V.V.V.V.V.V.V.V.V.V.V.V.V.g ^ E / / E E E g ",
", , , , , , , , > V.V.V.V.V.V.V.V.V.V.V.V.V.V.V.V.V.V.V.V.V.V.V.V.V.V.V.V.V.V.V.V.V.V.V.V.V.V.V.V.V.V.V.V.V.V.+ , , , , , , , $ ",
"<.5.<.>.,.8.>.,.:.V.V.V.V.V.V.V.V.V.V.V.V.V.V.V.V.V.V.V.V.V.V.V.V.V.V.V.V.V.V.V.V.V.V.V.V.V.V.V.V.V.V.V.V.V.V.N <.>.<.>.>.>.<.N ",
">.8.,.>.,.8.,.,.:.V.V.V.V.V.V.V.V.V.V.V.V.V.V.V.V.V.V.V.V.V.V.V.V.V.V.V.V.V.V.V.V.V.V.V.V.V.V.V.V.V.V.V.V.V.V.N <.,.-.} <.,.,.N ",
"T <.>.>.T ,.>.<.>.V.V.V.V.V.V.V.V.V.V.V.V.V.V.V.V.V.V.V.V.V.V.V.V.V.V.V.V.V.V.V.V.V.V.V.V.V.V.V.V.V.V.V.V.V.V.N ,.,.} *.,.,.,.N ",
"' >.>.-.` ,.<.,.-.V.V.V.V.V.V.V.V.V.V.V.V.V.V.V.V.V.V.V.V.V.V.V.V.V.V.V.V.V.V.V.V.V.V.V.V.V.V.V.V.V.V.V.V.V.V.N ,.,.,.T d N ' ; ",
">.<.<.<.<.,.,.,.:.V.V.V.V.V.V.V.V.V.V.V.V.V.V.V.V.V.V.V.V.V.V.V.V.V.V.V.V.V.V.V.V.V.V.V.V.V.V.V.V.V.V.V.V.V.V.N ,.,.,.,.m ,.<.N ",
">.<.<.>.,.,.,.,.>.V.V.V.V.V.V.V.V.V.V.V.V.V.V.V.V.V.V.V.V.V.V.V.V.V.V.V.V.V.V.V.V.V.V.V.V.V.V.V.V.V.V.V.V.V.V.V <.,.,.,.,.,.>.N ",
"v N N N N N N N n V.V.V.V.V.V.V.V.V.V.V.V.V.V.V.V.V.V.V.V.V.V.V.V.V.V.V.V.V.V.V.V.V.V.V.V.V.V.V.V.V.V.V.V.V.V.e N N N N N N N e ",
"U U U U U U U U N V.V.V.V.V.V.V.V.V.V.V.V.V.V.V.V.V.V.V.V.V.V.V.V.V.V.V.V.V.V.V.V.V.V.V.V.V.V.V.V.V.V.V.V.V.V.r T U U U B C U r ",
"E R R / E R / / R V.V.V.V.V.V.V.V.V.V.V.V.V.V.V.V.V.V.V.V.V.V.V.V.V.V.V.V.V.V.V.V.V.V.V.V.V.V.V.V.V.V.V.V.V.V.g ^ E E R ` ` E x ",
"^ , n } T v } R T V.V.V.V.V.V.V.V.V.V.V.V.V.V.V.V.V.V.V.V.V.V.V.V.V.V.V.V.V.V.V.V.V.V.V.V.V.V.V.V.V.V.V.V.V.V.g ^ ` N M T ^ E g ",
"C v ` E U ` / U ` V.V.V.V.V.V.V.V.V.V.V.V.V.V.V.V.V.V.V.V.V.V.V.V.V.V.V.V.V.V.V.V.V.V.V.V.V.V.V.V.V.V.V.V.V.V.x N { U v f E ^ g ",
"U R ^ / E ^ / E ` V.V.V.V.V.V.V.V.V.V.V.V.V.V.V.V.V.V.V.V.V.V.V.V.V.V.V.V.V.V.V.V.V.V.V.V.V.V.V.V.V.V.V.V.V.V.v V ^ ^ C R ` E g ",
"U / ^ ^ / / / E T V.V.V.V.V.V.V.V.V.V.V.V.V.V.V.V.V.V.V.V.V.V.V.V.V.V.V.V.V.V.V.V.V.V.V.V.V.V.V.V.V.V.V.V.V.V.g / / ^ E ` E ^ g "
};
