/* XPM */
static char *wall15[] = {
/* columns rows colors chars-per-pixel */
"64 64 127 2 ",
"   c #000000",
".  c #0A0B0C",
"X  c #030514",
"o  c #070C10",
"O  c #090E12",
"+  c #0E151D",
"@  c #131514",
"#  c #10171E",
"$  c #1A1C1B",
"%  c #161D26",
"&  c #181E25",
"*  c #17212A",
"=  c #1B242C",
"-  c #1E292F",
";  c #1F2932",
":  c #242625",
">  c #262827",
",  c #23262F",
"<  c #262A2A",
"1  c #2A2B2B",
"2  c #252732",
"3  c #292732",
"4  c #262932",
"5  c #292B35",
"6  c #222E3A",
"7  c #2C2E39",
"8  c #2C3031",
"9  c #24313C",
"0  c #2D323B",
"q  c #343635",
"w  c #363836",
"e  c #31343D",
"r  c #3A3E3D",
"t  c #3B403E",
"y  c #263741",
"u  c #293642",
"i  c #2C3A46",
"p  c #2D3B48",
"a  c #323441",
"s  c #313E47",
"d  c #3B3F40",
"f  c #343D4B",
"g  c #3E4143",
"h  c #33414E",
"j  c #3B4149",
"k  c #344453",
"l  c #394653",
"z  c #374957",
"x  c #394956",
"c  c #374959",
"v  c #3A4B5B",
"b  c #3E505E",
"n  c #3E4F61",
"m  c #3F5163",
"M  c #414546",
"N  c #43464A",
"B  c #464A4D",
"V  c #474A53",
"C  c #4A4E59",
"Z  c #41515D",
"A  c #515457",
"S  c #53575A",
"D  c #575B5E",
"F  c #585C5F",
"G  c #425363",
"H  c #495764",
"J  c #445769",
"K  c #465A6C",
"L  c #495C6D",
"P  c #535561",
"I  c #545B64",
"U  c #595B61",
"Y  c #535E6E",
"T  c #475E70",
"R  c #485D70",
"E  c #565F70",
"W  c #5D6164",
"Q  c #5B606D",
"!  c #4D6476",
"~  c #4E6478",
"^  c #526374",
"/  c #596070",
"(  c #526679",
")  c #52697D",
"_  c #5A6A79",
"`  c #606467",
"'  c #62676A",
"]  c #65696C",
"[  c #606672",
"{  c #686775",
"}  c #646B73",
"|  c #696C71",
" . c #6C7073",
".. c #6B737D",
"X. c #73767B",
"o. c #787C7F",
"O. c #546D81",
"+. c #596F84",
"@. c #567186",
"#. c #5A7186",
"$. c #57748A",
"%. c #5B768C",
"&. c #5C788E",
"*. c #5C7890",
"=. c #6D7480",
"-. c #717785",
";. c #757A86",
":. c #7A7C83",
">. c #647E93",
",. c #7D8087",
"<. c #678095",
"1. c #7E8892",
"2. c #818689",
"3. c #868B8E",
"4. c #878F91",
"5. c #8A8F92",
"6. c #8D9296",
"7. c #8F9498",
"8. c #909599",
"9. c #999CA1",
"0. c #9FA2A7",
"q. c #A1A6AA",
"w. c #AAADB4",
"e. c #B2B5BC",
"r. c #B5B8BD",
"t. c #CACBCF",
"y. c #FFFFFF",
/* pixels */
"4 4 5 4 4 5 5 5 5 5 7 0 e e e e e e e e e e e e e q e e e e e e e 0 5 7 7 7 7 e 0 7 7 5 5 e 0 0 0 0 0 7 7 7 0 7 e e 5 5 e e e e ",
"5 5 4 4 4 , , 4 , 5 1 5 e e 7 7 5 5 0 7 7 e e e 7 7 e e e e e e e N ;.;.;.;.-.-.=...=...-.' 5 4 3 2 2 5 4 4 5 5 5 5 , 5 0 e 5 e ",
"4 4 5 4 4 5 4 , 5 , 0 e e e 5 4 4 5 5 0 0 0 e f G v R R L J Z v G f l Y a f c R R J ( ^ Y [ 5 5 4 4 2 4 4 4 4 3 e 5 4 4 4 5 e 5 ",
"5 4 5 4 4 5 , 4 5 0 e e e 0 5 0 e v ^ &.&.%.! ( u ; R R R R R R R J u v v R R c # &.&.&.&.( u 2 5 5 , 5 4 4 4 5 5 5 5 4 4 4 4 5 ",
"4 4 4 2 4 4 5 5 e 0 0 0 e 5 2 Z %.&.&.&.&.u G %.O.O k R R R R L R R K R R R v % ! &.&.&.l k @.k 0 < 2 4 4 4 5 5 4 4 5 7 0 5 e 0 ",
"4 4 4 4 4 4 , 5 5 4 4 5 e h v % O.&.&.&.Z z O.%.&.O.u J R G G R R L ! K u H z y O.&.! u u &.&.&.&.&.H P ' { { M 2 5 e e 0 5 5 5 ",
"5 4 4 4 4 2 5 , 2 4 5 5 J R R v K %.&.&.&.$.v ) &.+.p i v % ; c v m ( v J k v *.%.&.&.&.&.&.&.&.*.R G G E E E U 5 e e 0 5 1 , 5 ",
"5 4 4 4 4 4 , 5 , 5 l R L R R R , J &.&.&.&.&.&.&.&.$.l   v G c v % v G R ; ( %.&.*.&.&.J &.&.&.J % m R R L E U 7 e 0 5 7 0 5 e ",
"5 4 4 4 2 2 5 2 5 v R R R R L R G # J >.v 0 y y y &.&.$.; ! R R R G J R u ) &.&.&.&.~ y ! &.&.J + G v v T T v V e 0 e e e e e e ",
"5 4 4 4 5 5 2 5 H R R L R R R L R G = 6 O.&.&.&.&.&.&.&.c 2 R L R R ! ) k >.&.&.v 0 J &.&.&.! & G R R L L L v 9 7 e e e e e e 0 ",
"5 4 5 5 0 e 0 L R R R R R R R R v H U U F F F F F F F F U F U U F F U D F F F F F U U F F F B p G L G G R R R L H h e e e 0 5 4 ",
"4 7 5 4 4 7 = m R R R R R T ~ I W o.6.7.7.9.t.7.7.7.7.8.7.7.8.9.r.9.7.6.6.7.6.7.6.e.w.6.7.7.3.X.g v z z ! R R R R G 2 5 5 4 4 4 ",
"5 5 4 2 2 +.O.v ; R R R R k B 2.7.7.7.8.7.3.e.q.7.7.7.7.7.7.8.5.e.0.7.7.7.7.6.7.2.r.e.9.7.7.7.7.7.2.A z R R R R R 1 z 0 4 2 4 4 ",
"5 5 5 2 O.k O.*.c = J L c   S U W W U W W F M U W W W W W W W A r S ` U W W W ` W t N W W W F W W W w 6 L R K y $ z K ~ 3 4 2 4 ",
"4 , 2 l &.+.G O.*.k 6 z o : r r r w N 5.5.:.@ r r w : :.5.5.W w r r e w  .4.5.N w w r : } 6.6.D e r r < h J u i v L ! %.h 4 4 4 ",
"2 5 2 O.&.&.O.O.&.$.c r N : r r r t B 7.7.2.@ d r t > 2.8.8.' t r r r w o.7.7.B g t r :  .6.6.W r t r 1 ] u p O.&.~ &.%.! 3 4 4 ",
"5 3 u &.&.&.&.&.&.&.g ,.W : t r t r B 6.6.2.@ t t r : 2.8.7.' t t r d w :.7.7.B t r t :  .8.6.W t r t 1 5.W _ *.*.&.&.&.&.0 4 4 ",
"5 5 ^ &.&.+.0 L @.$.W 6.W : t r r t B 7.7.2.@ t r r : 2.8.6.] t t g d w o.7.7.B t t r :  .7.7.W r t r : 7.,.  *.@.@.@.%.&.! 5 3 ",
"e e &.&.*.%.&.L z Z :.6.W : g t r r B 7.7.2.@ t r t : 2.8.8.' r r t r w o.6.7.B t r t :  .7.7.W t t t 1 6.6.A 4.v k k ! &.$.3 2 ",
"e e K K J K K K H M 6.7.W : t t r t B 7.7.2.@ t t r : 2.6.8.' t t r t w X.7.7.B t t t >  .7.7.W t r t 1 6.7.|   m K K J H J 7 5 ",
"e X               M 6.7.W : r r r r B 7.7.2.@ t r r : 2.8.8.' t r t r w X.7.8.B r t r : } 6.8.W r t r > 6.7.7.            . u a ",
"H O.O.v . . . G ) N W W W W W F W W W W W W W W W W W W W W W W W W W W W W W W W W W W W W W W W ` | W W W U z O.O.O.O.O.O.O.u ",
"H   * y O.*.&.J L y.y.y.y.y.y.y.y.y.y.y.y.y.y.y.y.y.y.y.y.y.y.y.y.y.y.y.y.y.y.y.y.y.y.y.y.y.y.y.y.y.y.y.y.y.y.z 6 u u u u 6 O.l ",
"k H ! &.&.&.&.&.G y.y.y.y.y.y.y.y.y.y.y.y.y.y.y.y.y.y.y.y.y.y.y.y.y.y.y.y.y.y.y.y.y.y.y.y.y.y.y.y.y.y.y.y.y.y.u m %.&.*.*.v     ",
"H <.&.&.&.&.*.&.%.y.y.y.y.y.y.y.y.y.y.y.y.y.y.y.y.y.y.y.y.y.y.y.y.y.y.y.y.y.y.y.y.y.y.y.y.y.y.y.y.y.y.y.y.y.y.G &.&.*.&.&.%.L p ",
"H *.*.*.&.&.&.&.%.y.y.y.y.y.y.y.y.y.y.y.y.y.y.y.y.y.y.y.y.y.y.y.y.y.y.y.y.y.y.y.y.y.y.y.y.y.y.y.y.y.y.y.y.y.y.v &.&.&.&.&.&.&.v ",
"H O.) O.O.O.O.O.( y.y.y.y.y.y.y.y.y.y.y.y.y.y.y.y.y.y.y.y.y.y.y.y.y.y.y.y.y.y.y.y.y.y.y.y.y.y.y.y.y.y.y.y.y.y.k O.O.O.O.@.) ) z ",
"^                 y.y.y.y.y.y.y.y.y.y.y.y.y.y.y.y.y.y.y.y.y.y.y.y.y.y.y.y.y.y.y.y.y.y.y.y.y.y.y.y.y.y.y.y.y.y.                  ",
"Y z z x J   6 v z y.y.y.y.y.y.y.y.y.y.y.y.y.y.y.y.y.y.y.y.y.y.y.y.y.y.y.y.y.y.y.y.y.y.y.y.y.y.y.y.y.y.y.y.y.y.6 x v v y v x v 9 ",
"C L ! ) z L K ; ! y.y.y.y.y.y.y.y.y.y.y.y.y.y.y.y.y.y.y.y.y.y.y.y.y.y.y.y.y.y.y.y.y.y.y.y.y.y.y.y.y.y.y.y.y.y.i L 6 ; % G T ! u ",
"} R J 9 = R R R K y.y.y.y.y.y.y.y.y.y.y.y.y.y.y.y.y.y.y.y.y.y.y.y.y.y.y.y.y.y.y.y.y.y.y.y.y.y.y.y.y.y.y.y.y.y.+ ; R R k o ! L u ",
"G R m = h R R R K y.y.y.y.y.y.y.y.y.y.y.y.y.y.y.y.y.y.y.y.y.y.y.y.y.y.y.y.y.y.y.y.y.y.y.y.y.y.y.y.y.y.y.y.y.y.p L R R ) ; v R p ",
"G R R G z T ! R G y.y.y.y.y.y.y.y.y.y.y.y.y.y.y.y.y.y.y.y.y.y.y.y.y.y.y.y.y.y.y.y.y.y.y.y.y.y.y.y.y.y.y.y.y.y.p L ! R J m v R p ",
"G R R R R L K R J y.y.y.y.y.y.y.y.y.y.y.y.y.y.y.y.y.y.y.y.y.y.y.y.y.y.y.y.y.y.y.y.y.y.y.y.y.y.y.y.y.y.y.y.y.y.p L R R L R R R p ",
"Z G G G m G G G Z y.y.y.y.y.y.y.y.y.y.y.y.y.y.y.y.y.y.y.y.y.y.y.y.y.y.y.y.y.y.y.y.y.y.y.y.y.y.y.y.y.y.y.y.y.y.y G G G G G G m y ",
"z v v v v v v z x y.y.y.y.y.y.y.y.y.y.y.y.y.y.y.y.y.y.y.y.y.y.y.y.y.y.y.y.y.y.y.y.y.y.y.y.y.y.y.y.y.y.y.y.y.y.6 v v v v v v v 9 ",
"@.%.%.! @.&.&.&.%.y.y.y.y.y.y.y.y.y.y.y.y.y.y.y.y.y.y.y.y.y.y.y.y.y.y.y.y.y.y.y.y.y.y.y.y.y.y.y.y.y.y.y.y.y.y.c &.&.&.&.&.&.&.v ",
"%.>.>.) %.<.>.&.#.y.y.y.y.y.y.y.y.y.y.y.y.y.y.y.y.y.y.y.y.y.y.y.y.y.y.y.y.y.y.y.y.y.y.y.y.y.y.y.y.y.y.y.y.y.y.v &.&.! y u v *.v ",
"&.&.&.&.&.&.&.*.#.y.y.y.y.y.y.y.y.y.y.y.y.y.y.y.y.y.y.y.y.y.y.y.y.y.y.y.y.y.y.y.y.y.y.y.y.y.y.y.y.y.y.y.y.y.y.v &.&.&.%.%.@.0 * ",
"&.&.&.&.&.&.&.&.$.y.y.y.y.y.y.y.y.y.y.y.y.y.y.y.y.y.y.y.y.y.y.y.y.y.y.y.y.y.y.y.y.y.y.y.y.y.y.y.y.y.y.y.y.y.y.v &.&.&.&.&.&.*.v ",
"&.&.*.&.&.&.&.&.%.y.y.y.y.y.y.y.y.y.y.y.y.y.y.y.y.y.y.y.y.y.y.y.y.y.y.y.y.y.y.y.y.y.y.y.y.y.y.y.y.y.y.y.y.y.y.v &.&.&.&.&.&.&.c ",
"&.&.&.&.&.&.&.&.%.y.y.y.y.y.y.y.y.y.y.y.y.y.y.y.y.y.y.y.y.y.y.y.y.y.y.y.y.y.y.y.y.y.y.y.y.y.y.y.y.y.y.y.y.y.y.v &.&.&.&.&.*.&.v ",
"0 y 0 9 y 0 0 0 0 y.y.y.y.y.y.y.y.y.y.y.y.y.y.y.y.y.y.y.y.y.y.y.y.y.y.y.y.y.y.y.y.y.y.y.y.y.y.y.y.y.y.y.y.y.y.% 0 0 u 0 u 9 0 * ",
"K T R R ! R K ! K y.y.y.y.y.y.y.y.y.y.y.y.y.y.y.y.y.y.y.y.y.y.y.y.y.y.y.y.y.y.y.y.y.y.y.y.y.y.y.y.y.y.y.y.y.y.p L R R R ! K T h ",
"R T R R K R R R J y.y.y.y.y.y.y.y.y.y.y.y.y.y.y.y.y.y.y.y.y.y.y.y.y.y.y.y.y.y.y.y.y.y.y.y.y.y.y.y.y.y.y.y.y.y.p R R R R L ! K i ",
"K R R R K R ! R K y.y.y.y.y.y.y.y.y.y.y.y.y.y.y.y.y.y.y.y.y.y.y.y.y.y.y.y.y.y.y.y.y.y.y.y.y.y.y.y.y.y.y.y.y.y.u R R R T T L T p ",
") m ; c ! G ; c J y.y.y.y.y.y.y.y.y.y.y.y.y.y.y.y.y.y.y.y.y.y.y.y.y.y.y.y.y.y.y.y.y.y.y.y.y.y.y.y.y.y.y.y.y.y.p +.R R R R ) ; + ",
"u u R R z y R K K y.y.y.y.y.y.y.y.y.y.y.y.y.y.y.y.y.y.y.y.y.y.y.y.y.y.y.y.y.y.y.y.y.y.y.y.y.y.y.y.y.y.y.y.y.y.i T O.y ; ; R R p ",
"! R R L K T T T J y.y.y.y.y.y.y.y.y.y.y.y.y.y.y.y.y.y.y.y.y.y.y.y.y.y.y.y.y.y.y.y.y.y.y.y.y.y.y.y.y.y.y.y.y.y.u ! L ~ ~ L K R p ",
"J R T R ! K T T J y.y.y.y.y.y.y.y.y.y.y.y.y.y.y.y.y.y.y.y.y.y.y.y.y.y.y.y.y.y.y.y.y.y.y.y.y.y.y.y.y.y.y.y.y.y.p R T R R ! L R p ",
"; ; ; ; ; ; ; ; ; y.y.y.y.y.y.y.y.y.y.y.y.y.y.y.y.y.y.y.y.y.y.y.y.y.y.y.y.y.y.y.y.y.y.y.y.y.y.y.y.y.y.y.y.y.y.# ; ; ; ; ; ; ; # ",
"*.*.&.&.&.<.&.&.$.y.y.y.y.y.y.y.y.y.y.y.y.y.y.y.y.y.y.y.y.y.y.y.y.y.y.y.y.y.y.y.y.y.y.y.y.y.y.y.y.y.y.y.y.y.y.z *.%.%.*.&.&.*.v ",
"&.<.&.&.&.<.&.&.@.y.y.y.y.y.y.y.y.y.y.y.y.y.y.y.y.y.y.y.y.y.y.y.y.y.y.y.y.y.y.y.y.y.y.y.y.y.y.y.y.y.y.y.y.y.y.v &.&.O.O.&.&.&.c ",
"J *.&.%.G &.&.*.%.y.y.y.y.y.y.y.y.y.y.y.y.y.y.y.y.y.y.y.y.y.y.y.y.y.y.y.y.y.y.y.y.y.y.y.y.y.y.y.y.y.y.y.y.y.y.v &.&.O.O.&.&.&.v ",
"~ &.&.O.~ &.*.&.@.y.y.y.y.y.y.y.y.y.y.y.y.y.y.y.y.y.y.y.y.y.y.y.y.y.y.y.y.y.y.y.y.y.y.y.y.y.y.y.y.y.y.y.y.y.y.v &.&.&.J u v ! * ",
"&.&.&.&.*.&.&.&.$.y.y.y.y.y.y.y.y.y.y.y.y.y.y.y.y.y.y.y.y.y.y.y.y.y.y.y.y.y.y.y.y.y.y.y.y.y.y.y.y.y.y.y.y.y.y.v &.&.&.&.x &.*.v ",
"&.*.&.&.%.*.&.&.%.y.y.y.y.y.y.y.y.y.y.y.y.y.y.y.y.y.y.y.y.y.y.y.y.y.y.y.y.y.y.y.y.y.y.y.y.y.y.y.y.y.y.y.y.y.y.n *.&.&.&.&.&.&.v ",
"k v v v v v v v z y.y.y.y.y.y.y.y.y.y.y.y.y.y.y.y.y.y.y.y.y.y.y.y.y.y.y.y.y.y.y.y.y.y.y.y.y.y.y.y.y.y.y.y.y.y.6 v v v v v v v 9 ",
"m G m G G G G G v y.y.y.y.y.y.y.y.y.y.y.y.y.y.y.y.y.y.y.y.y.y.y.y.y.y.y.y.y.y.y.y.y.y.y.y.y.y.y.y.y.y.y.y.y.y.0 G G G G G m G 0 ",
"L K K R L L R L K y.y.y.y.y.y.y.y.y.y.y.y.y.y.y.y.y.y.y.y.y.y.y.y.y.y.y.y.y.y.y.y.y.y.y.y.y.y.y.y.y.y.y.y.y.y.p R R L K ! K ! p ",
"R ; z ( G z ) K J y.y.y.y.y.y.y.y.y.y.y.y.y.y.y.y.y.y.y.y.y.y.y.y.y.y.y.y.y.y.y.y.y.y.y.y.y.y.y.y.y.y.y.y.y.y.p R ! v z J L ! u ",
"m k ! R m ~ R G ! y.y.y.y.y.y.y.y.y.y.y.y.y.y.y.y.y.y.y.y.y.y.y.y.y.y.y.y.y.y.y.y.y.y.y.y.y.y.y.y.y.y.y.y.y.y.h v ( G k i T R i ",
"m J L R L R R L ! y.y.y.y.y.y.y.y.y.y.y.y.y.y.y.y.y.y.y.y.y.y.y.y.y.y.y.y.y.y.y.y.y.y.y.y.y.y.y.y.y.y.y.y.y.y.k m R R n L T L p ",
"m K ! R R R R L J y.y.y.y.y.y.y.y.y.y.y.y.y.y.y.y.y.y.y.y.y.y.y.y.y.y.y.y.y.y.y.y.y.y.y.y.y.y.y.y.y.y.y.y.y.y.p T R T T ! L ! i "
};
