/* XPM */
static char *wall13[] = {
/* columns rows colors chars-per-pixel */
"64 64 136 2 ",
"   c #000000",
".  c #0A0B0C",
"X  c #030514",
"o  c #070C10",
"O  c #090E12",
"+  c #0F161C",
"@  c #131514",
"#  c #10171E",
"$  c #1A1C1B",
"%  c #161D26",
"&  c #181E25",
"*  c #17212A",
"=  c #1B242C",
"-  c #1E292F",
";  c #1F2932",
":  c #242625",
">  c #262827",
",  c #23262F",
"<  c #262A2A",
"1  c #2A2B2A",
"2  c #252732",
"3  c #292732",
"4  c #262932",
"5  c #292B35",
"6  c #222E3A",
"7  c #2C2E39",
"8  c #2C3031",
"9  c #24313C",
"0  c #2D323B",
"q  c #343635",
"w  c #363837",
"e  c #31343D",
"r  c #3B3E3E",
"t  c #3B403E",
"y  c #263741",
"u  c #293642",
"i  c #2C3A46",
"p  c #2D3B48",
"a  c #323441",
"s  c #313E47",
"d  c #3B3F40",
"f  c #343D4B",
"g  c #3F4144",
"h  c #33414E",
"j  c #3B4149",
"k  c #344453",
"l  c #394653",
"z  c #374957",
"x  c #394956",
"c  c #37495A",
"v  c #3A4B5B",
"b  c #3E505E",
"n  c #3E4F61",
"m  c #3F5163",
"M  c #414546",
"N  c #43464A",
"B  c #464A4D",
"V  c #48494E",
"C  c #474A53",
"Z  c #4A4E59",
"A  c #42515D",
"S  c #515457",
"D  c #53575A",
"F  c #575B5E",
"G  c #585C5F",
"H  c #425363",
"J  c #495764",
"K  c #445769",
"L  c #465A6C",
"P  c #495C6D",
"I  c #535561",
"U  c #545B64",
"Y  c #595B61",
"T  c #535E6E",
"R  c #475E70",
"E  c #485D70",
"W  c #565F70",
"Q  c #5D6164",
"!  c #5B606D",
"~  c #4D6476",
"^  c #4E6478",
"/  c #526374",
"(  c #596070",
")  c #526679",
"_  c #52697D",
"`  c #5A6A7A",
"'  c #62666A",
"]  c #65696C",
"[  c #606672",
"{  c #686775",
"}  c #646B73",
"|  c #6A6D71",
" . c #6C7073",
".. c #6B737D",
"X. c #73777B",
"o. c #787C7F",
"O. c #546D81",
"+. c #596F84",
"@. c #567186",
"#. c #5B7286",
"$. c #57748A",
"%. c #5B768C",
"&. c #5C788E",
"*. c #5C7890",
"=. c #6D7480",
"-. c #717785",
";. c #757A86",
":. c #7A7D83",
">. c #647E93",
",. c #7D8085",
"<. c #678095",
"1. c #7E8892",
"2. c #818689",
"3. c #868B8E",
"4. c #878F91",
"5. c #8A8F92",
"6. c #8D9296",
"7. c #8F9498",
"8. c #909499",
"9. c #999CA1",
"0. c #9EA1A6",
"q. c #9DA2A8",
"w. c #A1A2A7",
"e. c #A1A6AA",
"r. c #A7ABB1",
"t. c #AAADB3",
"y. c #AFB2B7",
"u. c #B2B5BC",
"i. c #B6B9BE",
"p. c #B8BBC0",
"a. c #C7C8CC",
"s. c #CACBCF",
"d. c #D2D1D7",
"f. c #D6D7DB",
"g. c #D7D8DC",
"h. c #FFFFFF",
/* pixels */
"4 4 5 4 4 5 5 5 5 5 7 0 e e e e e e e w a e e e e e e q e e e e e e 7 7 7 7 7 7 7 7 7 5 5 e 0 0 0 0 0 0 5 0 5 e e e 5 5 e e e 0 ",
"5 5 4 4 4 , , 4 , 5 1 5 e e 7 7 5 5 0 5 7 e e e 7 7 e e e e e e e N :.;.;.;.-.;.=...=...-.' 5 2 3 2 2 2 5 2 5 5 5 5 4 5 0 e 5 e ",
"4 4 5 4 4 5 4 , 5 , 0 e e e 5 4 2 5 7 e 0 0 e f H c E E P L v v H f j E a f c E E L ) W W [ 5 5 4 4 5 2 4 4 2 5 e 5 4 , 5 5 e 5 ",
"5 4 5 4 4 5 , 4 5 0 e e e 7 5 e e x ~ &.*.%.~ _ u ; E E E E E E E L u v v E E c # &.&.&.&.) u 2 5 5 4 4 4 2 5 5 5 5 4 5 , , 5 5 ",
"4 4 4 2 4 4 5 5 0 0 0 0 e 4 2 v %.&.&.&.*.u H %.O.O k P E E P E E E L E E E v % ~ &.&.&.x k @.k 0 < 2 4 5 , 5 5 4 5 5 7 e 5 0 e ",
"4 4 4 4 4 4 , 5 5 4 4 5 0 l v & O.&.&.&.A l O.%.&.O.u L E H H E E L ~ L y L c 9 O.&.~ y y &.&.&.&.&.J I ' { { M 4 4 e e 0 5 1 5 ",
"5 4 4 4 4 2 5 , 4 4 5 5 K E E v K &.&.&.&.@.v _ &.+.p u c % 6 c v n ) v L f x *.&.&.%.&.&.&.&.&.*.E n H W W W Y 5 e e e 5 5 4 5 ",
"5 4 4 4 4 4 , 5 4 5 l P P E E ~ , L &.&.&.&.&.&.&.&.%.l   v H l v * v H E ; ) >.&.*.%.&.L &.&.&.L % m E E P W Y 0 0 0 5 5 0 5 0 ",
"5 4 5 2 4 2 5 2 5 v E E E E L E H # L <.c y y y 9 &.&.%.9 P E E E H L L u ` &.&.&.&.^ y ~ &.&.K + H v v R P v C e 0 0 e e e e e ",
"5 4 4 4 8 5 2 5 K P E P R E E E E H * 4 O.&.&.&.*.&.&.&.c 2 E P E E ~ _ x &.&.&.z y K &.&.&.~ & H E E R P ~ v 5 7 e a a e e e 0 ",
"4 5 4 5 0 e 0 L P E E E E R E E v J Y G G G G G G F Y F F F G G G G Y G G G G G G Y Y F F Y B p H P H H R R E E L f e w w 5 5 2 ",
"5 7 5 2 5 7 = m E E E E R E ) U Q o.7.6.7.9.s.7.8.8.7.7.7.7.6.w.i.9.8.6.6.7.7.7.7.u.t.7.7.7.3.X.d v x v R R E E P H , 5 5 4 5 4 ",
"5 5 5 2 2 @.O.v 2 E E E E h B 2.7.8.7.7.7.4.u.q.8.8.8.7.6.7.7.5.u.0.6.7.7.7.7.7.2.u.u.9.8.7.8.8.8.2.S z R R E E P 5 x 9 5 2 5 5 ",
"2 5 5 2 O.k O.*.c = K E v   D Y Q Y Q Q Q G j Q Q Q Q Q Q Q Q S r D ' Y ' Y G ' Q t N Q Q Q Q Q Q Q w 6 P R K y $ x L ~ 2 2 2 2 ",
"4 2 2 l &.+.H O.%.k 6 c o : r r w r M 6.6.o.@ w w r : ,.5.5.' w r w r q | 5.5.M w w r : ] 6.5.D w r d < f K i i v P ~ &.k 4 4 4 ",
"4 4 2 O.*.%.O.O.*.%.c w B : r r t t B 7.7.2.@ g t t > ,.7.6.' t r r d e o.7.7.B g t r :  .7.7.Q d r r 1 | y i O.&./ &.&.E 4 2 4 ",
"4 5 u *.&.&.&.&.&.*.M ,.Q : r t r t B 7.7.2.@ t t r : 2.7.7.' t r t t w :.7.7.V r r r :  .7.7.Q r r r < 5.' ` %.&.&.&.&.&.0 4 4 ",
"5 5 / &.&.+.0 P @.%.Y 8.Q : t t t r B 7.7.2.@ r r t : 2.7.7.' r t r r w o.7.7.B t t r :  .7.7.Q r r r < 6.2.  &.@.@.@.%.&.^ 3 5 ",
"e e &.&.&.&.&.P k A :.7.Q : t r r t V 8.7.2.@ t r r : 2.7.7.' r r r r w :.7.7.B t r t : | 7.7.Q r r r 1 7.6.D 1.v k k ^ &.+.5 , ",
"e e K L L L L L J M 6.7.Q : g r t r B 8.7.2.@ t t t : 2.7.7.] r r g t w X.7.7.B r t t :  .7.8.Q r t r 1 6.8.|   m K K K K L 7 5 ",
"e X               M 6.7.' : r t t t B 7.7.,.@ t t r : 2.7.7.' t r t r w X.7.7.B t r t : | 7.8.Q t t t > 6.7.6.            . e a ",
"J O.O.z . . . H _ N Q Q Y Q Q Q Q Q Q Q Q Q Q Q Q Q Q Q Q Q Q Q Q Q Q Q Q Q Q Q ' Y Q Q Y ' Q Q Y ' ] ' Q Q Q x O.O.O.+.O.O.O.u ",
"J   * y O.&.&.K P  .7.8.w.a.i.7.7.7.7.7.7.9.d.e.7.7.7.7.7.7.7.8.f.y.7.7.8.7.7.7.8.a.g.8.7.7.7.8.7.7.i.d.7.7.7.k 6 y y y y 6 O.c ",
"k J ~ &.&.&.&.&.H | 8.8.:.0.9.8.7.7.7.7.7.3.t.8.7.7.7.7.7.7.7.:.r.0.7.7.7.8.7.7.8.e.t.8.7.7.7.7.7.5.6.8.7.7.7.u H &.&.*.*.x     ",
"L >.&.&.&.&.*.&.%.N Q Q Q Q Q Q Q Q Q Q Q Q Q Q Q Q Q Q Q Q Q Q Q Q Q Q Q Q Q Q Q Q Q Q Q Q Q Q Q Q Q Q Q Q Y K &.&.&.&.&.%.P i ",
"J &.&.*.&.&.&.&.%.| 7.7.Q : t r r t B 7.7.2.@ r g r > ,.7.7.' r t r r w o.7.8.V r r t : | 7.7.Q t t t 1 6.7.7.v &.&.&.&.&.&.&.v ",
"J O.O.O.O.O.O.O./ | 8.7.Q : t r t t B 7.7.2.@ t t t : 2.7.8.' r r r t w X.7.7.B r r r :  .7.7.Q t t t , 6.7.7.z +.O.O.O.O._ O.z ",
"T                 | 7.7.Q : r r t r B 7.7.2.@ r t t : 2.7.7.' r t r r w X.7.7.B r r r :  .8.7.Q r t t > 6.7.8.                  ",
"T x c l K   6 c z h.h.h.h.h.h.h.h.h.h.h.h.h.h.h.h.h.h.h.h.h.h.h.h.h.h.h.h.h.h.h.h.h.h.h.h.h.h.h.h.h.h.h.h.h.h.; x v x y v z x 6 ",
"Z R R _ v P L ; ~ h.h.h.h.h.h.h.h.h.h.h.h.h.h.h.h.h.h.h.h.h.h.h.h.h.h.h.h.h.h.h.h.h.h.h.h.h.h.h.h.h.h.h.h.h.h.p R 6 2 % H ~ P i ",
"} P K y = E E E K h.h.h.h.h.h.h.h.h.h.h.h.h.h.h.h.h.h.h.h.h.h.h.h.h.h.h.h.h.h.h.h.h.h.h.h.h.h.h.h.h.h.h.h.h.h.# 2 R E k O R R p ",
"K P m = h R E E P h.h.h.h.h.h.h.h.h.h.h.h.h.h.h.h.h.h.h.h.h.h.h.h.h.h.h.h.h.h.h.h.h.h.h.h.h.h.h.h.h.h.h.h.h.h.p P R R ^ 6 v R p ",
"H E R H v R R R K h.h.h.h.h.h.h.h.h.h.h.h.h.h.h.h.h.h.h.h.h.h.h.h.h.h.h.h.h.h.h.h.h.h.h.h.h.h.h.h.h.h.h.h.h.h.p P ~ E K m v E p ",
"H E E R P E R P K h.h.h.h.h.h.h.h.h.h.h.h.h.h.h.h.h.h.h.h.h.h.h.h.h.h.h.h.h.h.h.h.h.h.h.h.h.h.h.h.h.h.h.h.h.h.p E R E L E E E i ",
"A H H H H H H H A h.h.h.h.h.h.h.h.h.h.h.h.h.h.h.h.h.h.h.h.h.h.h.h.h.h.h.h.h.h.h.h.h.h.h.h.h.h.h.h.h.h.h.h.h.h.y H H H H K H H y ",
"k v v v v v v v x h.h.h.h.h.h.h.h.h.h.h.h.h.h.h.h.h.h.h.h.h.h.h.h.h.h.h.h.h.h.h.h.h.h.h.h.h.h.h.h.h.h.h.h.h.h.6 v v v v v v v 6 ",
"@.%.&.~ @.&.&.&.#.h.h.h.h.h.h.h.h.h.h.h.h.h.h.h.h.h.h.h.h.h.h.h.h.h.h.h.h.h.h.h.h.h.h.h.h.h.h.h.h.h.h.h.h.h.h.c &.&.&.&.&.&.&.v ",
"%.>.>._ %.>.>.&.#.h.h.h.h.h.h.h.h.h.h.h.h.h.h.h.h.h.h.h.h.h.h.h.h.h.h.h.h.h.h.h.h.h.h.h.h.h.h.h.h.h.h.h.h.h.h.v &.&.~ y u v &.v ",
"&.&.%.*.&.&.&.&.%.h.h.h.h.h.h.h.h.h.h.h.h.h.h.h.h.h.h.h.h.h.h.h.h.h.h.h.h.h.h.h.h.h.h.h.h.h.h.h.h.h.h.h.h.h.h.v &.&.&.%.&.O.0 * ",
"&.&.&.&.&.%.&.&.$.h.h.h.h.h.h.h.h.h.h.h.h.h.h.h.h.h.h.h.h.h.h.h.h.h.h.h.h.h.h.h.h.h.h.h.h.h.h.h.h.h.h.h.h.h.h.v &.&.&.&.&.&.*.v ",
"&.&.*.&.&.&.&.&.%.h.h.h.h.h.h.h.h.h.h.h.h.h.h.h.h.h.h.h.h.h.h.h.h.h.h.h.h.h.h.h.h.h.h.h.h.h.h.h.h.h.h.h.h.h.h.n &.&.&.&.&.&.&.v ",
"&.&.&.&.&.&.&.&.%.h.h.h.h.h.h.h.h.h.h.h.h.h.h.h.h.h.h.h.h.h.h.h.h.h.h.h.h.h.h.h.h.h.h.h.h.h.h.h.h.h.h.h.h.h.h.x &.&.&.&.&.*.&.v ",
"y 0 0 y y 0 0 0 0 h.h.h.h.h.h.h.h.h.h.h.h.h.h.h.h.h.h.h.h.h.h.h.h.h.h.h.h.h.h.h.h.h.h.h.h.h.h.h.h.h.h.h.h.h.h.% 0 0 y 0 9 0 0 * ",
"L P R R E E R E K h.h.h.h.h.h.h.h.h.h.h.h.h.h.h.h.h.h.h.h.h.h.h.h.h.h.h.h.h.h.h.h.h.h.h.h.h.h.h.h.h.h.h.h.h.h.p E E E E ~ P ~ p ",
"E R R P E E E P L h.h.h.h.h.h.h.h.h.h.h.h.h.h.h.h.h.h.h.h.h.h.h.h.h.h.h.h.h.h.h.h.h.h.h.h.h.h.h.h.h.h.h.h.h.h.p E E E E P R R i ",
"L R R R E E E R K h.h.h.h.h.h.h.h.h.h.h.h.h.h.h.h.h.h.h.h.h.h.h.h.h.h.h.h.h.h.h.h.h.h.h.h.h.h.h.h.h.h.h.h.h.h.u E E E E R R R p ",
"_ H ; v ~ H ; v L h.h.h.h.h.h.h.h.h.h.h.h.h.h.h.h.h.h.h.h.h.h.h.h.h.h.h.h.h.h.h.h.h.h.h.h.h.h.h.h.h.h.h.h.h.h.p +.E E E E _ ; + ",
"u u R R k i R E K h.h.h.h.h.h.h.h.h.h.h.h.h.h.h.h.h.h.h.h.h.h.h.h.h.h.h.h.h.h.h.h.h.h.h.h.h.h.h.h.h.h.h.h.h.h.p E O.6 6 ; R R p ",
"E R E E R E E E K h.h.h.h.h.h.h.h.h.h.h.h.h.h.h.h.h.h.h.h.h.h.h.h.h.h.h.h.h.h.h.h.h.h.h.h.h.h.h.h.h.h.h.h.h.h.i R R ^ ~ E E E p ",
"L E E E E R R E K h.h.h.h.h.h.h.h.h.h.h.h.h.h.h.h.h.h.h.h.h.h.h.h.h.h.h.h.h.h.h.h.h.h.h.h.h.h.h.h.h.h.h.h.h.h.p E L R R E E E i ",
"; ; ; ; ; ; ; ; ; h.h.h.h.h.h.h.h.h.h.h.h.h.h.h.h.h.h.h.h.h.h.h.h.h.h.h.h.h.h.h.h.h.h.h.h.h.h.h.h.h.h.h.h.h.h.+ ; ; ; 2 ; ; 2 # ",
"%.>.&.&.*.>.%.&.%.h.h.h.h.h.h.h.h.h.h.h.h.h.h.h.h.h.h.h.h.h.h.h.h.h.h.h.h.h.h.h.h.h.h.h.h.h.h.h.h.h.h.h.h.h.h.v *.*.%.*.&.&.&.v ",
"*.<.&.&.&.>.&.&.@.h.h.h.h.h.h.h.h.h.h.h.h.h.h.h.h.h.h.h.h.h.h.h.h.h.h.h.h.h.h.h.h.h.h.h.h.h.h.h.h.h.h.h.h.h.h.v &.&.O.O.&.&.&.v ",
"K *.%.%.L &.&.*.%.h.h.h.h.h.h.h.h.h.h.h.h.h.h.h.h.h.h.h.h.h.h.h.h.h.h.h.h.h.h.h.h.h.h.h.h.h.h.h.h.h.h.h.h.h.h.v &.&.@.O.&.&.&.v ",
"~ &.&.O.~ &.*.%.@.h.h.h.h.h.h.h.h.h.h.h.h.h.h.h.h.h.h.h.h.h.h.h.h.h.h.h.h.h.h.h.h.h.h.h.h.h.h.h.h.h.h.h.h.h.h.v &.&.&.K y c ^ * ",
"&.&.*.&.&.&.&.&.%.h.h.h.h.h.h.h.h.h.h.h.h.h.h.h.h.h.h.h.h.h.h.h.h.h.h.h.h.h.h.h.h.h.h.h.h.h.h.h.h.h.h.h.h.h.h.v &.&.&.&.x &.&.v ",
"%.&.&.&.%.&.&.&.%.h.h.h.h.h.h.h.h.h.h.h.h.h.h.h.h.h.h.h.h.h.h.h.h.h.h.h.h.h.h.h.h.h.h.h.h.h.h.h.h.h.h.h.h.h.h.v &.&.&.&.&.&.&.v ",
"k v v v v v v v z h.h.h.h.h.h.h.h.h.h.h.h.h.h.h.h.h.h.h.h.h.h.h.h.h.h.h.h.h.h.h.h.h.h.h.h.h.h.h.h.h.h.h.h.h.h.9 v v v v v v v 9 ",
"m H K H K H K H v h.h.h.h.h.h.h.h.h.h.h.h.h.h.h.h.h.h.h.h.h.h.h.h.h.h.h.h.h.h.h.h.h.h.h.h.h.h.h.h.h.h.h.h.h.h.9 H H H H H H H 0 ",
"E K K P P K E E K h.h.h.h.h.h.h.h.h.h.h.h.h.h.h.h.h.h.h.h.h.h.h.h.h.h.h.h.h.h.h.h.h.h.h.h.h.h.h.h.h.h.h.h.h.h.p E E L L E P ~ p ",
"E ; z _ L k _ K K h.h.h.h.h.h.h.h.h.h.h.h.h.h.h.h.h.h.h.h.h.h.h.h.h.h.h.h.h.h.h.h.h.h.h.h.h.h.h.h.h.h.h.h.h.h.p R ~ v v K P R i ",
"H k ~ P m ^ P H ~ h.h.h.h.h.h.h.h.h.h.h.h.h.h.h.h.h.h.h.h.h.h.h.h.h.h.h.h.h.h.h.h.h.h.h.h.h.h.h.h.h.h.h.h.h.h.h v ) H k h P P p ",
"H K P R P R E P ~ h.h.h.h.h.h.h.h.h.h.h.h.h.h.h.h.h.h.h.h.h.h.h.h.h.h.h.h.h.h.h.h.h.h.h.h.h.h.h.h.h.h.h.h.h.h.k m R E H L E R p ",
"K R R R E P E P K h.h.h.h.h.h.h.h.h.h.h.h.h.h.h.h.h.h.h.h.h.h.h.h.h.h.h.h.h.h.h.h.h.h.h.h.h.h.h.h.h.h.h.h.h.h.p E E E E ~ R R i "
};
