/* XPM */
static char *wall7[] = {
/* columns rows colors chars-per-pixel */
"64 64 153 2 ",
"   c #000000",
".  c #0A0C0B",
"X  c #030514",
"o  c #070C10",
"O  c #090E12",
"+  c #0F161C",
"@  c #131514",
"#  c #161815",
"$  c #10171E",
"%  c #1A1C1B",
"&  c #1E201F",
"*  c #161D26",
"=  c #181E25",
"-  c #1D2124",
";  c #17212A",
":  c #1B242C",
">  c #1E292F",
",  c #1F2932",
"<  c #242625",
"1  c #262827",
"2  c #23262F",
"3  c #272A29",
"4  c #2B2C2B",
"5  c #2E302F",
"6  c #252732",
"7  c #292732",
"8  c #262932",
"9  c #292B35",
"0  c #222E3A",
"q  c #2C2E39",
"w  c #2C3031",
"e  c #25313C",
"r  c #2D323B",
"t  c #343635",
"y  c #363837",
"u  c #31343D",
"i  c #363A39",
"p  c #3B3F3E",
"a  c #3B403E",
"s  c #273641",
"d  c #293642",
"f  c #2C3A46",
"g  c #2D3B48",
"h  c #323441",
"j  c #313E47",
"k  c #3B3F40",
"l  c #343D4B",
"z  c #3F4144",
"x  c #33414E",
"c  c #3B4149",
"v  c #344453",
"b  c #394653",
"n  c #374957",
"m  c #384956",
"M  c #37495A",
"N  c #3A4B5A",
"B  c #3E505E",
"V  c #3E4F61",
"C  c #3F5163",
"Z  c #414546",
"A  c #43464A",
"S  c #464A4D",
"D  c #4A4B4E",
"F  c #474A53",
"G  c #4A4E59",
"H  c #4E5054",
"J  c #42515D",
"K  c #515457",
"L  c #53575A",
"P  c #575B5E",
"I  c #585C5F",
"U  c #425363",
"Y  c #495764",
"T  c #445769",
"R  c #465A6C",
"E  c #495C6D",
"W  c #535561",
"Q  c #545B64",
"!  c #595C61",
"~  c #535E6E",
"^  c #475E70",
"/  c #485D70",
"(  c #565F70",
")  c #5D6164",
"_  c #5B606D",
"`  c #4D6476",
"'  c #4E6478",
"]  c #526374",
"[  c #596070",
"{  c #526679",
"}  c #52697D",
"|  c #5A6A7A",
" . c #63676A",
".. c #65696C",
"X. c #686C6F",
"o. c #606672",
"O. c #686775",
"+. c #646B73",
"@. c #6A6E71",
"#. c #6C7073",
"$. c #6B737D",
"%. c #717576",
"&. c #72767A",
"*. c #787C7F",
"=. c #546D81",
"-. c #596F84",
";. c #567186",
":. c #5B7286",
">. c #577188",
",. c #5B768C",
"<. c #5C788E",
"1. c #5C7890",
"2. c #6D7480",
"3. c #717785",
"4. c #757A86",
"5. c #7A7D83",
"6. c #647E93",
"7. c #7D8185",
"8. c #7F8789",
"9. c #678095",
"0. c #7E8892",
"q. c #818689",
"w. c #868B8E",
"e. c #878F91",
"r. c #8A8F92",
"t. c #8D9296",
"y. c #8F9498",
"u. c #909599",
"i. c #95989D",
"p. c #979CA0",
"a. c #999CA1",
"s. c #9EA2A6",
"d. c #9DA2A8",
"f. c #A1A2A7",
"g. c #A1A5A9",
"h. c #A5A8AE",
"j. c #A7AAB1",
"k. c #AAADB3",
"l. c #AFB2B7",
"z. c #AFB2B9",
"x. c #B1B4BB",
"c. c #B6B9BE",
"v. c #B9BCC1",
"b. c #C7C8CC",
"n. c #CACBCF",
"m. c #CECFD3",
"M. c #CFD1D5",
"N. c #D2D1D7",
"B. c #D6D7DB",
"V. c #D7D8DC",
"C. c #DBDCDF",
"Z. c #DDDEE2",
"A. c #FFFFFF",
/* pixels */
"8 8 9 8 8 9 9 9 9 9 9 u u u u u u u u u u u u u u t u u u h r u u u q q q q q q q q q 9 0 u d q u u q q q r q u u u 9 q u u u r ",
"9 9 8 8 8 8 2 8 8 9 8 9 u u u q 9 q r q 9 u u u q q u u u u u u u A 5.4.4.4.3.4.2.$.2.$.3. .8 8 7 6 8 7 8 8 8 9 9 9 6 9 q u 9 u ",
"8 8 9 8 8 8 8 2 2 2 u u u r 6 8 2 9 r r r r u l U N / / E T J N J l b E h l M / / Y { ] ~ o.9 9 8 8 8 8 8 8 8 9 r 9 8 8 2 q u q ",
"9 9 8 8 8 9 2 8 9 r u u u r 9 u u m ` <.<.,.` { s 6 / / / / / ^ / R d N N / / M $ ,.6.<.,.{ d 8 9 9 8 8 8 6 8 q 9 9 8 8 9 2 8 8 ",
"8 8 8 6 8 8 8 9 u q r r u 8 6 B ,.<.<.<.<.d U ,.=.O v ^ / ^ / R / / R E / / N * ` <.<.1.M v -.v r 2 8 8 8 2 9 9 8 9 9 q r q q r ",
"8 8 8 8 8 8 9 2 9 8 9 9 u c N * =.<.<.<.J n =.,.<.=.r R / U U / / R ` R s R M r } <.] s s <.1.<.<.<.Y W  .O.O.k 2 8 u u u 4 9 9 ",
"9 8 8 8 8 9 2 9 2 9 8 q T / / N R <.<.<.<.:.N { <.;.g d N * , N N U { N T v M 1.<.<.<.<.<.<.<.<.<.E C U ( ( ( ! 9 u u u 9 9 8 9 ",
"9 8 8 8 8 6 9 2 8 8 m ^ E / / / 6 T <.<.<.<.<.<.<.<.,.b   N U M m ; N U / , { 1.<.1.<.<.T <.1.1.R * C / / ~ ( ! r u r 9 9 r 9 r ",
"9 8 9 8 9 8 8 6 9 N / / / / / / U $ Y 6.N s d d d <.<.>.e E / / / U T / d } <.<.<.<.` d ` <.<.U + U N N / ^ N F u r u u u u u u ",
"9 8 8 8 9 8 8 9 Y E ^ R ^ / / R / U : 0 } <.<.<.<.<.<.<.M 6 / E / / ' { m ,.<.<.m d R <.<.<.` * U ^ ^ E R ` N 8 q u u u u u u r ",
"9 8 8 8 r u r R / / / / / ^ / / N Y I I ! I I I I I ! I P P I I P ! ! P I I I I I I P P I ! S g U / U U / / ^ / R l u u u u 9 8 ",
"9 q 9 8 8 q : C / / / / / ^ { Q ! *.y.t.u.a.n.y.y.y.y.y.y.y.y.f.c.a.y.y.y.y.y.y.y.x.k.y.y.y.e.%.k N N N ^ / ^ ^ E U 2 9 9 2 9 8 ",
"7 9 8 6 6 ;.=.N 6 / / / / v S q.y.y.y.y.y.w.x.h.y.y.u.y.t.y.y.r.x.s.y.y.y.y.y.y.q.x.x.a.u.u.t.y.u.q.L N ^ ^ ^ E / w n r 2 2 8 8 ",
"9 9 9 8 =.v -.<.M : T E N   L ! I  .) ) ) I Z ! ) ) ) )  .I ! K p L  .!  .! ) ) ) a A ) ) ! ) ) ) ! i 8 E E R s % v R ' 9 8 8 8 ",
"8 6 6 m <.-.U =.1.v 0 M o < p i p u A r.r.5.@ i p i < 5.r.r. .i p u i y X.r.r.A p i i < @.r.r.! u p k 3 l R f g N R ` ,.x 8 8 8 ",
"6 6 6 =.<.<.=.=.1.>.M i S < p k a p S y.y.q.@ k p a < q.y.t. .a p p p i *.y.y.D p p p < #.u.u.) p a p 3 X.d f =.<.` <.,.` 7 8 8 ",
"9 7 d <.<.<.<.<.<.1.z 5.) < p a p a S u.y.q.@ p p p < q.y.y. .a p a p y 5.y.y.D p p p < #.y.y.) p a p 1 r. .| <.<.<.<.<.<.e 9 6 ",
"9 9 ] <.<.-.r E :.,.) y.) < a p a p S y.y.q.@ a p a < q.y.y. .p p p p y 5.y.y.S a a p < #.y.y.) p a a 1 t.q.  <.=.;.;.,.<.` 7 7 ",
"u u <.,.<.<.1.E v J 5.y.) < z p p p S u.y.q.@ p p p < q.y.y. .a a p a y 5.t.y.S a p p < @.u.y.) a p a 4 y.t.L 0.N v v ` 1.>.4 7 ",
"u u R R T R R R Y Z t.y.) < p a p a S y.y.q.@ a a p < q.y.y. .p p z a i &.y.y.S p p p < #.y.y.) p p p 4 t.y.@.  C R R R T T r 8 ",
"u X               Z t.y.) < p p p p S y.y.8.@ a a p < q.y.y. .a p p p y &.u.y.S a p z < @.u.u.) p a p < t.y.y.            . h h ",
"Y =.=.N . . . U } A ) )  .) ) ) ) ) ) ) ) ) ) ) ) )  .I ) ) ) ) ) ) ) ) ) ) ) ) ) ) ) ) ) ) ) ) I  .X. .) ) ) n =.=.=.-.=.=.=.d ",
"Y   ; s =.1.<.T / @.u.u.a.b.c.y.y.y.y.y.y.a.N.f.y.t.y.y.y.y.y.u.B.l.y.y.y.y.y.y.y.b.B.i.y.y.y.y.y.y.c.n.y.y.y.b 0 s s s s 0 =.b ",
"v Y ` <.<.<.<.<.U @.u.u.5.s.p.y.y.y.y.y.t.w.k.y.y.y.y.y.y.y.y.5.h.s.y.y.y.u.y.y.y.s.j.u.y.y.y.y.y.r.t.i.y.y.y.d J 1.1.1.1.M     ",
"R 6.<.<.<.<.1.<.,.A ) ) ) ) ) ) ) ) ) ) ) ) ) ) ) ) ) ) ) ) ) ) ) ) ) ) ) ) ) ) ) ) ) ) ) ) ) ) ) ) ) ) ! ) ) C <.1.1.<.<.,.E f ",
"Y <.1.<.1.<.<.<.,.X.y.y.) < k p a p S y.y.q.@ k p p < q.y.u. .p p a p y 5.y.y.S p p p < @.y.t.) p p z 3 y.y.y.V <.<.<.1.<.<.<.N ",
"Y =.} =.=.=.=.=.{ X.y.y.) < a a p p S y.y.q.# p p p < 8.y.u. .p z p p y &.y.y.S a p z < #.y.y.) p p p 4 y.y.y.v =.=.=.=.=.} =.n ",
"[                 #.y.y.) < k p a z S y.y.q.@ p p z < q.y.y. .p p p a y &.y.y.S p p p < #.y.y.) p a p 3 y.y.y.                  ",
"~ n N N R   0 n n #.y.y.) < a p a p S y.y.8.@ a a p < q.y.y. .a p a a y &.y.u.S p a p < #.y.y.) a a p 4 y.y.y.0 N N N s N n m 0 ",
"G ^ / } m R R 6 ` #.y.y.) < p p a p S y.y.q.@ p k p < q.t.y. .a a p p y 3.y.y.S p p p < #.y.y.) p a p 4 t.y.y.g ` , 6 * U ` E f ",
"+.E R e : / ^ / R X.u.y.) < a p p a S y.y.q.@ p a p 1 q.y.u. .p p p a y &.y.u.S a a a < #.y.y.) a a p 4 t.t.y.$ > E R v O ^ ^ g ",
"U / C : x / / / R X.u.y.) < a a p p S y.y.q.@ p p p < q.y.y. .a p a a i &.y.y.S p a a < #.y.y.) p p p 4 t.y.y.g R ^ ` ' 0 N / g ",
"U ^ ^ U N R ^ ^ R L %.%.D % 5 5 5 5 i %.%.X.. 5 w 5 % @.%.%.H w 5 5 5 4 ! %.&.i 9 5 5 % L %.&.D 5 5 5 < %.%.%.g / ` / R C N / g ",
"U / ^ ^ E ` E E R ) q.q.q.q.q.q.q.q.q.q.q.q.q.q.q.q.q.q.q.q.q.q.q.q.q.q.q.q.q.q.q.q.q.q.q.q.q.q.q.q.q.8.q.q.q.g / ^ / R / / / g ",
"J U U U C U U U U @.y.y.i.M.x.y.u.u.y.y.y.a.Z.a.y.y.y.y.u.u.u.u.C.x.y.y.y.y.y.y.t.m.C.i.y.y.y.y.y.y.M.b.y.y.y.s U U U U U U U s ",
"v N N N N N N N m @.y.y.w.g.u.y.y.y.y.y.y.r.g.y.y.y.y.y.y.u.y.w.u.i.u.y.y.y.y.y.y.t.f.i.y.y.y.y.y.y.a.a.y.y.y.e N N N N N N N 0 ",
">.<.<.` ;.,.<.<.,.Z P I p @ < < < < 4 I I H . < < < @ K ! P z < < < < & S I I 4 1 < < @ Z I I i < < < # P P ! N <.<.<.<.1.<.<.N ",
",.6.6.} ,.6.6.<.,.@.y.y.) < p p p p S y.t.8.@ p a a < q.y.y. .a a p p y *.y.y.S p p p < #.u.t.) a a p 4 y.y.y.M <.<.` s d N 1.N ",
"<.<.<.<.<.<.<.<.,.@.u.y.) < a p p p S y.y.q.@ a p a < q.y.y. .k p p p y *.y.y.S a p p 1 #.y.y.) a a p 4 t.y.y.N <.<.<.,.<.=.r ; ",
"<.<.<.<.<.<.<.<.,.@.y.y.) < p p p p S t.u.q.@ a p p < q.t.u. .p p a p y *.y.y.S p p p < @.y.y.) p p a 4 t.y.y.N <.<.<.<.<.<.1.N ",
"<.<.<.<.<.<.<.<.,.@.t.t.) 1 a p p p S y.y.q.@ a p p < q.u.u. .a p p p y *.y.y.S a p k < #.y.y.) p p p 4 y.t.t.N <.<.<.<.<.<.<.N ",
"<.<.<.<.<.<.<.<.,.@.t.u.) 1 p a a p S y.u.q.# a p p < q.y.y. .a p a a y 5.u.y.S a p p < #.y.y.) p p p 4 t.t.u.N <.<.<.<.<.1.<.N ",
"r e r s s r r r r @.y.y.) < a a p p D u.y.q.@ p a a < q.y.y. .a p p p y &.u.y.D p p p < #.u.t.) a a p 1 t.y.t.= r r d r r e r ; ",
"R ^ ^ ^ / ^ R ` T  .w.w.X.K I I ! I ) q.w.5.H P I I K 7.w.w.X.I I I I I &.w.w.! ! I I K #.w.w.X.I I ! G w.r.w.g / / / / ` R ` g ",
"/ ^ / ^ ^ / / E T X.r.r.t.c.i.r.r.r.r.r.r.u.x.t.r.r.t.r.r.t.r.r.h.t.r.r.r.r.r.r.r.j.a.t.r.r.r.r.r.r.j.h.r.r.r.g ^ ^ ^ ^ ` ` R f ",
"^ / / / ^ / / ^ R X.y.y.q.h.k.y.y.y.t.y.y.q.h.s.y.t.t.t.t.y.y.r.v.f.y.y.y.y.y.u.w.l.v.a.y.y.y.y.y.t.u.j.t.t.t.g / ^ ^ ^ R R ^ g ",
"{ U , N ` U , N R A.A.A.A.A.A.A.A.A.A.A.A.A.A.A.A.A.A.A.A.A.A.A.A.A.A.A.A.A.A.A.A.A.A.A.A.A.A.A.A.A.A.A.A.A.A.g ,./ ^ ^ ^ =., + ",
"f d ^ / v d ^ ^ R A.A.A.A.A.A.A.A.A.A.A.A.A.A.A.A.A.A.A.A.A.A.A.A.A.A.A.A.A.A.A.A.A.A.A.A.A.A.A.A.A.A.A.A.A.A.g / =., , , ^ ^ g ",
"^ / / R ^ / / / R A.A.A.A.A.A.A.A.A.A.A.A.A.A.A.A.A.A.A.A.A.A.A.A.A.A.A.A.A.A.A.A.A.A.A.A.A.A.A.A.A.A.A.A.A.A.f ^ ^ ` ' E / / g ",
"R / / ^ / / / / R A.A.A.A.A.A.A.A.A.A.A.A.A.A.A.A.A.A.A.A.A.A.A.A.A.A.A.A.A.A.A.A.A.A.A.A.A.A.A.A.A.A.A.A.A.A.g / R / / / / / g ",
", , , , , , , , > A.A.A.A.A.A.A.A.A.A.A.A.A.A.A.A.A.A.A.A.A.A.A.A.A.A.A.A.A.A.A.A.A.A.A.A.A.A.A.A.A.A.A.A.A.A.+ , , , , , , 6 $ ",
"1.6.<.<.1.1.<.,.,.A.A.A.A.A.A.A.A.A.A.A.A.A.A.A.A.A.A.A.A.A.A.A.A.A.A.A.A.A.A.A.A.A.A.A.A.A.A.A.A.A.A.A.A.A.A.N 1.1.<.<.<.<.<.N ",
"<.6.<.<.<.6.<.<.;.A.A.A.A.A.A.A.A.A.A.A.A.A.A.A.A.A.A.A.A.A.A.A.A.A.A.A.A.A.A.A.A.A.A.A.A.A.A.A.A.A.A.A.A.A.A.N <.<.=.=.<.<.<.N ",
"T 1.<.<.Y <.<.1.,.A.A.A.A.A.A.A.A.A.A.A.A.A.A.A.A.A.A.A.A.A.A.A.A.A.A.A.A.A.A.A.A.A.A.A.A.A.A.A.A.A.A.A.A.A.A.N <.,.;.} <.<.<.N ",
"' <.<.} ' <.1.<.;.A.A.A.A.A.A.A.A.A.A.A.A.A.A.A.A.A.A.A.A.A.A.A.A.A.A.A.A.A.A.A.A.A.A.A.A.A.A.A.A.A.A.A.A.A.A.N <.<.<.R d M ' ; ",
"<.<.1.<.1.<.<.<.>.A.A.A.A.A.A.A.A.A.A.A.A.A.A.A.A.A.A.A.A.A.A.A.A.A.A.A.A.A.A.A.A.A.A.A.A.A.A.A.A.A.A.A.A.A.A.N <.<.<.<.m <.<.N ",
"<.<.<.<.<.1.<.<.,.A.A.A.A.A.A.A.A.A.A.A.A.A.A.A.A.A.A.A.A.A.A.A.A.A.A.A.A.A.A.A.A.A.A.A.A.A.A.A.A.A.A.A.A.A.A.V 1.<.<.<.<.<.<.N ",
"l N N N N N N N n A.A.A.A.A.A.A.A.A.A.A.A.A.A.A.A.A.A.A.A.A.A.A.A.A.A.A.A.A.A.A.A.A.A.A.A.A.A.A.A.A.A.A.A.A.A.e N N N N N N N e ",
"C U U U U U U U N A.A.A.A.A.A.A.A.A.A.A.A.A.A.A.A.A.A.A.A.A.A.A.A.A.A.A.A.A.A.A.A.A.A.A.A.A.A.A.A.A.A.A.A.A.A.r U C U U U C U r ",
"^ R R / ^ T ^ E R A.A.A.A.A.A.A.A.A.A.A.A.A.A.A.A.A.A.A.A.A.A.A.A.A.A.A.A.A.A.A.A.A.A.A.A.A.A.A.A.A.A.A.A.A.A.g ` E R R E E ` g ",
"/ , M { Y v =.R T A.A.A.A.A.A.A.A.A.A.A.A.A.A.A.A.A.A.A.A.A.A.A.A.A.A.A.A.A.A.A.A.A.A.A.A.A.A.A.A.A.A.A.A.A.A.g ^ ` N N R R ^ f ",
"U v ` ^ C ' ^ U ` A.A.A.A.A.A.A.A.A.A.A.A.A.A.A.A.A.A.A.A.A.A.A.A.A.A.A.A.A.A.A.A.A.A.A.A.A.A.A.A.A.A.A.A.A.A.x N { U v x E ^ g ",
"J R ^ / E / / E ^ A.A.A.A.A.A.A.A.A.A.A.A.A.A.A.A.A.A.A.A.A.A.A.A.A.A.A.A.A.A.A.A.A.A.A.A.A.A.A.A.A.A.A.A.A.A.v C ^ / U R ^ E g ",
"U / ^ / / / / E R A.A.A.A.A.A.A.A.A.A.A.A.A.A.A.A.A.A.A.A.A.A.A.A.A.A.A.A.A.A.A.A.A.A.A.A.A.A.A.A.A.A.A.A.A.A.g / / / / ` ^ ^ f "
};
