/* XPM */
static char *wall0[] = {
/* columns rows colors chars-per-pixel */
"64 64 153 2 ",
"   c #000000",
".  c #0A0B0B",
"X  c #030514",
"o  c #070C10",
"O  c #090E12",
"+  c #0E151B",
"@  c #131514",
"#  c #161817",
"$  c #10171F",
"%  c #191C1B",
"&  c #1E201F",
"*  c #161D25",
"=  c #181E26",
"-  c #1D2123",
";  c #17212A",
":  c #1B242D",
">  c #1F2932",
",  c #242625",
"<  c #262827",
"1  c #23262F",
"2  c #272928",
"3  c #2A2C2B",
"4  c #2E302F",
"5  c #252731",
"6  c #262932",
"7  c #292B35",
"8  c #222E3A",
"9  c #2C2E39",
"0  c #2C3033",
"q  c #24313C",
"w  c #2D323B",
"e  c #343635",
"r  c #363837",
"t  c #31343D",
"y  c #373A3A",
"u  c #3B3F3E",
"i  c #3B403E",
"p  c #273540",
"a  c #293642",
"s  c #2C3A46",
"d  c #2D3B48",
"f  c #323441",
"g  c #3C3F40",
"h  c #333D4A",
"j  c #3E4144",
"k  c #33414E",
"l  c #3B4149",
"z  c #344453",
"x  c #394553",
"c  c #374957",
"v  c #394956",
"b  c #374858",
"n  c #3A4B5A",
"m  c #3E505E",
"M  c #3F5263",
"N  c #414546",
"B  c #43474A",
"V  c #464A4D",
"C  c #4A4B4D",
"Z  c #474955",
"A  c #4D4E52",
"S  c #4A4E59",
"D  c #4E5154",
"F  c #42515E",
"G  c #505457",
"H  c #53575A",
"J  c #575B5E",
"K  c #585C5F",
"L  c #425363",
"P  c #4A5764",
"I  c #445768",
"U  c #465A6B",
"Y  c #495C6D",
"T  c #535561",
"R  c #545B64",
"E  c #595C61",
"W  c #535E6E",
"Q  c #475E70",
"!  c #485D70",
"~  c #565F70",
"^  c #5D6164",
"/  c #5B606D",
"(  c #4D6476",
")  c #4F6678",
"_  c #526474",
"`  c #596070",
"'  c #526679",
"]  c #52697D",
"[  c #5A6A79",
"{  c #606467",
"}  c #62666A",
"|  c #65696C",
" . c #6A6E6F",
".. c #606672",
"X. c #686775",
"o. c #646B73",
"O. c #6A6E71",
"+. c #6C7073",
"@. c #6B737D",
"#. c #717576",
"$. c #73767A",
"%. c #74787D",
"&. c #787C7F",
"*. c #546D81",
"=. c #596F84",
"-. c #567186",
";. c #5A7186",
":. c #5B768B",
">. c #5C788E",
",. c #5C7890",
"<. c #6D7380",
"1. c #717785",
"2. c #757A86",
"3. c #7A7D82",
"4. c #647E93",
"5. c #7D8085",
"6. c #7F8789",
"7. c #678095",
"8. c #7E8892",
"9. c #818787",
"0. c #818689",
"q. c #868B8E",
"w. c #878F91",
"e. c #8A8F92",
"r. c #8D9396",
"t. c #8F9498",
"y. c #909497",
"u. c #909599",
"i. c #95989D",
"p. c #989C9F",
"a. c #979CA0",
"s. c #999CA1",
"d. c #9EA1A6",
"f. c #9DA2A8",
"g. c #A1A2A7",
"h. c #A1A6AA",
"j. c #A5A8AD",
"k. c #A7AAB1",
"l. c #AAADB3",
"z. c #AEB1B6",
"x. c #AFB2B9",
"c. c #B1B4BB",
"v. c #B5B8BD",
"b. c #BABDC2",
"n. c #C1C4CB",
"m. c #C7C8CC",
"M. c #CACBCF",
"N. c #CFD1D4",
"B. c #D1D2D7",
"V. c #D6D7DB",
"C. c #D7D8DB",
"Z. c #DADBDF",
"A. c #DCDDE1",
/* pixels */
"6 6 7 6 6 6 6 7 7 7 9 w t t t t t t t t t t t t t r t t t t f t t t 9 7 9 w 9 9 w 9 7 7 7 t t w t t 9 w 0 w 9 t t t 7 9 t t t t ",
"6 7 7 6 6 6 6 6 6 6 6 7 t t w 9 7 7 t 7 9 t t t w 7 w t t w t t t B 3.2.2.2.2.2.1.@.@.@.2.} 6 6 5 5 5 5 6 6 6 7 7 7 6 6 9 t 7 t ",
"6 7 7 6 6 5 6 6 6 3 9 t t t 5 5 6 6 9 w w w t h I n ! ! Y I m n F h x Y f h b ! ! I ' _ ~ ..6 6 6 6 6 6 6 6 7 6 w 7 6 6 6 7 t 7 ",
"6 6 6 6 6 6 6 6 7 w t t t t 7 t w n ( >.>.:.) ' p 5 ! ! ! ! ! ! ! U a n n ! ! b $ >.>.>.>.) a 8 7 7 6 6 6 6 7 7 6 7 6 6 6 6 6 6 ",
"7 6 6 6 6 6 6 6 w w w w t 5 5 F :.>.>.>.,.a L :.*.o z ! ! ! ! ! ! ! U ! ! ! n * ( >.>.>.v z -.z w 6 5 5 6 6 7 6 7 6 7 7 t t 7 t ",
"6 6 6 6 6 6 6 6 7 6 6 6 t z n * *.>.>.>.F x *.:.>.*.p U Y I L ! ! ! ! U a U b p *.>.) q a >.>.>.>.>.P T } X.X.l 6 6 t t w 6 6 6 ",
"7 6 6 6 6 6 5 6 6 6 6 9 I ! ! n U >.>.>.>.-.n ' >.*.d a b $ 8 v n I ' n U h n ,.>.>.>.>.>.>.>.>.>.Y m m ~ ~ ~ E 7 t t t 7 6 6 7 ",
"7 5 6 6 6 6 6 6 6 6 x ! Y ! ! ! 5 I >.>.,.>.>.>.>.>.>.x   n I x b = n L ! > ' ,.:.>.>.>.I >.>.>.I = I ! ! ~ ~ T w w t 7 7 t 7 t ",
"6 6 6 6 6 6 9 6 6 F U ! ! ! ! ! L + I 4.n p a a p >.>.:.q Y ! ! ! I L ! a *.>.>.>.>.) a ) >.>.I + M n n ! ! n Z t 0 t t t t t t ",
"7 6 7 6 7 7 6 6 I Y ! ! ! ! ! Y Y I : 8 *.>.>.>.>.>.:.>.b 5 ! ! ! ! ( ] c >.>.>.n q I >.>.>.( = L ! ! ! Y Y n 8 t t t t t t t w ",
"6 7 6 7 t w w U U ! ! ! ! ! ! ! n P E K K K K K K K K K R J K K J E E E K K E K J K J K R K V d L ! L L ! ( ( U U h t t t t 6 5 ",
"7 9 7 6 5 9 : M ! ! ! ! ! ! ) R E 3.r.t.u.s.M.u.t.t.t.t.t.r.u.g.v.s.r.t.r.u.y.y.t.x.z.t.t.t.q.#.j n c c Q U ! ! ! I 1 7 6 6 6 1 ",
"7 7 7 5 5 *.*.n > ! ! ! ! k V 0.r.u.r.u.t.q.c.h.t.t.t.t.u.t.u.e.c.d.u.u.y.u.r.r.0.c.c.s.t.t.r.t.t.0.G c ! ! ! ! ! 7 c 9 6 5 6 6 ",
"5 7 7 5 *.z -.,.b : I ! n   H ^ ^ { ^ ^ ^ E N ^ ^ ^ ^ ^ ^ ^ E G g G { E ^ E ^ ^ ^ i B ^ ^ E ^ ^ ^ ^ y 8 Y Y U p % c U ( 6 6 6 6 ",
"6 5 5 x >.*.L *.>.z 8 b o , y y y y B e.e.3.@ y y y , 3.e.e.^ y y y y e +.r.e.B u y y , O.r.e.J y y u 2 h U s s n U ( >.l 6 6 6 ",
"5 7 5 *.>.>.*.*.>.:.n y V , u g u u V t.u.0.@ g i i < 0.u.u.} u g u g y 3.r.r.V u u i , O.t.t.^ g i u 3 | a s *.>.' >.>.( 6 5 6 ",
"6 6 a >.>.>.>.>.,.,.j 5.^ , i u u j V t.t.0.@ i i u , 0.t.t.} i u u u r 3.t.t.C u u u , +.t.t.^ u i u 2 e.^ [ >.>.>.>.>.>.w 6 5 ",
"9 7 ' >.>.=.w Y *.:.^ t.^ , i u u u V u.r.0.@ i u u , 0.u.r.} u u u i r 3.t.t.V i u u , +.t.t.^ u u u 2 r.0.  ,.-.-.-.:.>.( 6 5 ",
"t t >.>.,.,.>.Y x F 3.u.^ , i u u i V u.u.0.@ i g u , 0.t.t.} u i u u r %.t.t.V j u u , +.t.t.^ u u u 3 t.r.H 8.n z z ) ,.=.7 5 ",
"t t U U I U I U P N r.t.^ , u u u u V r.t.0.@ u i i , 0.t.t.} u u i u y %.t.t.V u u i , +.t.t.^ u u u 3 r.t.O.  m U U U U I w 7 ",
"t X               N r.r.^ , u i u u V t.t.0.@ u i i < 0.t.y.} i u u u y %.t.t.V u u u , O.t.u.^ u i u , r.t.t.            . f f ",
"P *.*.c . . . L ] B ^ ^ ^ ^ ^ ^ ^ ^ ^ ^ ^ ^ ^ ^ ^ ^ ^ ^ ^ ^ ^ ^ ^ ^ ^ ^ ^ ^ ^ ^ ^ ^ ^ ^ ^ ^ ^ ^ ^ ^ O.^ ^ ^ ^ c *.*.*.*.*.*.*.a ",
"P   ; a *.,.>.I ! O.t.t.d.m.v.t.t.t.t.t.t.s.B.g.u.r.t.u.t.r.t.u.V.z.t.t.t.t.t.t.t.m.V.p.u.t.t.t.r.r.v.M.t.t.t.z 8 a a a a q *.b ",
"z P ) >.>.>.>.>.L O.u.u.0.s.a.r.r.t.t.t.t.q.l.t.r.t.t.r.u.u.t.3.k.d.t.t.t.t.t.t.t.d.k.r.r.u.t.t.t.r.r.p.t.t.t.a n >.,.,.,.x     ",
"U 4.>.>.>.>.>.>.:.B ^ ^ ^ ^ ^ ^ ^ ^ ^ ^ ^ ^ ^ ^ ^ ^ ^ ^ ^ ^ ^ ^ ^ ^ E ^ ^ ^ ^ ^ ^ ^ ^ ^ ^ ^ ^ ^ ^ ^ ^ ^ ^ ^ / L ,.,.>.>.>.:.Y d ",
"P >.>.>.>.>.>.>.:. .r.r.^ , j u i u V t.t.0.@ i g u , 0.r.u.} i u u u y 3.u.t.V i u g , O.t.r.^ u u u 3 r.t.t.n ,.>.>.>.>.>.>.n ",
"P *.] -.*.*.*.*.) O.u.t.^ , u u g i V t.t.0.@ u u j , 6.t.u.} u g u u r %.t.r.V u u g , O.t.t.^ u u i 3 r.r.t.z *.-.*.*.-.] *.c ",
"W                 +.t.t.^ , i g u u V t.t.0.@ u u g , 0.u.r.} u u u u r %.t.u.V u i u , +.t.t.^ u u u 2 r.u.t.                  ",
"W c n v U   8 c c O.t.t.E , i u u u V t.t.0.@ u u u , 0.t.t.} j u i u r $.r.u.V u i u , +.t.u.^ i i u 3 r.t.t.8 v c c s n v n q ",
"S ! ! ] v U U 6 ) O.t.t.^ , u u i u V t.t.0.@ u u u , 0.t.t.} u u u u r %.u.u.V u u u , +.u.r.^ i u u 3 r.t.t.d ! 8 > * L ! Y s ",
"o.! U q : ! ! ! U  .t.t.^ , g u u i V t.t.0.@ u u u , 0.t.t.} i u u u y %.t.u.V u i i , +.u.t.^ i i u 3 r.t.t.$ > ! ! z O ! ! d ",
"L ! M : k ! Y ! U  .t.t.^ < i u u u V t.t.0.@ u u i , 0.t.t.} i u u u r $.t.t.V u u i , +.t.t.^ u u u 3 r.t.t.d Y ! Y ) q n ! d ",
"L ! ! M c Q U ( U H #.$.C % 4 4 e 3 y #.#.| . 0 0 3 % O.#.#.D 4 4 4 0 3 E #.#.y 7 4 4 % H $.$.C 4 4 4 - $.#.$.d Q ( ! U M n ! d ",
"L ! ! Y ! ( U Y U ^ 0.0.0.0.0.0.6.q.0.0.0.0.0.0.0.0.6.0.0.0.0.q.0.9.0.0.0.0.0.0.0.0.9.0.0.0.0.0.0.0.0.0.0.0.6.s ( Y ! U ! ! ! d ",
"F L I M L L L L L  .r.u.s.N.z.y.r.t.u.r.u.s.A.s.y.u.t.t.t.t.r.u.Z.c.r.r.t.t.u.u.t.N.A.i.r.u.r.u.r.r.N.M.t.t.t.q m L L L L L I p ",
"z n n n n n n n v O.u.u.q.d.i.r.t.t.y.r.r.r.h.t.t.y.t.t.t.t.y.q.u.p.t.t.r.t.t.t.t.r.d.i.u.y.u.r.t.r.p.d.t.t.t.q n n n n n n n 8 ",
"-.>.>.( -.>.>.>.:.N K K y @ , , , , 3 K K D . , , , @ H R K j , , , , & V K E 3 , , , @ N K K y , , , @ J J R n >.>.>.>.>.>.>.n ",
":.4.4.) :.4.4.:.:.O.u.r.^ , u u u u V r.t.0.@ i i i , 6.t.t.} i u u u r &.t.r.V i u u , +.r.u.^ j i u 3 t.t.t.n >.>.( a s n >.n ",
">.>.>.>.:.>.>.>.:.O.u.t.^ , u u u u V u.r.0.@ i u u , 0.t.t.} u u i i y &.r.u.V u u u , +.u.t.^ i u u 3 r.t.t.n >.>.>.:.:.*.w ; ",
">.>.>.>.>.>.>.>.:.+.t.t.^ , u u u u V r.y.0.@ u u u , 0.t.t.} u u u i r &.t.t.V i u u , O.u.t.^ i i u 3 r.t.t.n >.>.:.>.>.>.>.n ",
">.>.>.>.>.>.>.>.:.O.y.t.E , u u u u V u.t.0.@ u i u , 0.y.r.} i u u u r %.u.u.V i u u , O.u.t.^ i i i 3 r.t.r.n >.>.>.>.>.>.>.n ",
",.>.>.,.>.>.>.>.:.O.y.t.E , u u u u V t.t.0.@ u u u , 0.t.t.} i u i u r 3.u.u.V i u u , +.u.t.^ u u u 3 r.t.u.n >.>.>.>.>.>.>.n ",
"w p w q w q w w p O.u.t.^ , u u u i V u.u.0.@ u u u , 0.t.t.} i u u i r $.r.r.V i i i , +.y.r.^ u u i 3 r.t.u.= q q w q q q w ; ",
"U ! ! ! ( ( U ( U ^ w.q.O.H E K K K ^ q.q.3.A K K K G 3.q.q.O.E K K K J %.q.q.^ J K K D O.q.q.| R J E D q.q.q.d ( Y ( Y Q ( U k ",
"! ! ! Q U U Q U I O.e.e.e.v.p.r.w.r.e.r.e.u.c.r.r.w.e.r.e.e.e.e.j.r.r.w.e.e.r.e.r.j.s.r.r.w.e.r.r.e.j.j.e.e.e.d ! ! ! ! ! ! ! s ",
"Q ! ! ! U ( Q ( U O.u.t.q.j.k.r.y.r.r.r.u.0.j.d.t.r.r.u.t.t.t.e.b.d.t.r.r.r.t.r.q.z.b.s.r.r.u.y.r.e.u.k.y.r.r.d ! ! ! Q ! ! ! d ",
"] M > n ( M > b I K 3.3.$.#.3.3.3.3.3.3.3.#.#.3.3.3.3.3.3.3.3.3.3.3.3.3.3.3.3.3.3.%.3.3.3.3.3.3.3.3.$.&.3.3.2.d :.! ( Q ( ) > $ ",
"a a Q Q b a Q Q U C } { j @ , , , , 7 } } E . , , , @ K } } N , , , , - D } } 0 , , , @ C } { j , , < # } { } d ! ) > > > Y ( d ",
"! ! ! Y M ( Q Q U o.t.t.^ , i i g u V t.t.0.@ u u u , 0.t.t.} u u i u r %.t.t.V i u i , +.u.t.^ i u u 3 r.t.t.d ! ! ( ) ! ! ! d ",
"U ! ! ! ( U Q Q U O.t.r.^ , i i i u V t.t.0.@ u u u , 0.t.t.} i u u u r %.t.r.V j u u , +.r.t.^ i u u 3 r.t.t.d ! ! ! ! ! ! ! s ",
"> > > > > > > > > O.t.t.^ , u u u u V t.t.0.@ u u u , 0.t.t.} i u u i r %.u.t.V u u i , +.u.u.^ u i u 2 r.t.r.* > > > > > > > * ",
">.7.>.>.>.7.>.>.:. .t.t.^ , u u i u V t.t.0.@ u i u , 0.u.u.} u u i u e 3.t.t.V u u i , +.t.u.^ u u u 3 r.t.r.n >.>.>.>.>.>.>.c ",
">.7.>.>.>.7.>.>.:.O.u.t.^ , i i u u V u.r.0.@ u u u , 0.r.u.} i u i u y &.t.t.V u u i , +.u.u.^ u u u 3 r.r.t.n ,.>.*.*.>.>.>.n ",
"M >.>.:.M >.>.,.:.O.t.t.^ , j u u u V t.t.0.@ u u u , 0.u.r.} i u u u r &.t.t.V u u u , +.u.r.^ u i u 3 r.u.u.n ,.,.*.*.>.>.>.n ",
") >.>.*.) >.,.>.:.V ^ ^ j @ < 2 2 2 0 ^ ^ J . 3 2 3 @ J ^ ^ N 2 3 , 3 , A ^ ^ 0 2 2 2 # V E { g 2 2 3 % ^ ^ ^ n >.>.>.L a b ( = ",
",.,.>.>.>.>.>.>.:.u 0.9.9.i.r.6.0.0.0.0.0.q.s.q.0.0.0.0.0.0.0.q.i.e.0.9.0.0.0.0.0.u.s.0.0.0.0.0.0.6.r.s.0.0.0.n >.>.>.>.n >.,.n ",
":.>.>.>.>.,.>.,.:.j r.r.w.B.b.u.r.r.r.u.t.p.Z.j.t.t.t.t.r.t.u.s.B.b.y.r.r.u.t.t.t.n.V.a.t.t.u.t.u.t.b.B.t.t.t.n ,.>.>.>.>.>.>.n ",
"h n n n n n n n v j q.q.9.9.r.q.q.q.q.q.q.0.q.r.q.q.q.q.q.q.q.5.3.e.q.q.q.q.q.q.q.3.0.r.q.q.q.q.q.q.q.u.q.q.q.8 n n n n n n n q ",
"M I I L L L I m n B ^ ^ u @ , , , , 3 ^ ^ H . , , , @ J ^ ^ g , , , < - D ^ ^ 3 , , , @ V ^ ^ i , , , # ^ ^ ^ w L L L L L M L w ",
"! I U ! U U ! Y U +.r.r.^ , i u u u V t.r.0.@ i i u , 0.t.u.| i u u u t $.y.r.V u u g , +.y.t.^ u g u 3 r.t.t.d ! ! U U ! Y ( d ",
"! > c ] I x *.U U +.t.t.^ , i i u u V t.u.0.@ u u i , 0.t.t.} i u u u r %.y.t.V u u u , +.t.t.^ u i u 3 r.t.t.s ! ( c n U ! ! s ",
"M z ( ! M ( ! M ) O.t.y.^ , u i u u V u.t.0.@ u u u , 0.t.t.} u u u i r $.u.t.V u i i , +.t.t.^ u u u 3 r.t.t.z n ' L z d ! ! d ",
"m U ! ! U ! ! ! (  .r.y.^ , i u u u V t.t.0.@ u u i , 0.t.u.} u u u u r %.t.t.V u u u , +.t.t.^ i u u 3 r.t.t.z M ! ! M Y ! ! d ",
"I ! ! ! ! ! ! Y U O.y.r.^ , i i u u V t.t.0.@ u u u , 0.t.u.} i u u u r %.t.u.V i i u , +.r.t.^ u g i 3 r.t.t.d ! ! ! Y ) ! ! s "
};
