/* XPM */
static char *wall12[] = {
/* columns rows colors chars-per-pixel */
"64 64 139 2 ",
"   c #000000",
".  c #0A0B0C",
"X  c #030514",
"o  c #070C10",
"O  c #090E12",
"+  c #0F161C",
"@  c #121513",
"#  c #10171E",
"$  c #1A1C1B",
"%  c #161D26",
"&  c #181E25",
"*  c #17212A",
"=  c #1B242C",
"-  c #1E292F",
";  c #1F2932",
":  c #242625",
">  c #262827",
",  c #23262F",
"<  c #262A29",
"1  c #2A2C2A",
"2  c #252732",
"3  c #292732",
"4  c #262932",
"5  c #292B35",
"6  c #222E3A",
"7  c #2C2E39",
"8  c #2C3031",
"9  c #24313C",
"0  c #2D323B",
"q  c #343635",
"w  c #363837",
"e  c #31343D",
"r  c #3B3E3E",
"t  c #3B403E",
"y  c #263741",
"u  c #293642",
"i  c #2C3A46",
"p  c #2D3B48",
"a  c #323441",
"s  c #313E47",
"d  c #3B3F40",
"f  c #343D4B",
"g  c #3D4142",
"h  c #33414E",
"j  c #3B4149",
"k  c #344453",
"l  c #394653",
"z  c #374957",
"x  c #394956",
"c  c #37495A",
"v  c #3A4B5B",
"b  c #3E505E",
"n  c #3E4F61",
"m  c #3F5163",
"M  c #414546",
"N  c #43464A",
"B  c #464A4D",
"V  c #48494E",
"C  c #474A53",
"Z  c #4A4E59",
"A  c #42515D",
"S  c #515457",
"D  c #53575A",
"F  c #575B5E",
"G  c #585C5F",
"H  c #425363",
"J  c #495764",
"K  c #445769",
"L  c #465A6C",
"P  c #495C6D",
"I  c #535561",
"U  c #545B64",
"Y  c #595B61",
"T  c #535E6E",
"R  c #475E70",
"E  c #485D70",
"W  c #565F70",
"Q  c #5D6164",
"!  c #5B606D",
"~  c #4D6476",
"^  c #4E6478",
"/  c #526374",
"(  c #596070",
")  c #526679",
"_  c #52697D",
"`  c #5A6A7A",
"'  c #63666A",
"]  c #65696C",
"[  c #6A6E6F",
"{  c #606672",
"}  c #686775",
"|  c #646B73",
" . c #6A6E71",
".. c #6C7073",
"X. c #6B737D",
"o. c #74777B",
"O. c #74787B",
"+. c #787C7F",
"@. c #546D81",
"#. c #596F84",
"$. c #567186",
"%. c #5B7286",
"&. c #57748A",
"*. c #5B768C",
"=. c #5C788E",
"-. c #5C7890",
";. c #6D7480",
":. c #717785",
">. c #757A86",
",. c #7A7D82",
"<. c #647E93",
"1. c #7D8085",
"2. c #7F8789",
"3. c #678095",
"4. c #7E8892",
"5. c #818689",
"6. c #868B8E",
"7. c #878F91",
"8. c #8A8F92",
"9. c #8D9296",
"0. c #8F9498",
"q. c #909499",
"w. c #999CA1",
"e. c #9EA1A6",
"r. c #9DA2A8",
"t. c #A1A2A7",
"y. c #A1A6AA",
"u. c #A7ABB1",
"i. c #AAADB3",
"p. c #AFB2B7",
"a. c #B2B5BC",
"s. c #B6B9BE",
"d. c #B8BBC0",
"f. c #C7C8CC",
"g. c #CACBCF",
"h. c #D2D1D7",
"j. c #D6D7DB",
"k. c #D7D8DC",
"l. c #FFFFFF",
/* pixels */
"4 4 5 4 4 5 5 5 5 5 7 0 e e e e e e e e e e e e e e e e e e e e e e 5 7 7 7 7 e 7 0 7 5 5 e 0 0 0 0 0 e 0 5 0 e e e 5 5 e e e e ",
"5 5 4 4 4 , , 4 , 5 1 5 e e 7 7 5 5 0 5 7 e e e 7 8 e e e e e e e N >.>.>.>.:.:.;.X.;.X.:.' 2 5 3 2 2 2 4 4 5 5 5 5 , 5 0 e 5 e ",
"4 4 5 4 4 5 4 , 5 , 0 e e e 5 4 3 5 0 0 e 0 e s H z E E P K v n H f l T a f z E E K ) T T { 5 5 4 4 4 2 4 4 4 5 0 5 4 , 4 5 e 5 ",
"5 4 5 4 4 5 , 4 5 0 e e e 7 5 e e x ~ =.=.*.~ _ u 2 E E E E E E E K u v v E E z # =.=.=.=.) u 2 5 5 2 5 4 4 4 5 5 5 4 5 4 4 4 5 ",
"4 4 4 2 4 4 5 5 0 7 0 0 e 4 2 v *.=.=.=.=.i H *.@.O k E E E E E E E L E E E v % ~ =.=.=.z k $.k 0 < 4 4 4 , 5 4 5 4 5 7 0 5 0 e ",
"4 4 4 4 4 4 , 5 5 5 4 5 0 l v & @.=.=.=.A z _ *.=.@.0 L E K H E E P ~ P u L z 9 @.=.~ u u =.=.=.=.=.J I ' } } M 2 4 e e e 5 1 5 ",
"5 4 4 4 4 2 5 , 4 4 5 5 K E E v L =.=.=.=.$.v _ =.$.p u z % ; z c m ) v L h v -.=.=.=.=.=.=.=.=.-.E m H W W W Y 5 e e e 5 5 5 5 ",
"5 4 4 4 4 4 , 5 4 5 l P P E E ~ , K =.=.=.=.=.=.=.=.*.l   v H z x * z H E 2 _ =.=.-.=.=.K =.=.=.K % m E E W W I 0 0 0 5 5 7 5 0 ",
"5 4 4 4 4 2 5 2 5 v E E E E P E H + K <.z u u u 9 =.=.*.9 P E E E H K E i _ =.=.=.=.~ u ~ =.=.K + K v v E E v C e 0 e e e e e e ",
"5 4 5 4 5 5 4 5 K P E P E E E P P K = 6 _ =.=.=.=.=.=.=.z 2 E P P E ~ _ x *.=.=.x y K =.=.=.~ & b E E P P P v 6 7 e e e e e e 0 ",
"3 5 4 5 0 e 0 P P E E E R R E E v J Y Y Y G G G Q F G G U F F F G G Y F F F G G F Y F F G Y B p H E H H E E E E L f e e e e 5 , ",
"5 5 5 4 4 7 = H E E E E R ~ ^ U Q +.9.0.q.w.g.9.9.0.0.q.0.9.q.e.s.w.0.0.q.0.0.0.0.p.p.0.0.9.6.o.M z z z ~ E E E P K , 5 5 , 5 4 ",
"5 4 5 2 2 $.@.v ; R E E R h B 5.0.0.0.q.0.6.a.y.q.0.0.0.9.0.q.8.a.e.q.q.9.0.0.0.5.a.a.w.q.0.9.0.0.5.D x E E E P E 8 k 0 , , 5 4 ",
"3 7 5 2 @.k @.-.c = K P c   D Y Q Q Y Q Q Y M Q Q Q Q Q Q Q Q S r D Q Q Q Q Q Q Q t B Y Y Q Q Q Q Y w 6 P E L y $ z P ~ 5 4 , 4 ",
"4 4 2 l =.@.H @.-.f 6 c o : r w r w N 8.8.,.@ w r w : 1.9.8.Q w r e w w ..8.8.N r w r :  .8.9.G w r r < f L i i z P ~ =.h 4 4 4 ",
"2 4 2 @.-.-.@.@.-.*.z r B : r d r t B 0.0.5.@ d r t : 5.0.0.' t r r g w +.0.0.B r r r : ..0.9.Q r t r < ] u i @.=.^ =.*.~ 3 4 4 ",
"4 4 u =.=.=.=.=.=.-.M ,.Q : t r t t B 0.0.5.@ t r r > 5.q.q.' t g r r w ,.0.0.V d t r : ..0.0.Q d r r < 8.' ` =.=.=.*.=.=.0 4 4 ",
"5 5 / =.=.#.0 P $.*.Q q.Q : t r r r B 0.0.5.@ r t r : 5.9.q.' r r r t w +.0.0.B r r r : ..0.0.Q r r r 1 9.5.  =.$.$.$.*.=.~ 3 3 ",
"e e =.=.=.=.=.P k A ,.q.Q : t r g t V q.q.5.@ t r t : 5.q.q.' t r r t w ,.9.0.B g r t : ..0.0.Q r r r 1 9.9.D 4.z k k ~ =.$.5 2 ",
"e e L L K L L L J M 9.0.Q : g r r r B 0.q.5.@ t r t : 5.q.9.' r r t t w O.0.0.B r t t : ..0.q.Q r r r 1 9.q. .  m L L L J K 7 5 ",
"e X               M 9.9.' : r r t r B 0.0.2.@ t t t : 5.0.9.' t t r t w o.q.0.B r t r :  .q.q.Q r t t > 9.9.q.            o e a ",
"J @.@.z . . . H _ N Q Q Y Q Q Q Q Q Q Q Q Q Q Q Q Q ' G Q Q Q Q Q Q Q Q Q Q Q Q Q Q Q Q Q Q Q Q Y ' ] ' Q Q Y x @.@.@.@.@.@.@.u ",
"J   * y @.-.=.K P ..0.q.t.f.s.q.0.0.0.0.0.w.h.t.0.0.q.9.0.0.q.q.j.p.q.9.0.0.0.q.q.f.k.w.0.0.0.0.0.0.s.h.0.0.0.k 6 u u u u 6 @.l ",
"k J ~ =.=.=.=.=.H  .q.q.,.e.w.q.0.0.0.0.9.6.i.0.0.0.0.0.0.0.0.,.u.e.q.q.0.q.0.0.0.r.u.9.0.q.0.0.0.8.9.q.0.0.0.i n =.-.-.-.c     ",
"P <.=.=.=.=.-.=.*.N Q Q Q Q Q Q Q Q Q Q Q Q Q Q Q Q Q Q Q Q Q Q Q Q Q Q Q Q Q Q Q Q Q Q Q Q Q Q Q Q Q Q Q Q Q K =.-.=.=.=.*.P p ",
"J =.-.=.-.=.=.=.*.[ 9.9.Q : t r r r B 0.0.5.@ g r t : 5.0.0.' r t r t w ,.q.9.B g t r : ..q.0.Q t t r < 9.0.9.v =.=.=.=.=.=.=.v ",
"J @._ @.@.@.@.@.~ ..0.q.Q : t r r r B 0.0.5.@ t t r : 2.0.q.' t r r r w O.0.0.B r r d : ..0.0.Q r t t 1 9.q.9.k @.@.@.@.@._ @.z ",
"T                 ..0.0.Q : r r r g B 0.9.5.@ r r r : 5.q.q.' r r t r w O.q.0.B r t r : ..9.0.Q t r r > 9.0.0.                  ",
"T x z z P   6 c v ..0.0.Q : r t t r B 0.0.2.@ r r t : 5.0.0.' t t t r w O.0.0.B r r t : ..0.q.Q r r d 1 9.0.0.6 z v z y v z x 6 ",
"Z E E _ z P L 2 ~ [ 0.0.' : r r r t B 0.0.2.@ t t d : 2.0.0.' r r r r w O.0.0.B t r g : ..0.0.Q r r t 1 9.0.0.p P 6 2 % H ~ P i ",
"| E K 9 = E E E L [ 9.9.Y : r r t r B 0.0.5.@ r r r : 5.0.0.' r t r r w O.0.0.B r r r : ..0.9.Q r r g 1 9.0.0.# ; E L k O E E p ",
"K P m = h E E E P l.l.l.l.l.l.l.l.l.l.l.l.l.l.l.l.l.l.l.l.l.l.l.l.l.l.l.l.l.l.l.l.l.l.l.l.l.l.l.l.l.l.l.l.l.l.i P E ~ ^ 6 v E p ",
"H E E m c R ~ E H l.l.l.l.l.l.l.l.l.l.l.l.l.l.l.l.l.l.l.l.l.l.l.l.l.l.l.l.l.l.l.l.l.l.l.l.l.l.l.l.l.l.l.l.l.l.p P ~ E K H v E p ",
"H E E P P P L P K l.l.l.l.l.l.l.l.l.l.l.l.l.l.l.l.l.l.l.l.l.l.l.l.l.l.l.l.l.l.l.l.l.l.l.l.l.l.l.l.l.l.l.l.l.l.p R R E P E E E p ",
"A H K m m H H H A l.l.l.l.l.l.l.l.l.l.l.l.l.l.l.l.l.l.l.l.l.l.l.l.l.l.l.l.l.l.l.l.l.l.l.l.l.l.l.l.l.l.l.l.l.l.y H H H H H H H y ",
"k v v v v v v v x l.l.l.l.l.l.l.l.l.l.l.l.l.l.l.l.l.l.l.l.l.l.l.l.l.l.l.l.l.l.l.l.l.l.l.l.l.l.l.l.l.l.l.l.l.l.9 z v v v v v v 6 ",
"$.=.=.~ $.=.=.=.*.l.l.l.l.l.l.l.l.l.l.l.l.l.l.l.l.l.l.l.l.l.l.l.l.l.l.l.l.l.l.l.l.l.l.l.l.l.l.l.l.l.l.l.l.l.l.c =.=.=.=.-.-.-.v ",
"*.3.-._ &.3.<.=.%.l.l.l.l.l.l.l.l.l.l.l.l.l.l.l.l.l.l.l.l.l.l.l.l.l.l.l.l.l.l.l.l.l.l.l.l.l.l.l.l.l.l.l.l.l.l.v =.=.~ u u z <.v ",
"=.=.=.=.=.=.=.-.%.l.l.l.l.l.l.l.l.l.l.l.l.l.l.l.l.l.l.l.l.l.l.l.l.l.l.l.l.l.l.l.l.l.l.l.l.l.l.l.l.l.l.l.l.l.l.v =.=.=.*.=.@.0 * ",
"=.=.=.=.=.=.=.=.&.l.l.l.l.l.l.l.l.l.l.l.l.l.l.l.l.l.l.l.l.l.l.l.l.l.l.l.l.l.l.l.l.l.l.l.l.l.l.l.l.l.l.l.l.l.l.z =.=.=.=.=.=.-.z ",
"=.=.=.=.=.=.=.=.*.l.l.l.l.l.l.l.l.l.l.l.l.l.l.l.l.l.l.l.l.l.l.l.l.l.l.l.l.l.l.l.l.l.l.l.l.l.l.l.l.l.l.l.l.l.l.v =.=.=.=.=.=.=.v ",
"=.=.=.=.=.=.=.=.*.l.l.l.l.l.l.l.l.l.l.l.l.l.l.l.l.l.l.l.l.l.l.l.l.l.l.l.l.l.l.l.l.l.l.l.l.l.l.l.l.l.l.l.l.l.l.v =.=.=.-.=.-.=.v ",
"0 9 9 0 0 0 0 0 0 l.l.l.l.l.l.l.l.l.l.l.l.l.l.l.l.l.l.l.l.l.l.l.l.l.l.l.l.l.l.l.l.l.l.l.l.l.l.l.l.l.l.l.l.l.l.% 0 9 0 9 0 9 0 * ",
"L ~ R R ~ R R ~ L l.l.l.l.l.l.l.l.l.l.l.l.l.l.l.l.l.l.l.l.l.l.l.l.l.l.l.l.l.l.l.l.l.l.l.l.l.l.l.l.l.l.l.l.l.l.p E E ~ P ~ P ~ p ",
"E R R R L m ~ ~ K l.l.l.l.l.l.l.l.l.l.l.l.l.l.l.l.l.l.l.l.l.l.l.l.l.l.l.l.l.l.l.l.l.l.l.l.l.l.l.l.l.l.l.l.l.l.p E E R R P E E i ",
"R E E R L ~ ~ m L l.l.l.l.l.l.l.l.l.l.l.l.l.l.l.l.l.l.l.l.l.l.l.l.l.l.l.l.l.l.l.l.l.l.l.l.l.l.l.l.l.l.l.l.l.l.u E R R R E E E p ",
"^ m ; c ~ m ; c K l.l.l.l.l.l.l.l.l.l.l.l.l.l.l.l.l.l.l.l.l.l.l.l.l.l.l.l.l.l.l.l.l.l.l.l.l.l.l.l.l.l.l.l.l.l.p %.E R R E _ ; # ",
"u i L ~ k y R ~ L l.l.l.l.l.l.l.l.l.l.l.l.l.l.l.l.l.l.l.l.l.l.l.l.l.l.l.l.l.l.l.l.l.l.l.l.l.l.l.l.l.l.l.l.l.l.p R @.9 ; ; E E p ",
"E E E P L E E E K l.l.l.l.l.l.l.l.l.l.l.l.l.l.l.l.l.l.l.l.l.l.l.l.l.l.l.l.l.l.l.l.l.l.l.l.l.l.l.l.l.l.l.l.l.l.p E E ~ ~ E E E p ",
"L E E E P ~ E E K l.l.l.l.l.l.l.l.l.l.l.l.l.l.l.l.l.l.l.l.l.l.l.l.l.l.l.l.l.l.l.l.l.l.l.l.l.l.l.l.l.l.l.l.l.l.u R P R R E E E p ",
"; ; ; ; ; ; ; ; ; l.l.l.l.l.l.l.l.l.l.l.l.l.l.l.l.l.l.l.l.l.l.l.l.l.l.l.l.l.l.l.l.l.l.l.l.l.l.l.l.l.l.l.l.l.l.% ; ; ; ; ; ; 2 + ",
"-.-.=.=.=.-.=.=.&.l.l.l.l.l.l.l.l.l.l.l.l.l.l.l.l.l.l.l.l.l.l.l.l.l.l.l.l.l.l.l.l.l.l.l.l.l.l.l.l.l.l.l.l.l.l.v -.-.=.=.=.=.=.v ",
"=.3.=.=.=.3.=.=.$.l.l.l.l.l.l.l.l.l.l.l.l.l.l.l.l.l.l.l.l.l.l.l.l.l.l.l.l.l.l.l.l.l.l.l.l.l.l.l.l.l.l.l.l.l.l.z -.=.@.@.=.=.=.z ",
"K -.=.*.K =.=.-.*.l.l.l.l.l.l.l.l.l.l.l.l.l.l.l.l.l.l.l.l.l.l.l.l.l.l.l.l.l.l.l.l.l.l.l.l.l.l.l.l.l.l.l.l.l.l.v <.=.@.@.=.=.-.v ",
"^ =.=.@.~ =.-.=.$.l.l.l.l.l.l.l.l.l.l.l.l.l.l.l.l.l.l.l.l.l.l.l.l.l.l.l.l.l.l.l.l.l.l.l.l.l.l.l.l.l.l.l.l.l.l.v =.=.=.K u z ^ * ",
"=.=.=.=.=.=.=.=.*.l.l.l.l.l.l.l.l.l.l.l.l.l.l.l.l.l.l.l.l.l.l.l.l.l.l.l.l.l.l.l.l.l.l.l.l.l.l.l.l.l.l.l.l.l.l.v =.=.=.=.z =.-.v ",
"=.-.=.=.=.-.=.-.&.l.l.l.l.l.l.l.l.l.l.l.l.l.l.l.l.l.l.l.l.l.l.l.l.l.l.l.l.l.l.l.l.l.l.l.l.l.l.l.l.l.l.l.l.l.l.n =.=.-.=.=.=.=.v ",
"k v z v v v v z z l.l.l.l.l.l.l.l.l.l.l.l.l.l.l.l.l.l.l.l.l.l.l.l.l.l.l.l.l.l.l.l.l.l.l.l.l.l.l.l.l.l.l.l.l.l.0 v z v z v v v 9 ",
"H H H H K H H H v l.l.l.l.l.l.l.l.l.l.l.l.l.l.l.l.l.l.l.l.l.l.l.l.l.l.l.l.l.l.l.l.l.l.l.l.l.l.l.l.l.l.l.l.l.l.9 H H H H H H K 0 ",
"E K L P P L E E L l.l.l.l.l.l.l.l.l.l.l.l.l.l.l.l.l.l.l.l.l.l.l.l.l.l.l.l.l.l.l.l.l.l.l.l.l.l.l.l.l.l.l.l.l.l.p E E P L E E P p ",
"E ; k _ K k _ L K l.l.l.l.l.l.l.l.l.l.l.l.l.l.l.l.l.l.l.l.l.l.l.l.l.l.l.l.l.l.l.l.l.l.l.l.l.l.l.l.l.l.l.l.l.l.p E ~ z z L E E i ",
"H k ~ E H ~ E H ~ l.l.l.l.l.l.l.l.l.l.l.l.l.l.l.l.l.l.l.l.l.l.l.l.l.l.l.l.l.l.l.l.l.l.l.l.l.l.l.l.l.l.l.l.l.l.h v ) H k s E E p ",
"H L P E P E E P ~ l.l.l.l.l.l.l.l.l.l.l.l.l.l.l.l.l.l.l.l.l.l.l.l.l.l.l.l.l.l.l.l.l.l.l.l.l.l.l.l.l.l.l.l.l.l.k H E E H P E P p ",
"K E E E E E E P K l.l.l.l.l.l.l.l.l.l.l.l.l.l.l.l.l.l.l.l.l.l.l.l.l.l.l.l.l.l.l.l.l.l.l.l.l.l.l.l.l.l.l.l.l.l.p E E E E ~ E E i "
};
