/* XPM */
static char *wall14[] = {
/* columns rows colors chars-per-pixel */
"64 64 136 2 ",
"   c #000000",
".  c #0A0B0C",
"X  c #030514",
"o  c #070C10",
"O  c #090E12",
"+  c #0F161C",
"@  c #131514",
"#  c #11161E",
"$  c #1A1C1B",
"%  c #161D26",
"&  c #181E25",
"*  c #17212A",
"=  c #1B242C",
"-  c #1E292F",
";  c #1F2932",
":  c #242625",
">  c #262827",
",  c #23262F",
"<  c #262A2A",
"1  c #2A2B2A",
"2  c #252732",
"3  c #292732",
"4  c #262932",
"5  c #292B35",
"6  c #222E3A",
"7  c #2C2E39",
"8  c #2C3031",
"9  c #24313C",
"0  c #2D323B",
"q  c #343635",
"w  c #363837",
"e  c #31343D",
"r  c #3B3E3E",
"t  c #3B403D",
"y  c #263741",
"u  c #293642",
"i  c #2C3A46",
"p  c #2D3B48",
"a  c #323441",
"s  c #313E47",
"d  c #3B3F40",
"f  c #343D4B",
"g  c #3F4144",
"h  c #33414E",
"j  c #3B4149",
"k  c #344453",
"l  c #394653",
"z  c #374957",
"x  c #394956",
"c  c #37495A",
"v  c #3A4B5B",
"b  c #3E505E",
"n  c #3E4F61",
"m  c #3F5163",
"M  c #414546",
"N  c #43464A",
"B  c #464A4D",
"V  c #48494E",
"C  c #474A53",
"Z  c #4A4E59",
"A  c #42515D",
"S  c #515457",
"D  c #53575A",
"F  c #575B5E",
"G  c #585C5F",
"H  c #425363",
"J  c #495764",
"K  c #445769",
"L  c #465A6C",
"P  c #495C6D",
"I  c #535561",
"U  c #545B64",
"Y  c #595C61",
"T  c #535E6E",
"R  c #475E70",
"E  c #485D70",
"W  c #565F70",
"Q  c #5D6164",
"!  c #5B606D",
"~  c #4D6476",
"^  c #4E6478",
"/  c #526374",
"(  c #596070",
")  c #526679",
"_  c #52697D",
"`  c #5A6A7A",
"'  c #62666A",
"]  c #65696C",
"[  c #606672",
"{  c #686775",
"}  c #646B73",
"|  c #6A6D71",
" . c #6C7073",
".. c #6B737D",
"X. c #73767B",
"o. c #787C7F",
"O. c #546D81",
"+. c #596F84",
"@. c #567186",
"#. c #5B7286",
"$. c #57748A",
"%. c #5B768B",
"&. c #5C788E",
"*. c #5C7890",
"=. c #6D7480",
"-. c #717785",
";. c #757A86",
":. c #7A7D83",
">. c #647E93",
",. c #7D8085",
"<. c #678095",
"1. c #7E8892",
"2. c #818689",
"3. c #868B8E",
"4. c #878F91",
"5. c #8A8F92",
"6. c #8D9296",
"7. c #8F9498",
"8. c #909499",
"9. c #999CA1",
"0. c #9EA1A6",
"q. c #9DA2A8",
"w. c #A1A2A7",
"e. c #A1A6AA",
"r. c #A7ABB1",
"t. c #AAADB3",
"y. c #AFB2B7",
"u. c #B2B5BC",
"i. c #B6B9BE",
"p. c #B8BBC0",
"a. c #C7C8CC",
"s. c #CACBCF",
"d. c #D2D1D7",
"f. c #D6D7DB",
"g. c #D7D8DC",
"h. c #FFFFFF",
/* pixels */
"4 4 5 4 4 5 5 5 5 5 7 0 e e e e e e e e e e e e e q e e e e e e e e 7 7 7 7 7 7 7 7 7 5 7 0 0 0 0 0 0 7 7 7 0 5 e e 5 5 e e e 0 ",
"5 5 4 4 4 , , 4 , 5 1 5 e e 7 7 5 5 0 7 7 e e e 7 7 e e e e e e e N ;.:.;.;.-.-.=...=...-.' 5 4 3 2 2 5 4 4 4 7 5 5 4 4 0 e 5 e ",
"4 4 5 4 4 5 4 , 5 , 0 e e e 5 4 2 5 7 0 e 0 e f H v E E E K v v H j l P a f v E E K ) T T [ 5 5 4 4 2 5 4 4 5 4 e 7 , 4 5 5 e 0 ",
"5 4 5 4 4 5 , 4 5 0 e e e 7 5 e e x ~ &.&.#.~ _ u ; E E E E E E E K y v v E E x # %.>.&.&.) u 2 7 5 5 , 4 4 4 5 5 5 4 5 , , 5 , ",
"4 4 4 2 4 4 5 5 0 0 0 0 e 4 2 v &.&.&.&.&.i H %.O.o k L E E E E R R L E E E v % ~ &.&.&.x k @.k 5 < 4 4 4 , 7 5 5 4 5 5 e 0 5 q ",
"4 4 4 4 4 4 , 5 5 5 4 5 0 l v & O.&.&.&.A l O.%.&.O.u K E H H E E P ^ K u L k u O.&.~ y y &.&.&.*.&.J I ' { { d , 5 e e 0 5 5 5 ",
"5 4 4 4 4 2 5 , 4 4 5 5 K E E v K &.&.&.&.@.c _ &.+.p i c % ; c c H ^ v L f v *.&.&.&.&.&.&.&.&.*.E m H W W W Y 5 e e 0 7 5 4 5 ",
"5 4 4 4 4 4 , 5 4 4 l P P E E ~ , H >.&.&.&.&.&.&.&.%.l   n H l x * v H R 2 _ *.&.&.&.&.K &.%.&.K % m E E T W Y 0 e 0 5 7 7 5 0 ",
"5 , 4 4 4 2 5 2 5 v E E E E L E H # K >.v y y y 9 &.&.%.; ~ R P E H K E u O.&.&.&.&.^ u ^ &.&.K # H v v P E A C 0 q 0 e e e e e ",
"5 4 5 4 7 5 2 5 K P E P R E E E E H = 4 O.*.&.&.&.&.&.&.c 2 E P E E ~ _ x &.&.&.z y K &.&.&.~ & H E E E P P c 6 7 e e e e e e 0 ",
"5 5 4 7 0 0 0 L P E E E E R E R v J Y Y G G G G Q G G G U G G G Y Y Y F G G Y G G Y G G G U V p H P H H R E R E L f e e e 0 5 4 ",
"5 5 4 4 4 7 = m E E E E E E ) U Q o.6.6.7.9.s.7.6.7.7.8.7.6.6.w.i.8.8.8.6.7.7.8.7.y.y.6.7.6.3.X.g v c c R E E E E H 2 5 5 4 5 2 ",
"5 5 4 2 2 +.O.v ; E E E E h V 2.6.8.6.8.7.3.u.e.7.7.7.7.8.8.8.5.i.w.8.8.8.7.6.6.,.i.u.9.7.7.6.7.6.2.D z P R R E E 8 k 0 , , 4 4 ",
"5 5 5 2 O.k O.*.c = K E c   D Q Q Q Q Q Q U g Q Q Q Q Q Q Q Y S t D Q Y Q Q Q Q Q t N Q Q Q Q Q Q Q w 4 P ~ K y $ z L ~ 3 5 2 4 ",
"4 4 , l &.+.H O.&.k 6 c o : w d r w M 6.6.o.@ w w w : ,.6.5.Y r w r w q  .4.6.N w w w : | 6.4.G w r g < f K u i v P ~ &.h 4 4 4 ",
"2 4 3 O.&.&.O.O.&.%.c w V : r r t t B 7.7.2.@ g g t : 2.7.7.' t g r r w o.7.6.V g t g :  .7.7.Q r t r < ] u p O.&.^ &.%.~ 3 4 4 ",
"4 5 i &.&.&.&.&.&.*.M ,.Q : r t r t B 8.7.2.@ t r t > 2.8.8.' t t r t w :.7.7.B t r t :  .7.7.Q r t r < 4.' ` &.&.&.&.&.&.9 5 5 ",
"7 5 / &.&.+.0 L @.%.Y 8.Q : t t r t B 6.7.2.@ t t r : 2.6.8.' r r g t w :.7.7.B d t r :  .7.7.Q r d t > 6.2.  &.+.@.@.%.&.~ 2 3 ",
"e e %.%.&.*.&.P k A :.8.Q : t r t r V 8.8.2.@ t r t : 2.8.8.' t t r t w o.7.7.B g r r : | 8.7.Q r t r 1 7.6.D 1.z k k ^ &.+.5 3 ",
"e e K L L L K L J M 6.8.Q : g r r g V 6.7.2.@ t t r : 2.8.6.' r r t t w X.7.6.V t r t :  .7.8.Q r t t 1 7.7.|   m L L K K L 7 2 ",
"e X               M 6.6.Q : t g t t B 6.7.1.@ t t t : 2.7.7.' t t r t w X.8.7.V r t r : | 8.8.Q t t r : 7.7.7.            . e a ",
"J O.O.x . . . H _ N Q Q ' Q Q Q Q Q Q Q Q Q Q Q Q Q ' G Q Q Q Q Q Q Q Q Q Q Q Q Q Q Q Q Q Q Q Q Q Q | Q Q Q Q z O.O.O.O.O.O.O.u ",
"J   * y O.&.&.K P  .7.7.9.a.p.8.7.7.8.8.8.8.d.w.7.7.7.6.7.7.7.8.f.y.7.7.7.7.8.8.6.s.g.9.8.8.7.7.8.8.p.s.7.7.7.k 6 y u u y 6 O.x ",
"k J ^ &.&.&.&.&.H | 7.7.,.w.8.6.7.7.8.8.8.3.t.7.7.7.7.7.7.7.7.:.r.0.7.7.7.8.7.6.8.q.r.6.6.8.7.7.8.5.5.9.7.7.7.u n &.*.%.>.c     ",
"L >.&.&.&.&.*.&.%.N Q Q Q Q Q Q Q Q Q Q Q Q Q Q Q Q Q Q Q Q Q Q Q Q Q Q Q Q Q Q Q Q Q Q Q Q Q Q Q Q Q Q Q Q Y K &.*.*.&.&.%.P u ",
"J &.*.&.&.&.&.&.%.h.h.h.h.h.h.h.h.h.h.h.h.h.h.h.h.h.h.h.h.h.h.h.h.h.h.h.h.h.h.h.h.h.h.h.h.h.h.h.h.h.h.h.h.h.h.c &.&.&.&.&.&.*.v ",
"J O._ O.@._ O.O.^ h.h.h.h.h.h.h.h.h.h.h.h.h.h.h.h.h.h.h.h.h.h.h.h.h.h.h.h.h.h.h.h.h.h.h.h.h.h.h.h.h.h.h.h.h.h.k O.O.O.O.@._ O.z ",
"(                 h.h.h.h.h.h.h.h.h.h.h.h.h.h.h.h.h.h.h.h.h.h.h.h.h.h.h.h.h.h.h.h.h.h.h.h.h.h.h.h.h.h.h.h.h.h.                  ",
"T z c c K   9 z z h.h.h.h.h.h.h.h.h.h.h.h.h.h.h.h.h.h.h.h.h.h.h.h.h.h.h.h.h.h.h.h.h.h.h.h.h.h.h.h.h.h.h.h.h.h.6 z v x u v z z 9 ",
"Z R E _ x P L 2 ^ h.h.h.h.h.h.h.h.h.h.h.h.h.h.h.h.h.h.h.h.h.h.h.h.h.h.h.h.h.h.h.h.h.h.h.h.h.h.h.h.h.h.h.h.h.h.p ~ 4 - * H R P p ",
"} E K 9 = E E E K h.h.h.h.h.h.h.h.h.h.h.h.h.h.h.h.h.h.h.h.h.h.h.h.h.h.h.h.h.h.h.h.h.h.h.h.h.h.h.h.h.h.h.h.h.h.+ ; P P k o ~ E p ",
"H E H = h E E E P h.h.h.h.h.h.h.h.h.h.h.h.h.h.h.h.h.h.h.h.h.h.h.h.h.h.h.h.h.h.h.h.h.h.h.h.h.h.h.h.h.h.h.h.h.h.p R R R ^ 6 v P p ",
"H E E H z P E E K h.h.h.h.h.h.h.h.h.h.h.h.h.h.h.h.h.h.h.h.h.h.h.h.h.h.h.h.h.h.h.h.h.h.h.h.h.h.h.h.h.h.h.h.h.h.p L ~ E L H v E p ",
"H E E E R ~ P P K h.h.h.h.h.h.h.h.h.h.h.h.h.h.h.h.h.h.h.h.h.h.h.h.h.h.h.h.h.h.h.h.h.h.h.h.h.h.h.h.h.h.h.h.h.h.p E E E K P R E i ",
"A H H H H H H H A h.h.h.h.h.h.h.h.h.h.h.h.h.h.h.h.h.h.h.h.h.h.h.h.h.h.h.h.h.h.h.h.h.h.h.h.h.h.h.h.h.h.h.h.h.h.y H H H K H H H y ",
"k v v v v c c c x h.h.h.h.h.h.h.h.h.h.h.h.h.h.h.h.h.h.h.h.h.h.h.h.h.h.h.h.h.h.h.h.h.h.h.h.h.h.h.h.h.h.h.h.h.h.9 c v v v v v v 6 ",
"@.&.&.~ @.&.&.&.#.h.h.h.h.h.h.h.h.h.h.h.h.h.h.h.h.h.h.h.h.h.h.h.h.h.h.h.h.h.h.h.h.h.h.h.h.h.h.h.h.h.h.h.h.h.h.v &.&.&.&.*.&.&.v ",
"&.>.>._ %.>.>.&.#.h.h.h.h.h.h.h.h.h.h.h.h.h.h.h.h.h.h.h.h.h.h.h.h.h.h.h.h.h.h.h.h.h.h.h.h.h.h.h.h.h.h.h.h.h.h.v &.&./ y i c &.v ",
"&.&.&.&.&.&.&.&.%.h.h.h.h.h.h.h.h.h.h.h.h.h.h.h.h.h.h.h.h.h.h.h.h.h.h.h.h.h.h.h.h.h.h.h.h.h.h.h.h.h.h.h.h.h.h.c &.*.&.%.&.O.0 * ",
"&.&.&.&.&.&.&.&.$.h.h.h.h.h.h.h.h.h.h.h.h.h.h.h.h.h.h.h.h.h.h.h.h.h.h.h.h.h.h.h.h.h.h.h.h.h.h.h.h.h.h.h.h.h.h.c &.&.&.&.&.&.*.v ",
"%.&.*.&.&.&.&.&.%.h.h.h.h.h.h.h.h.h.h.h.h.h.h.h.h.h.h.h.h.h.h.h.h.h.h.h.h.h.h.h.h.h.h.h.h.h.h.h.h.h.h.h.h.h.h.v &.&.&.&.>.&.&.c ",
"&.&.&.&.&.&.&.&.%.h.h.h.h.h.h.h.h.h.h.h.h.h.h.h.h.h.h.h.h.h.h.h.h.h.h.h.h.h.h.h.h.h.h.h.h.h.h.h.h.h.h.h.h.h.h.c &.&.&.&.%.&.&.v ",
"9 9 0 9 e 9 e 0 0 h.h.h.h.h.h.h.h.h.h.h.h.h.h.h.h.h.h.h.h.h.h.h.h.h.h.h.h.h.h.h.h.h.h.h.h.h.h.h.h.h.h.h.h.h.h.% 0 9 0 9 u 0 0 * ",
"L E ~ P ~ R L ~ K h.h.h.h.h.h.h.h.h.h.h.h.h.h.h.h.h.h.h.h.h.h.h.h.h.h.h.h.h.h.h.h.h.h.h.h.h.h.h.h.h.h.h.h.h.h.p R E ~ R ~ E E p ",
"E P E R R R R P L h.h.h.h.h.h.h.h.h.h.h.h.h.h.h.h.h.h.h.h.h.h.h.h.h.h.h.h.h.h.h.h.h.h.h.h.h.h.h.h.h.h.h.h.h.h.p E E E E P R R u ",
"R E E E L R R R K h.h.h.h.h.h.h.h.h.h.h.h.h.h.h.h.h.h.h.h.h.h.h.h.h.h.h.h.h.h.h.h.h.h.h.h.h.h.h.h.h.h.h.h.h.h.u E E E E P P ~ p ",
"_ H ; c ~ K ; c L h.h.h.h.h.h.h.h.h.h.h.h.h.h.h.h.h.h.h.h.h.h.h.h.h.h.h.h.h.h.h.h.h.h.h.h.h.h.h.h.h.h.h.h.h.h.p +.E E E E O.- + ",
"i y R R k u R R K h.h.h.h.h.h.h.h.h.h.h.h.h.h.h.h.h.h.h.h.h.h.h.h.h.h.h.h.h.h.h.h.h.h.h.h.h.h.h.h.h.h.h.h.h.h.u E O.y ; ; R R p ",
"P E E L R E E E K h.h.h.h.h.h.h.h.h.h.h.h.h.h.h.h.h.h.h.h.h.h.h.h.h.h.h.h.h.h.h.h.h.h.h.h.h.h.h.h.h.h.h.h.h.h.i R E ^ ^ P E E p ",
"L E E E E E E E K h.h.h.h.h.h.h.h.h.h.h.h.h.h.h.h.h.h.h.h.h.h.h.h.h.h.h.h.h.h.h.h.h.h.h.h.h.h.h.h.h.h.h.h.h.h.p E P R R E E P p ",
"; ; ; ; ; ; ; ; ; h.h.h.h.h.h.h.h.h.h.h.h.h.h.h.h.h.h.h.h.h.h.h.h.h.h.h.h.h.h.h.h.h.h.h.h.h.h.h.h.h.h.h.h.h.h.# ; ; ; ; ; ; ; % ",
"&.>.&.&.&.*.&.&.%.h.h.h.h.h.h.h.h.h.h.h.h.h.h.h.h.h.h.h.h.h.h.h.h.h.h.h.h.h.h.h.h.h.h.h.h.h.h.h.h.h.h.h.h.h.h.c *.&.&.&.&.&.&.z ",
"&.>.*.&.&.<.&.&.@.h.h.h.h.h.h.h.h.h.h.h.h.h.h.h.h.h.h.h.h.h.h.h.h.h.h.h.h.h.h.h.h.h.h.h.h.h.h.h.h.h.h.h.h.h.h.c &.&.O.O.&.&.&.c ",
"K *.*.#.K &.&.*.%.h.h.h.h.h.h.h.h.h.h.h.h.h.h.h.h.h.h.h.h.h.h.h.h.h.h.h.h.h.h.h.h.h.h.h.h.h.h.h.h.h.h.h.h.h.h.v &.&.O.O.&.&.&.v ",
"^ &.&.O.^ &.&.&.@.h.h.h.h.h.h.h.h.h.h.h.h.h.h.h.h.h.h.h.h.h.h.h.h.h.h.h.h.h.h.h.h.h.h.h.h.h.h.h.h.h.h.h.h.h.h.v &.&.&.K y l ^ * ",
"&.&.*.&.&.&.&.&.%.h.h.h.h.h.h.h.h.h.h.h.h.h.h.h.h.h.h.h.h.h.h.h.h.h.h.h.h.h.h.h.h.h.h.h.h.h.h.h.h.h.h.h.h.h.h.v &.&.&.&.c %.>.c ",
"%.&.&.&.&.&.&.&.%.h.h.h.h.h.h.h.h.h.h.h.h.h.h.h.h.h.h.h.h.h.h.h.h.h.h.h.h.h.h.h.h.h.h.h.h.h.h.h.h.h.h.h.h.h.h.n *.&.&.&.&.&.&.c ",
"k v c v v v v c z h.h.h.h.h.h.h.h.h.h.h.h.h.h.h.h.h.h.h.h.h.h.h.h.h.h.h.h.h.h.h.h.h.h.h.h.h.h.h.h.h.h.h.h.h.h.0 v v v v v v v 9 ",
"H H K H H H K H c h.h.h.h.h.h.h.h.h.h.h.h.h.h.h.h.h.h.h.h.h.h.h.h.h.h.h.h.h.h.h.h.h.h.h.h.h.h.h.h.h.h.h.h.h.h.9 H H H H H H H 0 ",
"E K K P P L E E K h.h.h.h.h.h.h.h.h.h.h.h.h.h.h.h.h.h.h.h.h.h.h.h.h.h.h.h.h.h.h.h.h.h.h.h.h.h.h.h.h.h.h.h.h.h.p E E P L E E E s ",
"E 2 z _ K z ) K K h.h.h.h.h.h.h.h.h.h.h.h.h.h.h.h.h.h.h.h.h.h.h.h.h.h.h.h.h.h.h.h.h.h.h.h.h.h.h.h.h.h.h.h.h.h.p E ~ c c L E E i ",
"H k ~ P m ^ R H ~ h.h.h.h.h.h.h.h.h.h.h.h.h.h.h.h.h.h.h.h.h.h.h.h.h.h.h.h.h.h.h.h.h.h.h.h.h.h.h.h.h.h.h.h.h.h.h c ) H k s E E p ",
"H K R R P E E P ~ h.h.h.h.h.h.h.h.h.h.h.h.h.h.h.h.h.h.h.h.h.h.h.h.h.h.h.h.h.h.h.h.h.h.h.h.h.h.h.h.h.h.h.h.h.h.k H E E H P E P p ",
"K R R P E E E P K h.h.h.h.h.h.h.h.h.h.h.h.h.h.h.h.h.h.h.h.h.h.h.h.h.h.h.h.h.h.h.h.h.h.h.h.h.h.h.h.h.h.h.h.h.h.p E E E E ~ E E p "
};
