/* XPM */
static char *wall4[] = {
/* columns rows colors chars-per-pixel */
"64 64 156 2 ",
"   c #000000",
".  c #0A0B0B",
"X  c #030514",
"o  c #070C10",
"O  c #090E12",
"+  c #0E151B",
"@  c #131514",
"#  c #161816",
"$  c #10171E",
"%  c #11181E",
"&  c #1A1C1B",
"*  c #1E201F",
"=  c #161D26",
"-  c #181E26",
";  c #1D2123",
":  c #17212A",
">  c #1B242C",
",  c #1F2932",
"<  c #242625",
"1  c #262827",
"2  c #23262F",
"3  c #272928",
"4  c #2B2C2B",
"5  c #2E302F",
"6  c #252732",
"7  c #292732",
"8  c #262932",
"9  c #292B35",
"0  c #222E3A",
"q  c #2C2E39",
"w  c #2C3033",
"e  c #25313C",
"r  c #2D323B",
"t  c #343635",
"y  c #363837",
"u  c #31343D",
"i  c #373A39",
"p  c #3B3F3E",
"a  c #3B403E",
"s  c #273641",
"d  c #293642",
"f  c #2C3A46",
"g  c #2D3B48",
"h  c #323441",
"j  c #313E47",
"k  c #3C3F40",
"l  c #343D4B",
"z  c #3E4144",
"x  c #33414E",
"c  c #3B4149",
"v  c #344453",
"b  c #394653",
"n  c #374957",
"m  c #384956",
"M  c #37495A",
"N  c #3A4B5A",
"B  c #3E505E",
"V  c #3E4F61",
"C  c #3F5163",
"Z  c #414546",
"A  c #43464A",
"S  c #464A4D",
"D  c #4A4B4D",
"F  c #474A53",
"G  c #4D4E52",
"H  c #4A4E59",
"J  c #4E5154",
"K  c #42515D",
"L  c #505457",
"P  c #53575A",
"I  c #575B5E",
"U  c #585C5F",
"Y  c #425363",
"T  c #495764",
"R  c #445769",
"E  c #465A6C",
"W  c #495C6D",
"Q  c #535561",
"!  c #545B64",
"~  c #595C61",
"^  c #535E6E",
"/  c #475E70",
"(  c #485D70",
")  c #565F70",
"_  c #5D6164",
"`  c #5B606D",
"'  c #4D6476",
"]  c #4E6478",
"[  c #526374",
"{  c #596070",
"}  c #526679",
"|  c #52697D",
" . c #5A6A7A",
".. c #606467",
"X. c #626669",
"o. c #65696C",
"O. c #606672",
"+. c #686775",
"@. c #646B73",
"#. c #6A6E71",
"$. c #6C7073",
"%. c #6B737D",
"&. c #717576",
"*. c #72767A",
"=. c #75787D",
"-. c #787C7F",
";. c #546D81",
":. c #596F84",
">. c #567186",
",. c #5B7286",
"<. c #577188",
"1. c #5B768C",
"2. c #5C788E",
"3. c #5C7890",
"4. c #6D7480",
"5. c #717785",
"6. c #757A86",
"7. c #7A7D82",
"8. c #647E93",
"9. c #7D8085",
"0. c #7F8789",
"q. c #678095",
"w. c #7E8892",
"e. c #818689",
"r. c #868B8E",
"t. c #878F91",
"y. c #8A8F92",
"u. c #8D9296",
"i. c #8F9498",
"p. c #909497",
"a. c #909599",
"s. c #95989D",
"d. c #979CA0",
"f. c #999CA1",
"g. c #9EA1A6",
"h. c #9DA2A8",
"j. c #A1A2A7",
"k. c #A1A6AA",
"l. c #A5A9AD",
"z. c #A7AAB1",
"x. c #A9ACB3",
"c. c #AFB2B7",
"v. c #AFB2B9",
"b. c #B1B4BB",
"n. c #B5B8BD",
"m. c #B9BCC1",
"M. c #C7C8CC",
"N. c #CACBCF",
"B. c #CECFD3",
"V. c #CFD1D5",
"C. c #D2D1D7",
"Z. c #D6D7DB",
"A. c #D7D8DC",
"S. c #DBDCDF",
"D. c #DDDEE2",
"F. c #FFFFFF",
/* pixels */
"8 8 9 8 8 9 9 9 9 9 9 u u u u u u u u u u u u u u u u u u u u u u u q q q q q q q u 9 9 9 u u q u r r r r q q u u u 9 q u u u r ",
"9 9 8 8 8 8 2 8 8 9 8 9 u u u q 9 q w q q u u u q w u u u r u u u A 7.6.6.6.5.6.%.%.4.%.5.X.0 6 7 6 6 2 8 8 8 9 9 9 8 8 q u q u ",
"8 8 9 8 8 8 8 2 2 2 u u u u 6 8 6 9 q r r r u l Y m ( ( W E V N K l b ( h l M ( ( E } [ ) O.7 7 8 8 9 6 8 8 9 9 r 9 8 8 9 9 u q ",
"9 9 8 8 8 9 2 8 9 r u u u w 9 u u m ' 2.2.1.' | d 6 ( ( ( ( ( ( ( E d m N ( W N % 2.2.2.1.| s 9 9 9 2 9 8 6 6 q 8 9 8 9 2 2 9 2 ",
"8 8 8 6 8 8 8 9 u q r r u 8 6 N 1.2.2.2.2.d Y 1.;.O v ( ( ( ( ( ( ( R ( ( ( N = ' 2.2.2.M v :.v r 4 8 8 8 2 8 9 9 9 9 q r w r r ",
"8 8 8 8 8 8 9 2 9 8 9 9 r b N - ;.2.2.2.K n ;.1.2.;.s E ( Y Y ( ( ( ' W d E M e ;.2.' s d 3.1.2.2.1.T Q X.+.+.k 2 2 u u u 9 9 9 ",
"9 8 8 8 8 9 2 9 8 8 8 9 R ( ( N E 2.2.2.2.,.N | 2.:.g d m $ 0 m M C } N E x m 3.1.2.2.2.1.2.2.2.3.( V C ) ) ) ~ 9 u u u q 8 8 9 ",
"9 8 8 8 8 6 9 2 8 8 b ( W ( ( ' 2 E 2.2.2.2.2.2.2.2.1.b   V Y b m : m Y ( 6 | 3.2.3.2.2.R 2.2.2.E = C ( ( ) ) ~ w r r 9 9 q 9 u ",
"9 8 8 8 9 8 8 6 9 N ( ( ( ( W ( Y $ E 8.N s s s e 2.2.1.e E ( ( ( Y E W f ;.2.2.2.2.' d ' 2.2.E + Y N N ( ( B F u u u u u u u u ",
"9 8 8 8 9 8 8 9 T ( ( W ( ( ( W ( Y > 6 | 3.2.2.2.2.2.2.M 6 ( ( ( ( ' | m 3.2.2.m s R 2.2.2.' = Y ( ( ( E ( N 8 r u u u u u u r ",
"9 7 8 9 r u r W ( ( ( ( ( ( ( ( N T ~ ~ ~ U U U _ U ~ U U U ~ ~ ~ U P ~ U P U U U ~ U U ~ ~ S g Y ( Y Y ' E ( ( W l u u u r 9 8 ",
"9 q 9 8 8 q > C ( ( ( ( ( ( ] ! _ -.u.u.i.f.N.i.i.i.i.i.i.i.a.f.n.f.i.a.u.a.p.i.i.b.x.i.i.i.r.&.z N M M ( ( ( ( E Y 6 9 9 8 8 8 ",
"9 9 9 6 6 >.;.N 6 ( ( ( ( v S 0.i.a.u.a.i.r.b.k.i.i.i.u.i.i.i.y.b.g.p.p.a.p.p.i.e.b.b.f.a.a.a.a.i.e.L n ( ( ( ( W 9 m e 8 2 8 8 ",
"6 9 9 6 ;.v >.1.M > R ( M   P ~ _ ~ _ _ _ ~ z _ _ _ _ _ _ _ _ L p P ..~ _ _ _ _ _ a A _ _ _ ~ _ _ _ i 0 W E E s & m E [ 7 8 8 8 ",
"8 8 6 b 2.:.Y ;.1.v 0 M o < p p i p A y.u.7.@ i i i < 7.y.y._ i p u i y #.t.y.A i i i < #.y.u.U i i p 1 j E f f N W ' 2.x 8 8 8 ",
"6 8 6 ;.2.1.;.;.3.1.M i A < p p p p S i.i.0.@ k z a < e.a.a.X.a p p p i 7.i.a.S z p a < #.i.u._ k p p 4 #.d f ;.2.' 2.1.' 6 8 8 ",
"8 9 d 3.2.2.2.2.2.3.z 7._ < p a p a S i.a.e.@ a p a < e.a.u.X.a p p p y 7.i.a.S p p p < $.i.a._ p a p 4 y... .2.2.2.2.2.2.e 9 7 ",
"9 9 [ 2.2.:.r W ,.1._ a._ < a p p p S i.i.e.@ p p p < e.p.a.X.p p a p y -.i.i.S p a p < $.i.i._ p p p < u.e.  2.>.>.>.1.2.' 9 7 ",
"u u 2.1.2.2.2.W v K 7.i._ < z p a p S a.i.e.@ a p a < e.i.i.X.p a p p y -.i.i.S z p p < #.a.u._ a p a 4 i.u.P w.m v v ] 2.:.7 2 ",
"u u E E E E E E T Z u.i._ < p p p p S i.i.e.@ a p a < e.i.i.o.p p a p y =.i.i.S p p p < $.i.i._ p p p 4 u.i.#.  C E E R E R r 9 ",
"u X               Z u.i._ < p p p a S i.i.0.@ p a p < e.i.i.X.a p p p i =.i.i.S a p p < #.a.a._ p a p < i.i.i.            . u h ",
"T ;.;.M . . . Y | A _ _ _ _ _ _ _ _ _ _ _ _ _ _ _ _ _ _ _ _ _ _ _ _ _ _ _ _ _ _ _ _ _ _ _ _ _ _ _ _ #._ _ _ _ M ;.;.;.;.;.;.;.d ",
"T   : s ;.2.2.R ( #.i.a.g.M.n.i.i.i.i.i.i.f.C.j.i.u.i.i.i.i.i.a.Z.c.u.a.i.i.i.i.i.N.Z.s.i.i.i.i.p.i.m.N.i.i.i.v 0 d d d d 0 ;.b ",
"v T ' 2.2.2.2.2.Y #.a.a.7.g.d.i.i.i.i.i.u.r.x.i.i.i.i.p.p.i.a.7.z.g.i.i.i.p.i.i.i.h.z.a.i.p.i.i.p.y.t.f.i.i.i.d C 1.3.3.3.M     ",
"T q.2.2.2.2.3.2.1.A _ _ _ _ _ _ _ _ _ _ _ _ _ ~ _ _ _ _ _ _ _ _ _ _ _ _ _ _ _ _ _ _ _ _ _ _ _ _ _ _ _ _ _ _ _ R 2.2.3.2.2.1.E g ",
"T 3.3.3.3.2.2.2.1.#.i.i._ < z p a p S i.i.e.# p z p < e.u.a.X.p p p p y 7.i.i.S a p k < #.i.i._ p k p 4 u.i.i.N 1.2.2.2.2.2.2.N ",
"T ;.;.;.;.;.;.;.} #.p.i._ < a p p a S i.i.e.# p p z < 0.i.a.X.p k p p y =.i.i.S k p k < #.i.i._ p p p 4 u.i.i.v :.;.;.;.>.| ;.n ",
"^                 #.i.i._ < p p p a S i.i.e.@ a p p < e.i.i.o.p p a k i =.i.i.S p a p < $.i.i._ p a p 3 u.i.i.                  ",
"^ n n m R   0 M n $.i.i._ < p a z p S a.i.e.@ a p p < e.i.i.X.a p a p y *.i.a.S a p p < $.i.i._ z a p 3 i.i.i.0 m m M s N m m e ",
"H ( ' | m E E 6 ' $.i.i._ < p a p p A i.i.e.@ a p p < e.i.i.X.a p p p y =.u.a.S p p a < $.i.i._ p p a 3 u.i.i.g ( 0 , = Y / ( f ",
"@.( R e > ( ( ( E #.i.i._ < a a a p S i.i.e.@ a a p < e.i.a.X.a p a p y =.i.a.S a p a < $.a.i._ a a a 4 u.i.i.$ 6 ' E v O ( ( g ",
"R E C > x ( ( ( R #.i.i._ < a a p p S i.i.e.@ a p p < e.i.i.X.a p p p t =.i.i.S a p a < $.i.i._ a a a 4 u.i.i.g E E ' ] e N W g ",
"R ( E R M E ' E E P &.*.D & 5 5 5 w i &.*.o.. 5 5 5 & #.&.*.J w 5 5 5 4 ~ *.*.i 9 5 5 & P &.&.D t 5 4 ; *.$.*.g W ' ( E C m ( g ",
"Y ( ( E E ' E / E _ e.e.e.e.e.e.e.e.e.e.e.e.e.e.e.e.0.e.e.e.e.e.e.e.e.e.e.e.e.0.e.e.e.e.e.e.e.e.0.e.e.e.e.0.e.g ( ( E E ( ( ( g ",
"K Y Y Y Y R Y Y C #.i.i.f.V.v.p.p.a.i.i.p.f.D.f.i.i.i.i.i.i.i.a.S.b.p.i.i.i.i.i.a.B.S.s.a.i.i.i.i.i.V.N.i.i.i.s R Y Y R R Y Y d ",
"v m N N N M N M m #.i.i.r.g.a.i.a.p.p.i.i.y.k.i.i.i.i.i.i.i.i.r.a.s.i.i.u.i.i.i.i.y.g.s.p.a.i.i.a.u.f.f.i.i.i.e m N N N M N N e ",
">.2.2.' >.1.2.2.1.Z U U p @ < < < < 4 U U J . < < < @ P ~ U z < < < < * S U U 4 < < < # Z U U i < < < # U U ~ N 2.2.2.2.1.3.2.N ",
"1.8.8.| 1.q.q.1.1.#.i.i._ < p p a p S i.i.0.@ p a a < e.i.i.X.a p p a y -.i.i.S p p p 1 $.a.u._ a a p 4 u.i.i.N 2.2.' s s m 8.N ",
"2.2.2.2.2.2.2.2.1.#.p.i._ < p p p p S i.p.e.@ a p p < e.i.i.X.a a p a y -.i.i.S p p p < $.a.i._ a p a 4 u.i.i.N 2.2.2.1.1.;.r : ",
"2.2.2.2.2.2.2.1.1.#.i.i._ < a p p p S i.u.e.@ p p p < e.i.i.X.a p p p y -.i.i.S a p p < #.p.i._ a p a 4 u.i.i.M 2.2.2.2.2.2.3.N ",
"2.2.3.2.2.2.2.2.1.o.i.i._ < a p a p S i.i.e.@ p a a < e.a.i.X.a a p p y -.i.i.S p p p < #.a.i._ a p a 4 u.i.i.N 2.2.2.2.2.2.2.N ",
"2.2.2.3.2.2.2.2.1.#.i.i._ < a a p a S i.i.e.@ p p p < e.i.i.X.a p a a y 7.i.i.S p p p < $.p.a._ p p a 4 i.i.i.N 2.2.2.2.2.3.2.N ",
"r e r e r e r r d #.i.i._ < a a p a S i.i.e.@ p p p < e.i.i.X.p a a p y *.i.i.S a a a < $.i.u._ p p a 3 u.i.i.= r r d r s e r : ",
"E / ' E ' ' E ' E _ t.r.#.J ~ U U U _ r.r.7.J U U U L 9.r.r.#.~ U U ~ P *.r.r._ U U U J $.r.r.o.U U ~ J r.r.r.g ( ( ( ( ' E ' g ",
"( / ( ( E E / E R #.t.t.u.n.s.y.y.y.y.u.y.a.b.u.y.y.y.y.y.y.y.y.l.u.y.y.y.y.u.t.u.l.f.u.y.y.y.u.u.y.l.l.y.y.y.g ( ( ( ( E E ' d ",
"E ( ( E E ' ' / W #.u.i.e.l.x.i.i.i.i.p.i.e.l.g.i.u.i.i.u.a.a.y.m.j.i.i.i.i.i.i.r.c.m.f.i.i.i.p.u.y.a.z.i.i.i.g ( / ( ( ' E ( g ",
"| C , M ' C , M E U 7.7.=.*.7.7.7.7.7.7.7.*.&.7.7.7.7.7.7.7.7.-.7.7.7.9.7.7.7.7.7.=.7.7.7.7.7.7.7.7.*.-.7.7.6.g :.( / ( ( | , $ ",
"d d ' ( v s / / T D ....z @ < < < < 9 X...~ . < < < # U X...Z < < < < ; J ..X.w < < < @ S ..X.z < < < # X._ X.d ( ;.s , , ( ( g ",
"' ( ( E ( ( ( ( R #.i.i._ 3 a a a p S a.p.e.@ a a a < e.a.i.X.a p p p y =.i.i.S a p a < $.i.i._ a p a 4 u.i.i.g ( ( ] ' W ( ( g ",
"R ( ( ( E ' ( ( E #.i.i._ < a a p p S p.a.e.@ p p p < e.i.i...a p p a i =.i.i.S a p p < $.i.i._ p z p 4 u.a.i.g ( W ( ( ( ( ( g ",
", , , , , , , , , o.i.i._ < a a p z S i.i.e.@ p a p < e.i.i.o.p p p p y =.u.a.S p p a < $.i.i._ p p p < u.i.u.= , , , , , , 6 $ ",
"2.8.2.2.3.3.1.2.1.#.i.i._ < a a p a S a.i.e.@ a a a < e.p.i.X.p p p p t 7.a.p.S a p a < $.i.i._ a a z 4 u.i.i.m 3.2.1.3.2.2.2.N ",
"2.q.2.2.2.q.2.2.1.#.a.a._ < k p a p S a.u.e.# a p p < e.i.u.o.p a p a i -.a.u.S p a p < $.i.i._ p p k 4 u.u.i.N 3.2.;.;.2.2.2.N ",
"R 3.2.1.R 2.2.3.1.#.i.a._ < a p p p S i.i.0.@ a p a < 0.i.i.X.p p p p t -.a.a.S k p a < $.i.i._ a p a 4 u.a.i.N 2.2.| ;.2.2.2.N ",
"' 2.1.;.' 2.3.2.1.S _ ~ p @ 3 3 < 3 w _ _ P . < 3 3 @ U _ _ Z 3 4 < 4 < G _ _ w < 3 3 # S _ _ k 3 < < & _ _ ~ N 2.2.2.E s M ] : ",
"2.2.3.3.2.2.2.2.1.F.F.F.F.F.F.F.F.F.F.F.F.F.F.F.F.F.F.F.F.F.F.F.F.F.F.F.F.F.F.F.F.F.F.F.F.F.F.F.F.F.F.F.F.F.F.N 2.2.2.2.m 2.2.N ",
"1.3.2.3.2.3.2.2.1.F.F.F.F.F.F.F.F.F.F.F.F.F.F.F.F.F.F.F.F.F.F.F.F.F.F.F.F.F.F.F.F.F.F.F.F.F.F.F.F.F.F.F.F.F.F.V 3.2.2.2.2.2.2.N ",
"v N N m N N m m n F.F.F.F.F.F.F.F.F.F.F.F.F.F.F.F.F.F.F.F.F.F.F.F.F.F.F.F.F.F.F.F.F.F.F.F.F.F.F.F.F.F.F.F.F.F.e N N N N N N N e ",
"C Y Y Y R Y R Y m F.F.F.F.F.F.F.F.F.F.F.F.F.F.F.F.F.F.F.F.F.F.F.F.F.F.F.F.F.F.F.F.F.F.F.F.F.F.F.F.F.F.F.F.F.F.r R Y Y Y Y Y Y r ",
"W E E W W E ( W E F.F.F.F.F.F.F.F.F.F.F.F.F.F.F.F.F.F.F.F.F.F.F.F.F.F.F.F.F.F.F.F.F.F.F.F.F.F.F.F.F.F.F.F.F.F.g W ( W E ' E ' g ",
"( , n | R v | E R F.F.F.F.F.F.F.F.F.F.F.F.F.F.F.F.F.F.F.F.F.F.F.F.F.F.F.F.F.F.F.F.F.F.F.F.F.F.F.F.F.F.F.F.F.F.g ( ' m m R ' E f ",
"Y v ' E C ] ( Y ' F.F.F.F.F.F.F.F.F.F.F.F.F.F.F.F.F.F.F.F.F.F.F.F.F.F.F.F.F.F.F.F.F.F.F.F.F.F.F.F.F.F.F.F.F.F.x N ] R v f E ( g ",
"C E ( ( W ( ( E ' F.F.F.F.F.F.F.F.F.F.F.F.F.F.F.F.F.F.F.F.F.F.F.F.F.F.F.F.F.F.F.F.F.F.F.F.F.F.F.F.F.F.F.F.F.F.v C ( ( C W ( E g ",
"R ( ( ( ( ( ( W E F.F.F.F.F.F.F.F.F.F.F.F.F.F.F.F.F.F.F.F.F.F.F.F.F.F.F.F.F.F.F.F.F.F.F.F.F.F.F.F.F.F.F.F.F.F.g ( ( ( ( ' E ' g "
};
